SplineFontDB: 3.2
FontName: linja-luka
FullName: linja luka
FamilyName: linja luka
Weight: Book
Copyright: jan Pensamin & jan Melon (2022)
Version: 001.0
ItalicAngle: 0
UnderlinePosition: -100
UnderlineWidth: 50
Ascent: 800
Descent: 200
InvalidEm: 0
sfntRevision: 0x00010000
LayerCount: 2
Layer: 0 1 "Back" 1
Layer: 1 1 "Fore" 0
XUID: [1021 16 1011222284 16520]
StyleMap: 0x0040
FSType: 0
OS2Version: 4
OS2_WeightWidthSlopeOnly: 0
OS2_UseTypoMetrics: 0
CreationTime: 1643286896
ModificationTime: 1644026167
PfmFamily: 17
TTFWeight: 400
TTFWidth: 5
LineGap: 90
VLineGap: 0
Panose: 2 0 5 3 0 0 0 0 0 0
OS2TypoAscent: 800
OS2TypoAOffset: 0
OS2TypoDescent: -200
OS2TypoDOffset: 0
OS2TypoLinegap: 90
OS2WinAscent: 666
OS2WinAOffset: 0
OS2WinDescent: 0
OS2WinDOffset: 0
HheadAscent: 666
HheadAOffset: 0
HheadDescent: 0
HheadDOffset: 0
OS2SubXSize: 650
OS2SubYSize: 700
OS2SubXOff: 0
OS2SubYOff: 140
OS2SupXSize: 650
OS2SupYSize: 700
OS2SupXOff: 0
OS2SupYOff: 480
OS2StrikeYSize: 49
OS2StrikeYPos: 258
OS2CapHeight: 513
OS2XHeight: 550
OS2Vendor: 'CLGR'
OS2CodePages: 00000001.00000000
OS2UnicodeRanges: 00000003.00000000.00000000.00000000
Lookup: 4 0 1 "'liga' Standard Ligatures in Latin lookup 0" { "'liga' Standard Ligatures in Latin lookup 0 subtable"  } ['liga' ('DFLT' <'dflt' > 'latn' <'dflt' > ) ]
MarkAttachClasses: 1
DEI: 91125
TtTable: prep
PUSHW_1
 511
SCANCTRL
PUSHB_1
 4
SCANTYPE
EndTTInstrs
ShortTable: cvt  2
  33
  633
EndShort
ShortTable: maxp 16
  1
  0
  282
  256
  8
  0
  0
  2
  0
  1
  1
  0
  64
  0
  0
  0
EndShort
LangName: 1033 "" "" "" "sitelen telo Momo Regular : 05-02-2022" "" "Version 001.0" "" "" "" "" "linja luka" "" "" "SIL Open Font License 1.1" "" "" "linja luka" "Regular"
GaspTable: 1 65535 15 1
Encoding: UnicodeBmp
UnicodeInterp: none
NameList: AGL For New Fonts
DisplaySize: -48
AntiAlias: 1
FitToEm: 0
WinInfo: 0 27 9
BeginPrivate: 0
EndPrivate

StartChar: .notdef
Encoding: 65536 -1 0
Width: 364
Flags: W
LayerCount: 2
Fore
SplineSet
33 0 m 1,0,-1
 33 666 l 1,1,-1
 298 666 l 1,2,-1
 298 0 l 1,3,-1
 33 0 l 1,0,-1
66 33 m 1,4,-1
 265 33 l 1,5,-1
 265 633 l 1,6,-1
 66 633 l 1,7,-1
 66 33 l 1,4,-1
EndSplineSet
Validated: 1
EndChar

StartChar: exclam
Encoding: 33 33 5
Width: 213
GlyphClass: 2
Flags: W
LayerCount: 2
Fore
SplineSet
61 668 m 0,0,1
 72 676 72 676 107 676 c 2,2,-1
 127 676 l 2,3,4
 148 676 148 676 154.5 665 c 128,-1,5
 161 654 161 654 161 609 c 0,6,7
 161 598 161 598 157 468 c 0,8,9
 153 339 153 339 151 307 c 128,-1,10
 149 275 149 275 144 271 c 0,11,12
 135 264 135 264 107 264 c 128,-1,13
 79 264 79 264 70 271 c 0,14,15
 62 277 62 277 56 468 c 0,16,17
 52 576 52 576 52 623 c 0,18,19
 52 660 52 660 61 668 c 0,0,1
50 158 m 0,20,21
 50 196 50 196 60 209 c 128,-1,22
 70 222 70 222 99 222 c 0,23,24
 101 222 101 222 106 221.5 c 128,-1,25
 111 221 111 221 114 221 c 0,26,27
 144 219 144 219 153.5 208 c 128,-1,28
 163 197 163 197 163 163 c 0,29,30
 163 127 163 127 153 117 c 128,-1,31
 143 107 143 107 107 107 c 0,32,33
 72 107 72 107 61 117 c 128,-1,34
 50 127 50 127 50 158 c 0,20,21
EndSplineSet
Validated: 1
EndChar

StartChar: quotedbl
Encoding: 34 34 6
AltUni2: 00201e.ffffffff.0 00201d.ffffffff.0 00201c.ffffffff.0
Width: 343
GlyphClass: 2
Flags: W
LayerCount: 2
Fore
SplineSet
56 675 m 0,0,1
 63 681 63 681 101 681 c 0,2,3
 126 681 126 681 133 677 c 0,4,5
 139 672 139 672 139 641 c 0,6,7
 139 634 139 634 137 578 c 0,8,9
 133 484 133 484 128 477 c 0,10,11
 121 470 121 470 96 470 c 0,12,13
 70 470 70 470 63 477 c 0,14,15
 59 481 59 481 53 576 c 0,16,17
 50 627 50 627 50 646 c 0,18,19
 50 669 50 669 56 675 c 0,0,1
210 675 m 0,20,21
 220 682 220 682 248 682 c 128,-1,22
 276 682 276 682 286 675 c 0,23,24
 293 669 293 669 293 648 c 0,25,26
 293 631 293 631 290 574 c 0,27,28
 285 480 285 480 278 475 c 0,29,30
 270 470 270 470 250 470 c 0,31,32
 222 470 222 470 217 477 c 0,33,34
 211 484 211 484 206 576 c 0,35,36
 203 628 203 628 203 647 c 0,37,38
 203 669 203 669 210 675 c 0,20,21
EndSplineSet
Validated: 1
EndChar

StartChar: numbersign
Encoding: 35 35 7
Width: 551
GlyphClass: 2
Flags: W
LayerCount: 2
Fore
SplineSet
306 321 m 1,0,-1
 306 398 l 1,1,-1
 244 398 l 1,2,-1
 244 321 l 1,3,-1
 306 321 l 1,0,-1
156 480 m 1,4,-1
 156 589 l 1,5,-1
 244 589 l 1,6,-1
 244 480 l 1,7,-1
 306 480 l 1,8,-1
 306 589 l 1,9,-1
 388 589 l 1,10,-1
 389 536 l 1,11,-1
 391 483 l 1,12,-1
 442 480 l 1,13,-1
 494 478 l 1,14,-1
 495 438 l 1,15,-1
 497 398 l 1,16,-1
 388 398 l 1,17,-1
 388 321 l 1,18,-1
 496 321 l 1,19,-1
 496 239 l 1,20,-1
 444 237 l 1,21,-1
 391 236 l 1,22,-1
 389 186 l 1,23,-1
 388 135 l 1,24,-1
 306 135 l 1,25,-1
 306 238 l 1,26,-1
 244 238 l 1,27,-1
 244 135 l 1,28,-1
 156 135 l 1,29,-1
 156 238 l 1,30,-1
 53 238 l 1,31,-1
 53 321 l 1,32,-1
 156 321 l 1,33,-1
 156 398 l 1,34,-1
 53 398 l 1,35,-1
 53 480 l 1,36,-1
 156 480 l 1,4,-1
EndSplineSet
Validated: 1
EndChar

StartChar: dollar
Encoding: 36 36 8
Width: 438
GlyphClass: 2
Flags: W
LayerCount: 2
Fore
SplineSet
263 302 m 0,0,1
 253 310 253 310 248 310 c 0,2,3
 244 310 244 310 244 254 c 0,4,5
 244 215 244 215 245.5 206 c 128,-1,6
 247 197 247 197 254 197 c 0,7,8
 265 197 265 197 277.5 213.5 c 128,-1,9
 290 230 290 230 290 246 c 0,10,11
 290 282 290 282 263 302 c 0,0,1
187 462 m 0,12,13
 187 506 187 506 180 506 c 0,14,15
 169 506 169 506 160.5 492.5 c 128,-1,16
 152 479 152 479 152 463 c 0,17,18
 152 456 152 456 153 452 c 0,19,20
 155 443 155 443 166 431 c 128,-1,21
 177 419 177 419 183 419 c 0,22,23
 187 419 187 419 187 462 c 0,12,13
187 612 m 2,24,-1
 187 635 l 1,25,-1
 244 635 l 1,26,-1
 244 591 l 1,27,-1
 271 585 l 2,28,29
 292 581 292 581 317 565 c 0,30,31
 332 555 332 555 348.5 535.5 c 128,-1,32
 365 516 365 516 365 508 c 0,33,34
 365 506 365 506 364 506 c 0,35,36
 356 500 356 500 321 491 c 2,37,-1
 281 479 l 1,38,-1
 268 493 l 2,39,40
 255 506 255 506 249 506 c 0,41,42
 244 506 244 506 244 452 c 2,43,-1
 244 398 l 1,44,-1
 282 380 l 2,45,46
 383 334 383 334 383 248 c 0,47,48
 383 200 383 200 354.5 165 c 128,-1,49
 326 130 326 130 275 116 c 2,50,-1
 244 108 l 1,51,-1
 244 68 l 1,52,-1
 187 68 l 1,53,-1
 187 89 l 2,54,55
 187 102 187 102 184.5 106 c 128,-1,56
 182 110 182 110 173 112 c 0,57,58
 125 124 125 124 92 162 c 0,59,60
 53 209 53 209 53 229 c 0,61,62
 53 233 53 233 86 246 c 128,-1,63
 119 259 119 259 130 259 c 1,64,-1
 132 258 l 2,65,66
 134 256 134 256 146 237 c 0,67,68
 155 221 155 221 166.5 209 c 128,-1,69
 178 197 178 197 183 197 c 0,70,71
 187 197 187 197 187 266 c 0,72,73
 187 313 187 313 185.5 324.5 c 128,-1,74
 184 336 184 336 178 336 c 0,75,76
 166 336 166 336 135 353 c 128,-1,77
 104 370 104 370 91 383 c 0,78,79
 58 419 58 419 58 469 c 0,80,81
 58 541 58 541 137 578 c 0,82,83
 159 589 159 589 173 589 c 0,84,85
 183 589 183 589 185 592.5 c 128,-1,86
 187 596 187 596 187 612 c 2,24,-1
EndSplineSet
Validated: 1
EndChar

StartChar: percent
Encoding: 37 37 9
Width: 524
GlyphClass: 2
Flags: W
LayerCount: 2
Fore
SplineSet
172 511 m 128,-1,1
 162 521 162 521 155 521 c 0,2,3
 146 521 146 521 136 508 c 0,4,5
 128 497 128 497 128 485 c 0,6,7
 128 472 128 472 137 461 c 0,8,9
 143 455 143 455 156 455 c 0,10,11
 170 455 170 455 176 461 c 128,-1,12
 182 467 182 467 182 481 c 0,13,0
 182 501 182 501 172 511 c 128,-1,1
109 578 m 0,14,15
 131 589 131 589 153 589 c 0,16,17
 210 589 210 589 239 544 c 0,18,19
 258 516 258 516 258 485 c 0,20,21
 258 455 258 455 237 423 c 0,22,23
 210 384 210 384 161 384 c 2,24,-1
 154 384 l 1,25,26
 102 388 102 388 85 404 c 0,27,28
 54 434 54 434 54 480 c 0,29,30
 54 549 54 549 109 578 c 0,14,15
251 412 m 2,31,-1
 339 573 l 1,32,-1
 371 573 l 2,33,34
 404 573 404 573 404 570 c 0,35,36
 404 565 404 565 296 369 c 128,-1,37
 188 173 188 173 183 168 c 0,38,39
 174 161 174 161 145 161 c 2,40,-1
 116 161 l 1,41,-1
 139 206 l 2,42,43
 144 216 144 216 161.5 248 c 128,-1,44
 179 280 179 280 205 327.5 c 128,-1,45
 231 375 231 375 251 412 c 2,31,-1
384 276 m 0,46,47
 374 285 374 285 365 285 c 0,48,49
 352 285 352 285 343 266 c 0,50,51
 337 254 337 254 337 248 c 0,52,53
 337 244 337 244 342 234 c 0,54,55
 350 218 350 218 371 218 c 0,56,57
 379 218 379 218 386 223 c 0,58,59
 393 229 393 229 393 247 c 0,60,61
 393 268 393 268 384 276 c 0,46,47
319 342 m 0,62,63
 334 351 334 351 362 351 c 0,64,65
 394 351 394 351 414 341 c 0,66,67
 439 328 439 328 454 302.5 c 128,-1,68
 469 277 469 277 469 248 c 0,69,70
 469 235 469 235 466 223 c 0,71,72
 458 190 458 190 428.5 168 c 128,-1,73
 399 146 399 146 364 146 c 0,74,75
 333 146 333 146 307 165 c 0,76,77
 265 195 265 195 265 247 c 0,78,79
 265 308 265 308 319 342 c 0,62,63
EndSplineSet
Validated: 1
EndChar

StartChar: ampersand
Encoding: 38 38 10
Width: 482
GlyphClass: 2
Flags: W
LayerCount: 2
Fore
SplineSet
168 628 m 0,0,1
 190 634 190 634 212 634 c 0,2,3
 282 634 282 634 324 578 c 0,4,5
 339 555 339 555 336 552 c 0,6,7
 333 547 333 547 302 531 c 2,8,-1
 271 515 l 1,9,-1
 253 533 l 2,10,11
 235 550 235 550 210 550 c 0,12,13
 159 550 159 550 159 499 c 0,14,15
 159 474 159 474 173 460 c 0,16,17
 183 450 183 450 192.5 447 c 128,-1,18
 202 444 202 444 230 442 c 2,19,-1
 272 438 l 1,20,-1
 272 363 l 1,21,-1
 232 361 l 2,22,23
 190 359 190 359 173 345 c 0,24,25
 139 319 139 319 139 272 c 0,26,27
 139 263 139 263 140 259 c 0,28,29
 145 214 145 214 182 196 c 0,30,31
 198 188 198 188 219 188 c 0,32,33
 264 188 264 188 280 218 c 0,34,35
 286 230 286 230 286 235 c 0,36,37
 286 243 286 243 259 243 c 2,38,-1
 231 243 l 1,39,-1
 231 314 l 1,40,-1
 299 316 l 2,41,42
 335 318 335 318 356 318 c 0,43,44
 381 318 381 318 397 316 c 2,45,-1
 427 314 l 1,46,-1
 427 243 l 1,47,-1
 377 243 l 1,48,-1
 368 213 l 2,49,50
 352 154 352 154 295 125 c 0,51,52
 269 112 269 112 215 112 c 0,53,54
 160 112 160 112 136 124 c 0,55,56
 56 163 56 163 51 252 c 1,57,-1
 51 268 l 2,58,59
 51 333 51 333 94 376 c 2,60,-1
 122 402 l 1,61,-1
 101 422 l 2,62,63
 66 454 66 454 66 500 c 0,64,65
 66 547 66 547 93.5 581 c 128,-1,66
 121 615 121 615 168 628 c 0,0,1
EndSplineSet
Validated: 1
EndChar

StartChar: quotesingle
Encoding: 39 39 11
AltUni2: 00201a.ffffffff.0 002019.ffffffff.0 002018.ffffffff.0
Width: 193
GlyphClass: 2
Flags: W
LayerCount: 2
Fore
SplineSet
56 675 m 0,0,1
 66 681 66 681 96 681 c 2,2,-1
 104 681 l 2,3,4
 128 681 128 681 135 675 c 128,-1,5
 142 669 142 669 142 643 c 0,6,7
 142 621 142 621 139 576 c 0,8,9
 134 484 134 484 128 477 c 0,10,11
 121 470 121 470 96 470 c 0,12,13
 70 470 70 470 63 477 c 0,14,15
 59 481 59 481 53 576 c 0,16,17
 50 631 50 631 50 650 c 0,18,19
 50 670 50 670 56 675 c 0,0,1
EndSplineSet
Validated: 1
EndChar

StartChar: parenleft
Encoding: 40 40 12
Width: 278
GlyphClass: 2
Flags: W
LayerCount: 2
Fore
SplineSet
124 618 m 0,0,1
 134 631 134 631 141 633 c 128,-1,2
 148 635 148 635 180 635 c 2,3,-1
 223 635 l 1,4,-1
 194 577 l 2,5,6
 138 465 138 465 138 353 c 0,7,8
 138 230 138 230 203 118 c 0,9,10
 218 94 218 94 218 86 c 128,-1,11
 218 78 218 78 197 78 c 0,12,13
 182 78 182 78 172 79 c 0,14,15
 147 80 147 80 139 83 c 128,-1,16
 131 86 131 86 123 96 c 0,17,18
 108 114 108 114 90 152.5 c 128,-1,19
 72 191 72 191 63 225 c 0,20,21
 51 270 51 270 51 357 c 0,22,23
 51 435 51 435 61 475 c 0,24,25
 69 508 69 508 89 553.5 c 128,-1,26
 109 599 109 599 124 618 c 0,0,1
EndSplineSet
Validated: 1
EndChar

StartChar: parenright
Encoding: 41 41 13
Width: 276
GlyphClass: 2
Flags: W
LayerCount: 2
Fore
SplineSet
54 625 m 0,0,1
 54 629 54 629 79 629 c 2,2,-1
 97 629 l 1,3,-1
 139 627 l 1,4,-1
 158 599 l 2,5,6
 199 538 199 538 217 449 c 0,7,8
 224 417 224 417 224 360 c 0,9,10
 224 268 224 268 209 213 c 0,11,12
 192 155 192 155 156 101 c 2,13,-1
 141 78 l 1,14,-1
 98 78 l 2,15,16
 54 78 54 78 54 81 c 0,17,18
 54 85 54 85 68 108 c 0,19,20
 102 165 102 165 122 236 c 0,21,22
 135 285 135 285 135 352 c 0,23,24
 135 418 135 418 122 467 c 0,25,26
 98 550 98 550 67 598 c 0,27,28
 54 620 54 620 54 625 c 0,0,1
EndSplineSet
Validated: 1
EndChar

StartChar: asterisk
Encoding: 42 42 14
Width: 438
GlyphClass: 2
Flags: W
LayerCount: 2
Fore
SplineSet
327 466 m 0,0,1
 327 463 327 463 306.5 428 c 128,-1,2
 286 393 286 393 286 391 c 128,-1,3
 286 389 286 389 331 387 c 2,4,-1
 376 385 l 1,5,-1
 382 367 l 2,6,7
 385 358 385 358 385 349 c 0,8,9
 385 322 385 322 372 314 c 0,10,11
 370 312 370 312 352 312 c 0,12,13
 333 312 333 312 323 313 c 2,14,-1
 279 317 l 1,15,-1
 288 302 l 2,16,17
 290 299 290 299 311 264 c 0,18,19
 327 241 327 241 327 237 c 0,20,21
 327 230 327 230 311 215.5 c 128,-1,22
 295 201 295 201 285 199 c 0,23,24
 282 198 282 198 276 198 c 0,25,26
 266 198 266 198 257.5 207.5 c 128,-1,27
 249 217 249 217 237 243 c 0,28,29
 222 274 222 274 219 274 c 0,30,31
 215 274 215 274 197 240 c 0,32,33
 183 214 183 214 178 209 c 128,-1,34
 173 204 173 204 158 203 c 2,35,-1
 152 203 l 2,36,37
 136 203 136 203 124 215 c 0,38,39
 110 229 110 229 110 237 c 0,40,41
 110 243 110 243 129 272.5 c 128,-1,42
 148 302 148 302 154 310 c 1,43,-1
 154 311 l 1,44,-1
 155 312 l 2,45,46
 155 315 155 315 146 315 c 0,47,48
 145 315 145 315 115 313 c 0,49,50
 87 311 87 311 84 311 c 0,51,52
 69 311 69 311 62 321 c 0,53,54
 54 334 54 334 54 356 c 0,55,56
 54 375 54 375 60 381 c 0,57,58
 68 387 68 387 112 389 c 2,59,-1
 157 390 l 1,60,-1
 134 423 l 2,61,62
 110 458 110 458 110 464 c 0,63,64
 110 472 110 472 126 486 c 0,65,66
 140 501 140 501 152 501 c 0,67,68
 153 501 153 501 155.5 500.5 c 128,-1,69
 158 500 158 500 160 500 c 0,70,71
 174 499 174 499 179.5 493.5 c 128,-1,72
 185 488 185 488 198 464 c 0,73,74
 216 429 216 429 220 429 c 128,-1,75
 224 429 224 429 242 465 c 0,76,77
 255 490 255 490 260 495.5 c 128,-1,78
 265 501 265 501 277 501 c 0,79,80
 292 501 292 501 309.5 488.5 c 128,-1,81
 327 476 327 476 327 466 c 0,0,1
EndSplineSet
Validated: 1
EndChar

StartChar: plus
Encoding: 43 43 15
Width: 375
GlyphClass: 2
Flags: W
LayerCount: 2
Fore
SplineSet
146 423 m 2,0,-1
 146 465 l 1,1,-1
 187 464 l 1,2,-1
 226 462 l 1,3,-1
 228 415 l 1,4,-1
 229 368 l 1,5,6
 244 368 244 368 274 366 c 128,-1,7
 304 364 304 364 319 364 c 1,8,-1
 321 325 l 1,9,-1
 322 285 l 1,10,-1
 274 284 l 1,11,-1
 226 282 l 1,12,-1
 225 235 l 1,13,-1
 223 187 l 1,14,-1
 147 187 l 1,15,-1
 145 235 l 1,16,-1
 144 282 l 1,17,-1
 98 284 l 1,18,-1
 53 285 l 1,19,-1
 55 325 l 1,20,-1
 56 364 l 1,21,-1
 97 366 l 2,22,23
 137 368 137 368 142 374 c 0,24,25
 146 382 146 382 146 423 c 2,0,-1
EndSplineSet
Validated: 1
EndChar

StartChar: comma
Encoding: 44 44 16
Width: 197
GlyphClass: 2
Flags: W
LayerCount: 2
Fore
SplineSet
65 262 m 2,0,1
 74 271 74 271 92 271 c 0,2,3
 103 271 103 271 109 267 c 128,-1,4
 115 263 115 263 128 248 c 0,5,6
 144 231 144 231 144 225 c 0,7,8
 144 221 144 221 139 218 c 0,9,10
 130 211 130 211 115 209 c 0,11,12
 111 208 111 208 106 208 c 0,13,14
 98 208 98 208 77 230 c 2,15,-1
 55 255 l 1,16,-1
 65 262 l 2,0,1
EndSplineSet
EndChar

StartChar: hyphen
Encoding: 45 45 17
Width: 366
GlyphClass: 2
Flags: W
LayerCount: 2
Fore
SplineSet
51 290 m 1,0,-1
 51 372 l 1,1,-1
 314 372 l 1,2,-1
 314 290 l 1,3,-1
 51 290 l 1,0,-1
EndSplineSet
Validated: 1
EndChar

StartChar: period
Encoding: 46 46 18
Width: 197
GlyphClass: 2
Flags: W
LayerCount: 2
Fore
SplineSet
65 262 m 2,0,1
 74 271 74 271 92 271 c 0,2,3
 103 271 103 271 109 267 c 128,-1,4
 115 263 115 263 128 248 c 0,5,6
 144 231 144 231 144 225 c 0,7,8
 144 221 144 221 139 218 c 0,9,10
 130 211 130 211 115 209 c 0,11,12
 111 208 111 208 106 208 c 0,13,14
 98 208 98 208 77 230 c 2,15,-1
 55 255 l 1,16,-1
 65 262 l 2,0,1
EndSplineSet
EndChar

StartChar: slash
Encoding: 47 47 19
Width: 414
GlyphClass: 2
Flags: W
LayerCount: 2
Fore
SplineSet
205 484 m 2,0,-1
 269 635 l 1,1,-1
 314 635 l 2,2,3
 359 635 359 635 359 632 c 0,4,5
 359 627 359 627 347 600 c 0,6,7
 321 541 321 541 248 362 c 0,8,9
 236 334 236 334 162 153 c 2,10,-1
 149 122 l 1,11,-1
 102 121 l 1,12,-1
 84 121 l 2,13,14
 55 121 55 121 55 124 c 0,15,16
 55 131 55 131 110 261 c 0,17,18
 152 361 152 361 205 484 c 2,0,-1
EndSplineSet
Validated: 1
EndChar

StartChar: zero
Encoding: 48 48 20
Width: 476
GlyphClass: 2
Flags: W
LayerCount: 2
Fore
SplineSet
271 560 m 0,0,1
 257 568 257 568 241 568 c 2,2,-1
 238 568 l 2,3,4
 198 567 198 567 180.5 532 c 128,-1,5
 163 497 163 497 158 413 c 0,6,7
 158 408 158 408 157.5 397.5 c 128,-1,8
 157 387 157 387 157 381 c 0,9,10
 157 274 157 274 177 229 c 0,11,12
 194 192 194 192 235 192 c 0,13,14
 263 192 263 192 282 211 c 0,15,16
 309 238 309 238 315 349 c 0,17,18
 316 363 316 363 316 389 c 0,19,20
 316 537 316 537 271 560 c 0,0,1
185 644 m 0,21,22
 199 649 199 649 232 649 c 0,23,24
 292 649 292 649 323 635 c 0,25,26
 349 623 349 623 371 597 c 128,-1,27
 393 571 393 571 403 541 c 0,28,29
 423 482 423 482 423 390 c 0,30,31
 423 265 423 265 389 197 c 0,32,33
 367 152 367 152 314 125 c 0,34,35
 287 112 287 112 232 112 c 0,36,37
 194 112 194 112 180.5 114.5 c 128,-1,38
 167 117 167 117 149 126 c 0,39,40
 104 150 104 150 82.5 194 c 128,-1,41
 61 238 61 238 54 318 c 0,42,43
 51 348 51 348 51 378 c 0,44,45
 51 407 51 407 54 434 c 0,46,47
 62 524 62 524 93.5 574 c 128,-1,48
 125 624 125 624 185 644 c 0,21,22
EndSplineSet
Validated: 1
EndChar

StartChar: one
Encoding: 49 49 21
Width: 429
GlyphClass: 2
Flags: W
LayerCount: 2
Fore
SplineSet
123 594 m 2,0,-1
 187 635 l 1,1,-1
 228 634 l 1,2,-1
 269 632 l 1,3,-1
 271 415 l 1,4,-1
 272 197 l 1,5,-1
 318 197 l 2,6,7
 358 197 358 197 366.5 191 c 128,-1,8
 375 185 375 185 375 156 c 2,9,-1
 375 146 l 2,10,11
 375 123 375 123 355.5 118.5 c 128,-1,12
 336 114 336 114 237 114 c 2,13,-1
 216 114 l 2,14,15
 68 114 68 114 61 121 c 0,16,17
 55 127 55 127 55 156 c 128,-1,18
 55 185 55 185 61 191 c 128,-1,19
 67 197 67 197 118 197 c 2,20,-1
 169 197 l 1,21,-1
 169 362 l 2,22,23
 169 527 169 527 163 527 c 0,24,25
 161 527 161 527 116 504.5 c 128,-1,26
 71 482 71 482 64 482 c 2,27,-1
 63 482 l 1,28,29
 52 487 52 487 52 518 c 0,30,31
 52 532 52 532 55 539 c 0,32,33
 61 555 61 555 123 594 c 2,0,-1
EndSplineSet
Validated: 1
EndChar

StartChar: two
Encoding: 50 50 22
Width: 455
GlyphClass: 2
Flags: W
LayerCount: 2
Fore
SplineSet
78 601 m 0,0,1
 128 644 128 644 213 644 c 0,2,3
 216 644 216 644 222 643.5 c 128,-1,4
 228 643 228 643 231 643 c 0,5,6
 281 640 281 640 308 627 c 0,7,8
 380 590 380 590 380 508 c 0,9,10
 380 492 380 492 377 474 c 0,11,12
 369 427 369 427 339.5 381.5 c 128,-1,13
 310 336 310 336 239 263 c 2,14,-1
 179 202 l 1,15,-1
 392 202 l 1,16,-1
 397 189 l 2,17,18
 402 179 402 179 402 158 c 0,19,20
 402 138 402 138 397 128 c 2,21,-1
 392 114 l 1,22,-1
 230 114 l 1,23,-1
 177 114 l 2,24,25
 88 114 88 114 70 119 c 128,-1,26
 52 124 52 124 52 149 c 2,27,-1
 52 162 l 2,28,29
 52 191 52 191 60 205.5 c 128,-1,30
 68 220 68 220 111 264 c 0,31,32
 212 369 212 369 235 415 c 0,33,34
 254 452 254 452 254 482 c 128,-1,35
 254 512 254 512 236 529.5 c 128,-1,36
 218 547 218 547 187 547 c 0,37,38
 151 547 151 547 109 524 c 0,39,40
 81 509 81 509 74 509 c 0,41,42
 66 509 66 509 64 518.5 c 128,-1,43
 62 528 62 528 62 554 c 0,44,45
 62 578 62 578 64.5 585 c 128,-1,46
 67 592 67 592 78 601 c 0,0,1
EndSplineSet
Validated: 1
EndChar

StartChar: three
Encoding: 51 51 23
Width: 451
GlyphClass: 2
Flags: W
LayerCount: 2
Fore
SplineSet
151 638 m 0,0,1
 173 644 173 644 210 644 c 0,2,3
 273 644 273 644 300 631 c 0,4,5
 346 611 346 611 365 568 c 0,6,7
 372 551 372 551 372 514 c 128,-1,8
 372 477 372 477 365 460 c 0,9,10
 346 416 346 416 309 398 c 0,11,12
 293 390 293 390 293 388 c 0,13,14
 292 387 292 387 297 385 c 0,15,16
 325 374 325 374 336 368 c 0,17,18
 391 340 391 340 396 272 c 1,19,-1
 396 261 l 2,20,21
 396 191 396 191 342 148 c 128,-1,22
 288 105 288 105 199 105 c 0,23,24
 184 105 184 105 176 106 c 0,25,26
 142 108 142 108 107.5 118 c 128,-1,27
 73 128 73 128 61 139 c 0,28,29
 52 148 52 148 52 182 c 0,30,31
 52 221 52 221 65 221 c 0,32,33
 72 221 72 221 89 212 c 0,34,35
 139 186 139 186 185 186 c 0,36,37
 234 186 234 186 258 215 c 0,38,39
 274 233 274 233 274 261 c 0,40,41
 274 288 274 288 260 305 c 0,42,43
 244 324 244 324 225 331 c 128,-1,44
 206 338 206 338 163 340 c 0,45,46
 110 342 110 342 105 347 c 0,47,48
 98 352 98 352 98 380 c 0,49,50
 98 407 98 407 105 412 c 0,51,52
 111 418 111 418 158 420 c 0,53,54
 234 424 234 424 251 463 c 0,55,56
 259 482 259 482 259 498 c 0,57,58
 259 522 259 522 241 541 c 0,59,60
 228 555 228 555 221 557.5 c 128,-1,61
 214 560 214 560 187 560 c 0,62,63
 163 560 163 560 150.5 556.5 c 128,-1,64
 138 553 138 553 112 540 c 0,65,66
 82 524 82 524 70 524 c 2,67,-1
 68 524 l 1,68,69
 62 528 62 528 62 558 c 128,-1,70
 62 588 62 588 73 599 c 0,71,72
 97 623 97 623 151 638 c 0,0,1
EndSplineSet
Validated: 1
EndChar

StartChar: four
Encoding: 52 52 24
Width: 496
GlyphClass: 2
Flags: W
LayerCount: 2
Fore
SplineSet
275 421 m 2,0,1
 275 537 275 537 274 537 c 0,2,3
 272 537 272 537 206.5 424 c 128,-1,4
 141 311 141 311 141 308 c 128,-1,5
 141 305 141 305 208 305 c 2,6,-1
 275 305 l 1,7,-1
 275 421 l 2,0,1
241 630 m 0,8,9
 248 634 248 634 293 634 c 0,10,11
 362 634 362 634 372 628 c 0,12,13
 378 624 378 624 378 464 c 2,14,-1
 378 305 l 1,15,-1
 404 305 l 2,16,17
 430 305 430 305 435 295 c 0,18,19
 440 287 440 287 440 267 c 0,20,21
 440 246 440 246 435 236 c 0,22,23
 432 227 432 227 427 225 c 128,-1,24
 422 223 422 223 404 223 c 2,25,-1
 378 223 l 1,26,-1
 378 174 l 2,27,28
 378 131 378 131 371 122.5 c 128,-1,29
 364 114 364 114 327 114 c 128,-1,30
 290 114 290 114 282.5 122.5 c 128,-1,31
 275 131 275 131 275 174 c 2,32,-1
 275 223 l 1,33,-1
 170 223 l 2,34,35
 65 223 65 223 59 230 c 0,36,37
 54 237 54 237 54 259 c 0,38,39
 54 272 54 272 55 280 c 0,40,41
 57 311 57 311 60.5 323.5 c 128,-1,42
 64 336 64 336 80 362 c 0,43,44
 104 401 104 401 120 431 c 0,45,46
 225 623 225 623 241 630 c 0,8,9
EndSplineSet
Validated: 1
EndChar

StartChar: five
Encoding: 53 53 25
Width: 445
GlyphClass: 2
Flags: W
LayerCount: 2
Fore
SplineSet
79 627 m 0,0,1
 84 634 84 634 146 634 c 2,2,-1
 221 634 l 1,3,-1
 356 632 l 1,4,-1
 360 611 l 2,5,6
 362 605 362 605 362 589 c 128,-1,7
 362 573 362 573 360 567 c 2,8,-1
 356 545 l 1,9,-1
 259 543 l 1,10,-1
 162 542 l 1,11,-1
 162 436 l 1,12,-1
 221 432 l 2,13,14
 270 430 270 430 297 422 c 128,-1,15
 324 414 324 414 346 395 c 0,16,17
 391 357 391 357 391 279 c 0,18,19
 391 236 391 236 380 209 c 128,-1,20
 369 182 369 182 340 156 c 0,21,22
 309 127 309 127 278.5 117 c 128,-1,23
 248 107 248 107 191 107 c 2,24,-1
 175 107 l 2,25,26
 127 107 127 107 100 116 c 0,27,28
 67 126 67 126 59.5 135.5 c 128,-1,29
 52 145 52 145 52 174 c 0,30,31
 52 215 52 215 65 215 c 0,32,33
 72 215 72 215 96 204 c 0,34,35
 128 189 128 189 175 189 c 0,36,37
 213 189 213 189 232.5 196.5 c 128,-1,38
 252 204 252 204 267 224 c 0,39,40
 280 240 280 240 280 271 c 0,41,42
 280 295 280 295 272 311 c 0,43,44
 260 339 260 339 237.5 346.5 c 128,-1,45
 215 354 215 354 149 354 c 2,46,-1
 78 354 l 1,47,-1
 74 375 l 2,48,49
 71 387 71 387 71 462 c 2,50,-1
 71 507 l 2,51,52
 72 619 72 619 79 627 c 0,0,1
EndSplineSet
Validated: 1
EndChar

StartChar: six
Encoding: 54 54 26
Width: 458
GlyphClass: 2
Flags: W
LayerCount: 2
Fore
SplineSet
278 354 m 0,0,1
 269 363 269 363 240 365 c 2,2,-1
 228 365 l 2,3,4
 202 365 202 365 171 349 c 0,5,6
 159 343 159 343 156.5 338.5 c 128,-1,7
 154 334 154 334 154 319 c 0,8,9
 154 262 154 262 173 224 c 0,10,11
 189 192 189 192 229 192 c 0,12,13
 250 192 250 192 266 202 c 0,14,15
 303 225 303 225 303 286 c 0,16,17
 303 332 303 332 278 354 c 0,0,1
208 644 m 0,18,19
 228 649 228 649 263 649 c 0,20,21
 320 649 320 649 349 640 c 0,22,23
 365 634 365 634 370.5 623.5 c 128,-1,24
 376 613 376 613 376 590 c 0,25,26
 376 569 376 569 373 561.5 c 128,-1,27
 370 554 370 554 359 554 c 0,28,29
 352 554 352 554 330 559 c 0,30,31
 296 568 296 568 272 568 c 0,32,33
 244 568 244 568 216 554 c 0,34,35
 162 525 162 525 156 455 c 0,36,37
 155 447 155 447 154.5 439.5 c 128,-1,38
 154 432 154 432 154 428 c 128,-1,39
 154 424 154 424 155 424 c 0,40,41
 158 424 158 424 182 435 c 0,42,43
 215 449 215 449 263 449 c 0,44,45
 295 449 295 449 315 442 c 0,46,47
 366 425 366 425 390 381 c 0,48,49
 400 362 400 362 402 349 c 128,-1,50
 404 336 404 336 404 295 c 0,51,52
 404 234 404 234 393 211 c 0,53,54
 382 186 382 186 358.5 162 c 128,-1,55
 335 138 335 138 309 126 c 0,56,57
 290 116 290 116 276.5 114 c 128,-1,58
 263 112 263 112 224 112 c 0,59,60
 186 112 186 112 172.5 114.5 c 128,-1,61
 159 117 159 117 141 126 c 0,62,63
 91 152 91 152 71 203.5 c 128,-1,64
 51 255 51 255 51 357 c 0,65,66
 51 472 51 472 81 535 c 0,67,68
 121 622 121 622 208 644 c 0,18,19
EndSplineSet
Validated: 1
EndChar

StartChar: seven
Encoding: 55 55 27
Width: 462
GlyphClass: 2
Flags: W
LayerCount: 2
Fore
SplineSet
62 625 m 0,0,1
 65 630 65 630 233 630 c 2,2,-1
 295 630 l 2,3,4
 372 630 372 630 390 625.5 c 128,-1,5
 408 621 408 621 408 601 c 0,6,7
 408 598 408 598 407.5 590.5 c 128,-1,8
 407 583 407 583 407 578 c 0,9,10
 407 555 407 555 393.5 519.5 c 128,-1,11
 380 484 380 484 315 334 c 0,12,13
 221 119 221 119 215 116 c 0,14,15
 207 109 207 109 165 109 c 0,16,17
 117 109 117 109 111 117 c 0,18,19
 107 121 107 121 107 124 c 0,20,21
 107 135 107 135 206 349 c 2,22,-1
 291 535 l 1,23,24
 253 536 253 536 177.5 536 c 128,-1,25
 102 536 102 536 64 537 c 1,26,-1
 59 552 l 2,27,28
 55 564 55 564 55 581 c 0,29,30
 55 614 55 614 62 625 c 0,0,1
EndSplineSet
Validated: 1
EndChar

StartChar: eight
Encoding: 56 56 28
Width: 467
GlyphClass: 2
Flags: W
LayerCount: 2
Fore
SplineSet
251 321 m 0,0,1
 233 331 233 331 226 331 c 0,2,3
 220 331 220 331 198 313 c 128,-1,4
 176 295 176 295 167 283 c 0,5,6
 156 269 156 269 156 240 c 0,7,8
 156 213 156 213 166 202 c 0,9,10
 189 176 189 176 233 176 c 0,11,12
 270 176 270 176 291.5 194 c 128,-1,13
 313 212 313 212 313 239 c 0,14,15
 313 290 313 290 251 321 c 0,0,1
269 556 m 0,16,17
 252 563 252 563 233 563 c 0,18,19
 183 563 183 563 170 525 c 0,20,21
 166 516 166 516 166 501 c 0,22,23
 166 493 166 493 167 490 c 0,24,25
 170 476 170 476 185.5 459 c 128,-1,26
 201 442 201 442 221 432 c 2,27,-1
 241 422 l 1,28,-1
 260 436 l 2,29,30
 299 463 299 463 299 501 c 0,31,32
 299 544 299 544 269 556 c 0,16,17
176 635 m 0,33,34
 187 638 187 638 236 640 c 2,35,-1
 242 640 l 2,36,37
 318 640 318 640 359.5 606.5 c 128,-1,38
 401 573 401 573 401 514 c 0,39,40
 399 442 399 442 332 395 c 2,41,-1
 317 384 l 1,42,-1
 346 365 l 2,43,44
 415 320 415 320 415 249 c 2,45,-1
 415 236 l 2,46,47
 412 194 412 194 394 166.5 c 128,-1,48
 376 139 376 139 339 120 c 0,49,50
 299 100 299 100 228 100 c 0,51,52
 172 100 172 100 132 114 c 0,53,54
 94 128 94 128 72 160 c 128,-1,55
 50 192 50 192 50 232 c 0,56,57
 50 249 50 249 57 275 c 0,58,59
 62 294 62 294 82 317 c 128,-1,60
 102 340 102 340 125 355 c 128,-1,61
 148 370 148 370 148 375 c 0,62,63
 148 377 148 377 144 377 c 0,64,65
 135 377 135 377 107.5 406.5 c 128,-1,66
 80 436 80 436 74 452 c 0,67,68
 66 471 66 471 66 500 c 0,69,70
 66 542 66 542 84 571 c 0,71,72
 97 592 97 592 123.5 610.5 c 128,-1,73
 150 629 150 629 176 635 c 0,33,34
EndSplineSet
Validated: 1
EndChar

StartChar: nine
Encoding: 57 57 29
Width: 464
GlyphClass: 2
Flags: W
LayerCount: 2
Fore
SplineSet
264 548 m 0,0,1
 248 557 248 557 229 557 c 0,2,3
 184 557 184 557 167 520 c 0,4,5
 157 501 157 501 157 463 c 0,6,7
 157 429 157 429 165 414 c 0,8,9
 180 383 180 383 221 383 c 0,10,11
 230 383 230 383 235 384 c 0,12,13
 261 386 261 386 284 396 c 2,14,-1
 303 406 l 1,15,-1
 301 452 l 2,16,17
 297 529 297 529 264 548 c 0,0,1
177 635 m 0,18,19
 192 639 192 639 221 639 c 0,20,21
 286 639 286 639 314 625 c 0,22,23
 410 578 410 578 410 400 c 0,24,25
 410 375 410 375 409 362 c 0,26,27
 402 228 402 228 342 162 c 0,28,29
 284 99 284 99 189 99 c 0,30,31
 159 99 159 99 122 107 c 0,32,33
 88 115 88 115 79 124 c 128,-1,34
 70 133 70 133 70 161 c 0,35,36
 70 183 70 183 73 191 c 128,-1,37
 76 199 76 199 85 199 c 0,38,39
 88 199 88 199 122 191 c 0,40,41
 150 183 150 183 181 183 c 0,42,43
 231 183 231 183 262.5 210.5 c 128,-1,44
 294 238 294 238 303 289 c 0,45,46
 306 310 306 310 306 320 c 0,47,48
 306 323 306 323 305 323.5 c 128,-1,49
 304 324 304 324 301 323.5 c 128,-1,50
 298 323 298 323 295 321.5 c 128,-1,51
 292 320 292 320 287.5 317.5 c 128,-1,52
 283 315 283 315 279 314 c 0,53,54
 257 304 257 304 214 301 c 2,55,-1
 200 301 l 2,56,57
 100 301 100 301 65 379 c 0,58,59
 52 410 52 410 52 458 c 0,60,61
 52 500 52 500 63 531 c 0,62,63
 77 568 77 568 108 596.5 c 128,-1,64
 139 625 139 625 177 635 c 0,18,19
EndSplineSet
Validated: 1
EndChar

StartChar: colon
Encoding: 58 58 30
Width: 205
GlyphClass: 2
Flags: W
LayerCount: 2
Fore
SplineSet
54 406 m 0,0,1
 54 413 54 413 66.5 419.5 c 128,-1,2
 79 426 79 426 90 426 c 0,3,4
 96 426 96 426 100 422 c 0,5,6
 100 421 100 421 126 402.5 c 128,-1,7
 152 384 152 384 152 381 c 0,8,9
 152 376 152 376 138.5 369.5 c 128,-1,10
 125 363 125 363 115 363 c 128,-1,11
 105 363 105 363 79.5 380.5 c 128,-1,12
 54 398 54 398 54 406 c 0,0,1
72 265 m 2,13,14
 80 273 80 273 98 273 c 0,15,16
 109 273 109 273 115.5 269 c 128,-1,17
 122 265 122 265 135 250 c 0,18,19
 151 230 151 230 151 227 c 128,-1,20
 151 224 151 224 146 221 c 0,21,22
 137 214 137 214 121 212 c 0,23,24
 117 211 117 211 112 211 c 0,25,26
 104 211 104 211 83 233 c 2,27,-1
 62 257 l 1,28,-1
 72 265 l 2,13,14
EndSplineSet
EndChar

StartChar: semicolon
Encoding: 59 59 31
Width: 266
GlyphClass: 2
Flags: W
LayerCount: 2
Fore
SplineSet
114 479 m 0,0,1
 127 491 127 491 144 491 c 0,2,3
 146 491 146 491 151 490.5 c 128,-1,4
 156 490 156 490 159 490 c 0,5,6
 192 488 192 488 202 476 c 128,-1,7
 212 464 212 464 212 428 c 0,8,9
 212 403 212 403 209.5 395 c 128,-1,10
 207 387 207 387 197 379 c 0,11,12
 183 366 183 366 155 366 c 128,-1,13
 127 366 127 366 113 379 c 0,14,15
 104 387 104 387 101.5 393.5 c 128,-1,16
 99 400 99 400 99 416 c 2,17,-1
 99 429 l 2,18,19
 99 455 99 455 101.5 463 c 128,-1,20
 104 471 104 471 114 479 c 0,0,1
117 220 m 0,21,22
 128 228 128 228 159 228 c 0,23,24
 189 228 189 228 203 214 c 0,25,26
 214 203 214 203 214 192 c 0,27,28
 214 190 214 190 212 170 c 0,29,30
 208 133 208 133 199 116 c 0,31,32
 190 95 190 95 160.5 53.5 c 128,-1,33
 131 12 131 12 120 4 c 128,-1,34
 109 -4 109 -4 80 -4 c 0,35,36
 57 -4 57 -4 57 2 c 0,37,38
 57 11 57 11 80 66 c 0,39,40
 98 108 98 108 102 123.5 c 128,-1,41
 106 139 106 139 106 169 c 0,42,43
 106 198 106 198 108 206.5 c 128,-1,44
 110 215 110 215 117 220 c 0,21,22
EndSplineSet
Validated: 1
EndChar

StartChar: less
Encoding: 60 60 32
Width: 353
GlyphClass: 2
Flags: W
LayerCount: 2
Fore
SplineSet
200 539 m 0,0,1
 209 542 209 542 245 542 c 0,2,3
 293 542 293 542 298 538 c 0,4,5
 299 537 299 537 299 535 c 0,6,7
 299 525 299 525 239 439 c 0,8,9
 173 344 173 344 173 336 c 128,-1,10
 173 328 173 328 238 234 c 0,11,12
 300 145 300 145 300 135 c 0,13,14
 300 130 300 130 244 130 c 0,15,16
 212 130 212 130 203 133 c 0,17,18
 192 137 192 137 124 237 c 2,19,-1
 55 337 l 1,20,-1
 88 385 l 2,21,22
 96 396 96 396 121 432 c 128,-1,23
 146 468 146 468 157 484 c 0,24,25
 194 537 194 537 200 539 c 0,0,1
EndSplineSet
Validated: 1
EndChar

StartChar: equal
Encoding: 61 61 33
Width: 376
GlyphClass: 2
Flags: W
LayerCount: 2
Fore
SplineSet
54 427 m 0,0,1
 57 435 57 435 195 435 c 0,2,3
 315 435 315 435 316 428 c 0,4,5
 318 424 318 424 322 386 c 2,6,-1
 325 352 l 1,7,8
 280 352 280 352 189.5 353 c 128,-1,9
 99 354 99 354 54 354 c 1,10,-1
 53 387 l 2,11,12
 53 391 53 391 52.5 398 c 128,-1,13
 52 405 52 405 52 408 c 0,14,15
 52 423 52 423 54 427 c 0,0,1
53 271 m 1,16,-1
 51 310 l 1,17,-1
 325 310 l 1,18,-1
 325 228 l 1,19,20
 280 228 280 228 189.5 229 c 128,-1,21
 99 230 99 230 54 230 c 1,22,-1
 53 271 l 1,16,-1
EndSplineSet
Validated: 1
EndChar

StartChar: greater
Encoding: 62 62 34
Width: 360
GlyphClass: 2
Flags: W
LayerCount: 2
Fore
SplineSet
57 532 m 0,0,1
 57 536 57 536 85 536 c 2,2,-1
 111 536 l 1,3,-1
 169 535 l 1,4,5
 240 430 240 430 305 339 c 1,6,7
 258 270 258 270 166 130 c 1,8,-1
 110 130 l 2,9,10
 54 130 54 130 54 132 c 0,11,12
 54 135 54 135 124 236 c 2,13,-1
 193 336 l 1,14,-1
 127 430 l 2,15,16
 57 531 57 531 57 532 c 0,0,1
EndSplineSet
Validated: 1
EndChar

StartChar: question
Encoding: 63 63 35
Width: 411
GlyphClass: 2
Flags: W
LayerCount: 2
Fore
SplineSet
136 673 m 0,0,1
 144 675 144 675 163 675 c 0,2,3
 167 675 167 675 177.5 674.5 c 128,-1,4
 188 674 188 674 193 674 c 0,5,6
 235 673 235 673 261.5 662.5 c 128,-1,7
 288 652 288 652 312 629 c 0,8,9
 359 583 359 583 359 514 c 0,10,11
 359 462 359 462 331 418.5 c 128,-1,12
 303 375 303 375 255 362 c 0,13,14
 236 357 236 357 231 346 c 128,-1,15
 226 335 226 335 226 299 c 0,16,17
 226 274 226 274 216 269 c 0,18,19
 208 264 208 264 181 264 c 0,20,21
 147 264 147 264 140 271 c 0,22,23
 135 278 135 278 133 337 c 2,24,-1
 133 364 l 2,25,26
 133 396 133 396 139 404.5 c 128,-1,27
 145 413 145 413 165 413 c 0,28,29
 231 413 231 413 247 474 c 0,30,31
 250 488 250 488 250 501 c 0,32,33
 250 557 250 557 212 582 c 0,34,35
 197 591 197 591 163 591 c 0,36,37
 123 591 123 591 93 579 c 0,38,39
 74 571 74 571 68 571 c 0,40,41
 56 571 56 571 56 610 c 0,42,43
 56 639 56 639 65 647 c 0,44,45
 78 659 78 659 136 673 c 0,0,1
140 210 m 0,46,47
 156 224 156 224 182 224 c 0,48,49
 209 224 209 224 225 210 c 0,50,51
 235 202 235 202 237 194.5 c 128,-1,52
 239 187 239 187 239 163 c 128,-1,53
 239 139 239 139 237 131.5 c 128,-1,54
 235 124 235 124 225 116 c 0,55,56
 209 102 209 102 182 102 c 0,57,58
 156 102 156 102 140 116 c 0,59,60
 130 124 130 124 128 131.5 c 128,-1,61
 126 139 126 139 126 163 c 128,-1,62
 126 187 126 187 128 194.5 c 128,-1,63
 130 202 130 202 140 210 c 0,46,47
EndSplineSet
Validated: 1
EndChar

StartChar: at
Encoding: 64 64 36
Width: 637
GlyphClass: 2
Flags: W
LayerCount: 2
Fore
SplineSet
357 399 m 0,0,1
 340 412 340 412 319 412 c 0,2,3
 295 412 295 412 277.5 395 c 128,-1,4
 260 378 260 378 260 354 c 0,5,6
 260 340 260 340 267 326 c 0,7,8
 284 294 284 294 319 294 c 0,9,10
 342 294 342 294 357 309 c 0,11,12
 376 328 376 328 376 356 c 128,-1,13
 376 384 376 384 357 399 c 0,0,1
128 530 m 0,14,15
 204 608 204 608 321 608 c 0,16,17
 390 608 390 608 451 577 c 0,18,19
 512 547 512 547 547.5 487 c 128,-1,20
 583 427 583 427 583 365 c 0,21,22
 583 276 583 276 516 243 c 0,23,24
 496 234 496 234 480 234 c 0,25,26
 451 234 451 234 428 257 c 2,27,-1
 414 271 l 1,28,-1
 394 252 l 2,29,30
 364 225 364 225 317 225 c 0,31,32
 284 225 284 225 255 240 c 0,33,34
 240 248 240 248 221 269 c 128,-1,35
 202 290 202 290 195 306 c 0,36,37
 188 323 188 323 188 354 c 128,-1,38
 188 385 188 385 195 399 c 0,39,40
 214 436 214 436 247.5 455 c 128,-1,41
 281 474 281 474 320 474 c 0,42,43
 368 474 368 474 405 445 c 128,-1,44
 442 416 442 416 448 366 c 0,45,46
 454 310 454 310 478 310 c 0,47,48
 489 310 489 310 501 325 c 0,49,50
 512 337 512 337 512 358 c 0,51,52
 512 360 512 360 511.5 366.5 c 128,-1,53
 511 373 511 373 511 377 c 0,54,55
 509 415 509 415 491 448 c 0,56,57
 465 497 465 497 420 524 c 128,-1,58
 375 551 375 551 322 551 c 0,59,60
 260 551 260 551 208 516 c 0,61,62
 126 461 126 461 124 351 c 2,63,-1
 124 334 l 2,64,65
 124 304 124 304 142 268 c 0,66,67
 194 163 194 163 307 157 c 0,68,69
 310 157 310 157 315.5 156.5 c 128,-1,70
 321 156 321 156 323 156 c 0,71,72
 375 156 375 156 419 184 c 2,73,-1
 438 196 l 1,74,75
 444 188 444 188 456.5 171 c 128,-1,76
 469 154 469 154 476 146 c 1,77,-1
 452 132 l 2,78,79
 394 99 394 99 323 99 c 0,80,81
 201 99 201 99 123 182 c 0,82,83
 55 253 55 253 55 353 c 0,84,85
 55 457 55 457 128 530 c 0,14,15
EndSplineSet
Validated: 1
EndChar

StartChar: A
Encoding: 65 65 37
Width: 586
GlyphClass: 2
Flags: W
LayerCount: 2
Fore
SplineSet
358 322 m 0,0,1
 358 326 358 326 324.5 427.5 c 128,-1,2
 291 529 291 529 289 530 c 0,3,4
 288 531 288 531 277.5 500.5 c 128,-1,5
 267 470 267 470 251 424 c 2,6,-1
 215 315 l 1,7,-1
 286 315 l 2,8,9
 358 315 358 315 358 322 c 0,0,1
54 130 m 0,10,11
 54 137 54 137 136.5 374 c 128,-1,12
 219 611 219 611 219 613 c 0,13,14
 219 620 219 620 230 627 c 0,15,16
 244 636 244 636 298 636 c 0,17,18
 341 636 341 636 349 629 c 0,19,20
 358 622 358 622 413 468 c 0,21,22
 468 312 468 312 474 303 c 0,23,24
 483 288 483 288 507.5 213.5 c 128,-1,25
 532 139 532 139 532 125 c 0,26,27
 532 114 532 114 483 114 c 0,28,29
 439 114 439 114 430 121 c 128,-1,30
 421 128 421 128 405 180 c 2,31,-1
 389 233 l 1,32,-1
 190 233 l 1,33,-1
 173 180 l 2,34,35
 157 128 157 128 148 121 c 0,36,37
 140 115 140 115 94 115 c 0,38,39
 71 115 71 115 62 118 c 0,40,41
 54 121 54 121 54 130 c 0,10,11
EndSplineSet
Validated: 33
EndChar

StartChar: B
Encoding: 66 66 38
Width: 481
GlyphClass: 2
Flags: W
LayerCount: 2
Fore
SplineSet
267 336 m 0,0,1
 249 341 249 341 200 341 c 2,2,-1
 153 341 l 1,3,-1
 153 197 l 1,4,-1
 206 197 l 2,5,6
 266 198 266 198 292 213 c 128,-1,7
 318 228 318 228 318 264 c 0,8,9
 318 266 318 266 317.5 269.5 c 128,-1,10
 317 273 317 273 317 275 c 0,11,12
 312 322 312 322 267 336 c 0,0,1
291 497 m 0,13,14
 287 532 287 532 264.5 545 c 128,-1,15
 242 558 242 558 194 558 c 2,16,-1
 153 558 l 1,17,-1
 153 419 l 1,18,-1
 196 419 l 2,19,20
 292 419 292 419 292 486 c 0,21,22
 292 488 292 488 291.5 491.5 c 128,-1,23
 291 495 291 495 291 497 c 0,13,14
59 626 m 0,24,25
 64 632 64 632 80.5 633.5 c 128,-1,26
 97 635 97 635 158 635 c 0,27,28
 234 635 234 635 270.5 630 c 128,-1,29
 307 625 307 625 334 611 c 0,30,31
 396 581 396 581 396 502 c 0,32,33
 396 438 396 438 354 410 c 0,34,35
 337 399 337 399 337 393 c 0,36,37
 337 388 337 388 346 388 c 0,38,39
 358 388 358 388 380 369 c 128,-1,40
 402 350 402 350 412 331 c 0,41,42
 428 303 428 303 428 268 c 0,43,44
 428 196 428 196 376 157 c 0,45,46
 341 131 341 131 308.5 123.5 c 128,-1,47
 276 116 276 116 182 115 c 0,48,49
 169 115 169 115 149.5 114.5 c 128,-1,50
 130 114 130 114 124 114 c 0,51,52
 70 114 70 114 60 123 c 0,53,54
 53 129 53 129 51.5 166 c 128,-1,55
 50 203 50 203 50 374 c 0,56,57
 50 537 50 537 51.5 578 c 128,-1,58
 53 619 53 619 59 626 c 0,24,25
EndSplineSet
Validated: 1
EndChar

StartChar: C
Encoding: 67 67 39
Width: 489
GlyphClass: 2
Flags: W
LayerCount: 2
Fore
SplineSet
228 638 m 0,0,1
 252 644 252 644 282 644 c 0,2,3
 372 644 372 644 419 607 c 0,4,5
 430 598 430 598 432.5 590.5 c 128,-1,6
 435 583 435 583 435 558 c 0,7,8
 435 512 435 512 421 512 c 0,9,10
 415 512 415 512 410 516 c 0,11,12
 354 552 354 552 316 556 c 0,13,14
 310 557 310 557 300 557 c 0,15,16
 223 557 223 557 187 479 c 0,17,18
 176 455 176 455 174 440 c 128,-1,19
 172 425 172 425 172 372 c 2,20,-1
 172 296 l 1,21,-1
 190 261 l 2,22,23
 207 227 207 227 233 210 c 0,24,25
 250 199 250 199 261.5 196.5 c 128,-1,26
 273 194 273 194 303 194 c 128,-1,27
 333 194 333 194 345.5 197 c 128,-1,28
 358 200 358 200 387 215 c 128,-1,29
 416 230 416 230 425 230 c 0,30,31
 433 230 433 230 435 220.5 c 128,-1,32
 437 211 437 211 437 186 c 0,33,34
 437 162 437 162 435 155 c 128,-1,35
 433 148 433 148 424 141 c 0,36,37
 378 105 378 105 280 105 c 0,38,39
 251 105 251 105 231 109 c 0,40,41
 65 142 65 142 53 346 c 0,42,43
 52 355 52 355 52 372 c 0,44,45
 52 474 52 474 98.5 544.5 c 128,-1,46
 145 615 145 615 228 638 c 0,0,1
EndSplineSet
Validated: 1
EndChar

StartChar: D
Encoding: 68 68 40
Width: 533
GlyphClass: 2
Flags: W
LayerCount: 2
Fore
SplineSet
261 547 m 0,0,1
 233 553 233 553 197 553 c 2,2,-1
 158 553 l 1,3,-1
 158 196 l 1,4,-1
 211 198 l 2,5,6
 288 201 288 201 324.5 232 c 128,-1,7
 361 263 361 263 371 335 c 0,8,9
 374 358 374 358 374 379 c 0,10,11
 374 446 374 446 344 490.5 c 128,-1,12
 314 535 314 535 261 547 c 0,0,1
59 626 m 0,13,14
 64 632 64 632 80.5 633.5 c 128,-1,15
 97 635 97 635 160 635 c 0,16,17
 262 635 262 635 312 624 c 128,-1,18
 362 613 362 613 401 582 c 0,19,20
 475 525 475 525 481 398 c 1,21,-1
 481 375 l 2,22,23
 481 274 481 274 441.5 214 c 128,-1,24
 402 154 402 154 318 127 c 0,25,26
 292 119 292 119 180 116 c 0,27,28
 114 114 114 114 106 114 c 0,29,30
 70 114 70 114 60 122 c 0,31,32
 53 129 53 129 51.5 162.5 c 128,-1,33
 50 196 50 196 50 374 c 0,34,35
 50 537 50 537 51.5 578 c 128,-1,36
 53 619 53 619 59 626 c 0,13,14
EndSplineSet
Validated: 1
EndChar

StartChar: E
Encoding: 69 69 41
Width: 411
GlyphClass: 2
Flags: W
LayerCount: 2
Fore
SplineSet
59 626 m 0,0,1
 66 634 66 634 131 634 c 2,2,-1
 209 634 l 1,3,-1
 352 632 l 1,4,-1
 356 613 l 2,5,6
 358 607 358 607 358 594 c 0,7,8
 358 580 358 580 356 574 c 2,9,-1
 352 555 l 1,10,11
 319 554 319 554 254.5 554 c 128,-1,12
 190 554 190 554 158 553 c 1,13,-1
 158 429 l 1,14,-1
 237 429 l 2,15,16
 316 429 316 429 322 423 c 128,-1,17
 328 417 328 417 328 382 c 0,18,19
 328 362 328 362 325 355 c 0,20,21
 321 346 321 346 240 346 c 2,22,-1
 158 346 l 1,23,-1
 158 197 l 1,24,-1
 254 197 l 1,25,-1
 268 197 l 2,26,27
 336 197 336 197 347.5 192 c 128,-1,28
 359 187 359 187 359 158 c 0,29,30
 359 157 359 157 359 156 c 2,31,-1
 359 145 l 2,32,33
 359 123 359 123 340.5 118.5 c 128,-1,34
 322 114 322 114 229 114 c 2,35,-1
 209 114 l 2,36,37
 116 114 116 114 90.5 115.5 c 128,-1,38
 65 117 65 117 59 123 c 0,39,40
 52 129 52 129 51 164 c 128,-1,41
 50 199 50 199 50 374 c 0,42,43
 50 537 50 537 51.5 578 c 128,-1,44
 53 619 53 619 59 626 c 0,0,1
EndSplineSet
Validated: 1
EndChar

StartChar: F
Encoding: 70 70 42
Width: 396
GlyphClass: 2
Flags: W
LayerCount: 2
Fore
SplineSet
59 626 m 128,-1,1
 65 633 65 633 85.5 634 c 128,-1,2
 106 635 106 635 201 635 c 2,3,-1
 334 635 l 1,4,-1
 339 622 l 2,5,6
 344 612 344 612 344 592 c 0,7,8
 344 571 344 571 339 561 c 2,9,-1
 334 547 l 1,10,-1
 158 547 l 1,11,-1
 158 408 l 1,12,13
 186 408 186 408 242 407 c 128,-1,14
 298 406 298 406 326 406 c 1,15,-1
 330 387 l 2,16,17
 332 381 332 381 332 368 c 0,18,19
 332 354 332 354 330 348 c 2,20,-1
 326 328 l 1,21,22
 298 328 298 328 242 327 c 128,-1,23
 186 326 186 326 158 326 c 1,24,-1
 158 125 l 1,25,-1
 145 120 l 2,26,27
 134 115 134 115 101 115 c 128,-1,28
 68 115 68 115 60 120 c 0,29,30
 53 124 53 124 51.5 160 c 128,-1,31
 50 196 50 196 50 371 c 0,32,33
 50 536 50 536 51.5 577.5 c 128,-1,0
 53 619 53 619 59 626 c 128,-1,1
EndSplineSet
Validated: 1
EndChar

StartChar: G
Encoding: 71 71 43
Width: 545
GlyphClass: 2
Flags: W
LayerCount: 2
Fore
SplineSet
250 638 m 0,0,1
 279 645 279 645 319 645 c 0,2,3
 405 645 405 645 459 617 c 0,4,5
 482 605 482 605 488.5 594 c 128,-1,6
 495 583 495 583 495 554 c 0,7,8
 495 531 495 531 493 522.5 c 128,-1,9
 491 514 491 514 483 514 c 128,-1,10
 475 514 475 514 445 528 c 0,11,12
 384 557 384 557 326 557 c 0,13,14
 221 557 221 557 177 463 c 0,15,16
 167 441 167 441 165 427 c 128,-1,17
 163 413 163 413 163 372 c 0,18,19
 163 328 163 328 165.5 315 c 128,-1,20
 168 302 168 302 181 276 c 0,21,22
 224 192 224 192 318 192 c 0,23,24
 320 192 320 192 325 192.5 c 128,-1,25
 330 193 330 193 333 193 c 0,26,27
 374 197 374 197 380.5 205.5 c 128,-1,28
 387 214 387 214 387 266 c 2,29,-1
 387 325 l 1,30,-1
 334 327 l 1,31,-1
 282 328 l 1,32,-1
 277 348 l 2,33,34
 275 354 275 354 275 368 c 0,35,36
 275 381 275 381 277 387 c 2,37,-1
 282 406 l 1,38,-1
 379 407 l 1,39,-1
 423 407 l 2,40,41
 479 407 479 407 486 400 c 0,42,43
 493 394 493 394 494 375.5 c 128,-1,44
 495 357 495 357 495 271 c 2,45,-1
 495 230 l 2,46,47
 495 156 495 156 485 142 c 0,48,49
 478 132 478 132 439 121 c 0,50,51
 436 120 436 120 433 119 c 0,52,53
 389 107 389 107 317 107 c 0,54,55
 250 107 250 107 215 119 c 0,56,57
 52 179 52 179 52 370 c 0,58,59
 52 476 52 476 104.5 547 c 128,-1,60
 157 618 157 618 250 638 c 0,0,1
EndSplineSet
Validated: 1
EndChar

StartChar: H
Encoding: 72 72 44
Width: 507
GlyphClass: 2
Flags: W
LayerCount: 2
Fore
SplineSet
363 637 m 0,0,1
 373 640 373 640 398 640 c 0,2,3
 437 640 437 640 447 635 c 0,4,5
 454 631 454 631 455.5 593.5 c 128,-1,6
 457 556 457 556 457 377 c 0,7,8
 457 188 457 188 455.5 156 c 128,-1,9
 454 124 454 124 446 119 c 0,10,11
 436 115 436 115 410 115 c 0,12,13
 363 115 363 115 356 122 c 0,14,15
 352 126 352 126 352 232 c 2,16,-1
 352 339 l 1,17,18
 319 340 319 340 254.5 340 c 128,-1,19
 190 340 190 340 158 341 c 1,20,-1
 158 125 l 1,21,-1
 145 120 l 2,22,23
 134 115 134 115 101 115 c 128,-1,24
 68 115 68 115 60 120 c 0,25,26
 53 124 53 124 51.5 160.5 c 128,-1,27
 50 197 50 197 50 375 c 128,-1,28
 50 553 50 553 51.5 589.5 c 128,-1,29
 53 626 53 626 60 630 c 0,30,31
 68 635 68 635 101 635 c 128,-1,32
 134 635 134 635 145 630 c 2,33,-1
 158 625 l 1,34,-1
 158 434 l 1,35,-1
 255 435 l 1,36,-1
 352 437 l 1,37,-1
 350 521 l 2,38,39
 350 531 350 531 349.5 547.5 c 128,-1,40
 349 564 349 564 349 570 c 0,41,42
 349 634 349 634 363 637 c 0,0,1
EndSplineSet
Validated: 1
EndChar

StartChar: I
Encoding: 73 73 45
Width: 208
GlyphClass: 2
Flags: W
LayerCount: 2
Fore
SplineSet
62 635 m 2,0,1
 75 640 75 640 103 640 c 0,2,3
 132 640 132 640 145 635 c 2,4,-1
 158 630 l 1,5,-1
 158 380 l 2,6,7
 158 202 158 202 156.5 165.5 c 128,-1,8
 155 129 155 129 148 125 c 0,9,10
 140 120 140 120 107 120 c 128,-1,11
 74 120 74 120 63 125 c 2,12,-1
 50 130 l 1,13,-1
 50 630 l 1,14,-1
 62 635 l 2,0,1
EndSplineSet
Validated: 1
EndChar

StartChar: J
Encoding: 74 74 46
Width: 320
GlyphClass: 2
Flags: W
LayerCount: 2
Fore
SplineSet
168 635 m 0,0,1
 174 640 174 640 211 640 c 128,-1,2
 248 640 248 640 255 635 c 0,3,4
 262 631 262 631 263.5 602 c 128,-1,5
 265 573 265 573 268 423 c 0,6,7
 270 283 270 283 270 275 c 0,8,9
 270 213 270 213 260 186 c 0,10,11
 231 109 231 109 138 109 c 0,12,13
 85 109 85 109 64 130 c 0,14,15
 54 140 54 140 54 174 c 0,16,17
 54 200 54 200 61 210 c 0,18,19
 67 217 67 217 71 217 c 128,-1,20
 75 217 75 217 90 211 c 0,21,22
 112 203 112 203 123 203 c 0,23,24
 138 203 138 203 150 215 c 2,25,-1
 164 228 l 1,26,-1
 162 429 l 2,27,28
 161 480 161 480 161 547 c 0,29,30
 161 631 161 631 168 635 c 0,0,1
EndSplineSet
Validated: 1
EndChar

StartChar: K
Encoding: 75 75 47
Width: 483
GlyphClass: 2
Flags: W
LayerCount: 2
Fore
SplineSet
57 634 m 0,0,1
 63 639 63 639 97 639 c 0,2,3
 132 639 132 639 142 634 c 2,4,-1
 155 629 l 1,5,-1
 155 520 l 2,6,7
 155 414 155 414 160 414 c 0,8,9
 164 414 164 414 241 525 c 0,10,11
 317 634 317 634 330 637 c 0,12,13
 342 639 342 639 355 639 c 0,14,15
 412 639 412 639 421 630 c 0,16,17
 424 627 424 627 424 623 c 0,18,19
 424 609 424 609 335 493 c 0,20,21
 264 402 264 402 264 399 c 0,22,23
 264 395 264 395 347 272 c 0,24,25
 430 147 430 147 430 137 c 128,-1,26
 430 127 430 127 420 121 c 0,27,28
 410 116 410 116 371 116 c 0,29,30
 344 116 344 116 335 119 c 0,31,32
 328 122 328 122 251 239 c 0,33,34
 172 361 172 361 168 365 c 0,35,36
 167 366 167 366 166 366 c 0,37,38
 160 366 160 366 160 249 c 2,39,-1
 160 126 l 1,40,-1
 146 121 l 2,41,42
 137 117 137 117 110 117 c 0,43,44
 64 117 64 117 57 124 c 0,45,46
 53 128 53 128 51 379 c 0,47,48
 50 442 50 442 50 526 c 0,49,50
 50 630 50 630 57 634 c 0,0,1
EndSplineSet
Validated: 1
EndChar

StartChar: L
Encoding: 76 76 48
Width: 393
GlyphClass: 2
Flags: W
LayerCount: 2
Fore
SplineSet
59 634 m 0,0,1
 67 639 67 639 100 639 c 0,2,3
 135 639 135 639 145 634 c 2,4,-1
 159 629 l 1,5,-1
 159 204 l 1,6,-1
 244 204 l 1,7,-1
 256 204 l 2,8,9
 319 204 319 204 329.5 198.5 c 128,-1,10
 340 193 340 193 340 160 c 2,11,-1
 340 149 l 2,12,13
 340 125 340 125 325 120.5 c 128,-1,14
 310 116 310 116 232 116 c 2,15,-1
 199 116 l 2,16,17
 113 116 113 116 89 117.5 c 128,-1,18
 65 119 65 119 59 125 c 0,19,20
 52 131 52 131 51 166.5 c 128,-1,21
 50 202 50 202 50 381 c 0,22,23
 50 558 50 558 51 594 c 128,-1,24
 52 630 52 630 59 634 c 0,0,1
EndSplineSet
Validated: 1
EndChar

StartChar: M
Encoding: 77 77 49
Width: 711
GlyphClass: 2
Flags: W
LayerCount: 2
Fore
SplineSet
63 626 m 2,0,1
 72 635 72 635 82 637 c 128,-1,2
 92 639 92 639 130 639 c 0,3,4
 212 639 212 639 228 612 c 0,5,6
 235 603 235 603 294 440 c 0,7,8
 353 275 353 275 356 275 c 0,9,10
 360 275 360 275 397 371 c 0,11,12
 465 552 465 552 481 592 c 0,13,14
 493 623 493 623 510 631 c 128,-1,15
 527 639 527 639 580 639 c 0,16,17
 619 639 619 639 629 637 c 128,-1,18
 639 635 639 635 648 626 c 2,19,-1
 661 614 l 1,20,-1
 661 370 l 2,21,22
 661 191 661 191 660 158 c 128,-1,23
 659 125 659 125 652 121 c 0,24,25
 642 116 642 116 610 116 c 0,26,27
 587 116 587 116 575 119 c 2,28,-1
 563 122 l 1,29,-1
 563 329 l 2,30,31
 563 538 563 538 558 538 c 0,32,33
 554 538 554 538 481 335 c 0,34,35
 408 129 408 129 398 123 c 0,36,37
 389 116 389 116 354 116 c 0,38,39
 326 116 326 116 313 121 c 0,40,41
 306 124 306 124 291.5 160 c 128,-1,42
 277 196 277 196 232 326 c 0,43,44
 160 536 160 536 158 536 c 0,45,46
 154 536 154 536 154 339 c 0,47,48
 154 136 154 136 148 126 c 0,49,50
 141 116 141 116 96 116 c 0,51,52
 71 116 71 116 61 121 c 0,53,54
 53 126 53 126 51.5 156.5 c 128,-1,55
 50 187 50 187 50 370 c 2,56,-1
 50 614 l 1,57,-1
 63 626 l 2,0,1
EndSplineSet
Validated: 1
EndChar

StartChar: N
Encoding: 78 78 50
Width: 530
GlyphClass: 2
Flags: W
LayerCount: 2
Fore
SplineSet
68 633 m 0,0,1
 79 639 79 639 124 639 c 0,2,3
 170 639 170 639 182 633 c 0,4,5
 197 625 197 625 215 593 c 0,6,7
 236 557 236 557 294 447.5 c 128,-1,8
 352 338 352 338 366 307 c 0,9,10
 382 272 382 272 385 272 c 0,11,12
 387 272 387 272 387 448 c 0,13,14
 387 626 387 626 392 632 c 0,15,16
 398 639 398 639 436 639 c 0,17,18
 468 639 468 639 474 633 c 128,-1,19
 480 627 480 627 480 382 c 2,20,-1
 480 137 l 1,21,-1
 469 126 l 2,22,23
 459 116 459 116 417 116 c 0,24,25
 381 116 381 116 366.5 122 c 128,-1,26
 352 128 352 128 339 147 c 0,27,28
 310 190 310 190 192 419 c 2,29,-1
 144 511 l 1,30,-1
 147 323 l 2,31,32
 148 282 148 282 148 219 c 0,33,34
 148 131 148 131 144 127 c 0,35,36
 137 117 137 117 92 117 c 0,37,38
 69 117 69 117 61 121 c 128,-1,39
 53 125 53 125 51.5 156.5 c 128,-1,40
 50 188 50 188 50 372 c 0,41,42
 50 616 50 616 54 622 c 128,-1,43
 58 628 58 628 68 633 c 0,0,1
EndSplineSet
Validated: 1
EndChar

StartChar: O
Encoding: 79 79 51
Width: 597
GlyphClass: 2
Flags: W
LayerCount: 2
Fore
SplineSet
343 556 m 0,0,1
 324 561 324 561 300 561 c 0,2,3
 248 561 248 561 212 525 c 0,4,5
 185 499 185 499 176.5 469.5 c 128,-1,6
 168 440 168 440 168 375 c 0,7,8
 168 314 168 314 175.5 284 c 128,-1,9
 183 254 183 254 205 230 c 0,10,11
 237 193 237 193 301 193 c 0,12,13
 322 193 322 193 343 199 c 0,14,15
 361 204 361 204 382.5 223 c 128,-1,16
 404 242 404 242 413 261 c 0,17,18
 434 303 434 303 434 379 c 0,19,20
 434 458 434 458 413 501 c 0,21,22
 403 520 403 520 383 535.5 c 128,-1,23
 363 551 363 551 343 556 c 0,0,1
231 641 m 0,24,25
 263 649 263 649 305 649 c 0,26,27
 342 649 342 649 379 642 c 0,28,29
 506 615 506 615 539 479 c 0,30,31
 546 448 546 448 546 386 c 128,-1,32
 546 324 546 324 539 292 c 0,33,34
 521 218 521 218 473 171 c 128,-1,35
 425 124 425 124 354 110 c 0,36,37
 327 105 327 105 301 105 c 0,38,39
 201 105 201 105 142 146 c 0,40,41
 100 176 100 176 76 236.5 c 128,-1,42
 52 297 52 297 52 371 c 0,43,44
 52 391 52 391 53 402 c 0,45,46
 68 601 68 601 231 641 c 0,24,25
EndSplineSet
Validated: 1
EndChar

StartChar: P
Encoding: 80 80 52
Width: 459
GlyphClass: 2
Flags: W
LayerCount: 2
Fore
SplineSet
296 470 m 0,0,1
 295 518 295 518 271.5 537 c 128,-1,2
 248 556 248 556 197 556 c 2,3,-1
 159 556 l 1,4,-1
 159 380 l 1,5,-1
 194 380 l 2,6,7
 296 380 296 380 296 470 c 0,0,1
61 630 m 0,8,9
 70 639 70 639 107 639 c 0,10,11
 145 639 145 639 176 638 c 0,12,13
 269 636 269 636 302.5 627 c 128,-1,14
 336 618 336 618 366 588 c 0,15,16
 407 548 407 548 407 484 c 0,17,18
 407 481 407 481 406.5 475 c 128,-1,19
 406 469 406 469 406 466 c 0,20,21
 402 390 402 390 355 347 c 0,22,23
 328 323 328 323 297 312 c 128,-1,24
 266 301 266 301 215 299 c 2,25,-1
 159 296 l 1,26,-1
 159 215 l 2,27,28
 159 133 159 133 154 126 c 0,29,30
 147 116 147 116 98 116 c 0,31,32
 71 116 71 116 61 121 c 0,33,34
 53 125 53 125 51.5 157 c 128,-1,35
 50 189 50 189 50 373 c 0,36,37
 50 556 50 556 51.5 589 c 128,-1,38
 53 622 53 622 61 630 c 0,8,9
EndSplineSet
Validated: 1
EndChar

StartChar: Q
Encoding: 81 81 53
Width: 655
GlyphClass: 2
Flags: W
LayerCount: 2
Fore
SplineSet
347 561 m 0,0,1
 332 566 332 566 301 566 c 0,2,3
 272 566 272 566 254 561 c 0,4,5
 232 555 232 555 208 530 c 128,-1,6
 184 505 184 505 175 478 c 0,7,8
 164 445 164 445 164 383 c 0,9,10
 164 310 164 310 178 276 c 0,11,12
 207 200 207 200 296 200 c 0,13,14
 308 200 308 200 314 201 c 0,15,16
 357 205 357 205 387.5 233 c 128,-1,17
 418 261 418 261 428 307 c 0,18,19
 434 337 434 337 434 384 c 0,20,21
 434 446 434 446 425 476 c 0,22,23
 417 504 417 504 394 529 c 128,-1,24
 371 554 371 554 347 561 c 0,0,1
52 378 m 0,25,26
 52 488 52 488 98 557 c 128,-1,27
 144 626 144 626 232 648 c 0,28,29
 259 655 259 655 297 655 c 0,30,31
 380 655 380 655 432 629 c 0,32,33
 538 575 538 575 545 411 c 0,34,35
 545 406 545 406 545.5 396 c 128,-1,36
 546 386 546 386 546 382 c 0,37,38
 546 271 546 271 497 203 c 2,39,-1
 479 178 l 1,40,-1
 504 160 l 2,41,42
 528 142 528 142 558 131 c 0,43,44
 587 120 587 120 593 107 c 0,45,46
 598 94 598 94 598 74 c 0,47,48
 598 55 598 55 593 40 c 0,49,50
 588 29 588 29 580 29 c 0,51,52
 573 29 573 29 567 30 c 0,53,54
 536 35 536 35 494.5 58 c 128,-1,55
 453 81 453 81 419 112 c 2,56,-1
 398 132 l 1,57,-1
 375 123 l 2,58,59
 344 112 344 112 286 112 c 0,60,61
 253 112 253 112 232 116 c 0,62,63
 141 132 141 132 97 195.5 c 128,-1,64
 53 259 53 259 52 378 c 0,25,26
EndSplineSet
Validated: 1
EndChar

StartChar: R
Encoding: 82 82 54
Width: 491
GlyphClass: 2
Flags: W
LayerCount: 2
Fore
SplineSet
299 494 m 0,0,1
 299 562 299 562 197 562 c 2,2,-1
 159 562 l 1,3,-1
 159 417 l 1,4,-1
 199 417 l 2,5,6
 252 418 252 418 275.5 436 c 128,-1,7
 299 454 299 454 299 494 c 0,0,1
59 636 m 0,8,9
 68 645 68 645 114 645 c 0,10,11
 153 645 153 645 182 644 c 0,12,13
 278 642 278 642 308 635.5 c 128,-1,14
 338 629 338 629 366 605 c 0,15,16
 405 572 405 572 411 519 c 0,17,18
 412 514 412 514 412 503 c 0,19,20
 412 463 412 463 390.5 428.5 c 128,-1,21
 369 394 369 394 335 378 c 2,22,-1
 314 368 l 1,23,-1
 332 353 l 2,24,25
 350 338 350 338 364 313 c 128,-1,26
 378 288 378 288 407 221 c 0,27,28
 437 150 437 150 437 135 c 0,29,30
 437 127 437 127 430 124 c 0,31,32
 421 121 421 121 395 121 c 0,33,34
 344 121 344 121 333 128 c 0,35,36
 328 131 328 131 299 202 c 0,37,38
 265 289 265 289 244 314 c 128,-1,39
 223 339 223 339 183 339 c 2,40,-1
 159 339 l 1,41,-1
 159 239 l 2,42,43
 159 139 159 139 154 132 c 0,44,45
 147 122 147 122 95 122 c 0,46,47
 69 122 69 122 61 126 c 128,-1,48
 53 130 53 130 51.5 162 c 128,-1,49
 50 194 50 194 50 379 c 0,50,51
 50 548 50 548 51.5 588.5 c 128,-1,52
 53 629 53 629 59 636 c 0,8,9
EndSplineSet
Validated: 1
EndChar

StartChar: S
Encoding: 83 83 55
Width: 446
GlyphClass: 2
Flags: W
LayerCount: 2
Fore
SplineSet
175 643 m 0,0,1
 195 648 195 648 225 648 c 0,2,3
 285 648 285 648 315 637 c 0,4,5
 349 624 349 624 355.5 616 c 128,-1,6
 362 608 362 608 362 575 c 0,7,8
 362 537 362 537 356 533 c 1,9,-1
 354 533 l 2,10,11
 346 533 346 533 314 547 c 0,12,13
 278 564 278 564 239 564 c 0,14,15
 211 564 211 564 203.5 562 c 128,-1,16
 196 560 196 560 185 547 c 0,17,18
 170 530 170 530 170 509 c 0,19,20
 170 491 170 491 182 476 c 0,21,22
 194 462 194 462 262 428 c 0,23,24
 340 391 340 391 366 359 c 128,-1,25
 392 327 392 327 393 270 c 0,26,27
 393 244 393 244 390 231.5 c 128,-1,28
 387 219 387 219 376 198 c 0,29,30
 334 116 334 116 220 107 c 0,31,32
 213 106 213 106 200 106 c 0,33,34
 158 106 158 106 118.5 118 c 128,-1,35
 79 130 79 130 62 147 c 0,36,37
 51 158 51 158 51 191 c 0,38,39
 51 233 51 233 66 233 c 0,40,41
 74 233 74 233 91 224 c 0,42,43
 143 195 143 195 195 195 c 0,44,45
 234 195 234 195 259 212.5 c 128,-1,46
 284 230 284 230 284 261 c 0,47,48
 284 280 284 280 264.5 297 c 128,-1,49
 245 314 245 314 193 340 c 0,50,51
 136 368 136 368 112 386.5 c 128,-1,52
 88 405 88 405 75 433 c 0,53,54
 61 461 61 461 61 498 c 0,55,56
 61 611 61 611 175 643 c 0,0,1
EndSplineSet
Validated: 1
EndChar

StartChar: T
Encoding: 84 84 56
Width: 507
GlyphClass: 2
Flags: W
LayerCount: 2
Fore
SplineSet
60 633 m 0,0,1
 65 638 65 638 175 638 c 2,2,-1
 259 638 l 1,3,-1
 450 637 l 1,4,-1
 452 606 l 2,5,6
 453 595 453 595 453 580 c 0,7,8
 453 560 453 560 442.5 555.5 c 128,-1,9
 432 551 432 551 392 551 c 2,10,-1
 377 551 l 1,11,-1
 307 551 l 1,12,-1
 308 339 l 2,13,14
 309 275 309 275 309 197 c 0,15,16
 309 125 309 125 303 121 c 0,17,18
 297 116 297 116 263 116 c 0,19,20
 228 116 228 116 218 121 c 0,21,22
 208 125 208 125 206 133.5 c 128,-1,23
 204 142 204 142 204 187 c 0,24,25
 204 276 204 276 201 400 c 2,26,-1
 198 551 l 1,27,-1
 132 551 l 2,28,29
 67 551 67 551 60 558 c 0,30,31
 54 564 54 564 54 596 c 0,32,33
 54 627 54 627 60 633 c 0,0,1
EndSplineSet
Validated: 1
EndChar

StartChar: U
Encoding: 85 85 57
Width: 525
GlyphClass: 2
Flags: W
LayerCount: 2
Fore
SplineSet
58 633 m 0,0,1
 64 638 64 638 91 638 c 2,2,-1
 108 638 l 2,3,4
 148 636 148 636 150 634 c 0,5,6
 153 628 153 628 155 455 c 0,7,8
 157 309 157 309 161 276.5 c 128,-1,9
 165 244 165 244 187 223 c 0,10,11
 217 194 217 194 261 194 c 0,12,13
 297 194 297 194 326.5 214 c 128,-1,14
 356 234 356 234 365 268 c 0,15,16
 371 292 371 292 371 460 c 2,17,-1
 371 523 l 2,18,19
 371 603 371 603 376 621 c 128,-1,20
 381 639 381 639 404 639 c 2,21,-1
 423 639 l 1,22,-1
 442 639 l 2,23,24
 465 639 465 639 470 620.5 c 128,-1,25
 475 602 475 602 475 516 c 2,26,-1
 475 448 l 2,27,28
 475 270 475 270 465 236 c 0,29,30
 437 149 437 149 348 118 c 0,31,32
 321 108 321 108 264 108 c 0,33,34
 195 108 195 108 163 121 c 0,35,36
 97 147 97 147 67 210 c 2,37,-1
 52 243 l 1,38,-1
 51 435 l 2,39,40
 50 492 50 492 50 561 c 0,41,42
 50 626 50 626 58 633 c 0,0,1
EndSplineSet
Validated: 1
EndChar

StartChar: V
Encoding: 86 86 58
Width: 577
GlyphClass: 2
Flags: W
LayerCount: 2
Fore
SplineSet
57 631 m 0,0,1
 64 639 64 639 104 639 c 128,-1,2
 144 639 144 639 152 636 c 0,3,4
 161 633 161 633 192 534 c 0,5,6
 208 483 208 483 220.5 443.5 c 128,-1,7
 233 404 233 404 243 372.5 c 128,-1,8
 253 341 253 341 260.5 318 c 128,-1,9
 268 295 268 295 273.5 278.5 c 128,-1,10
 279 262 279 262 282.5 251.5 c 128,-1,11
 286 241 286 241 288.5 235.5 c 128,-1,12
 291 230 291 230 292 228 c 2,13,-1
 293 226 l 2,14,15
 294 227 294 227 326 326.5 c 128,-1,16
 358 426 358 426 391.5 527.5 c 128,-1,17
 425 629 425 629 429 633 c 0,18,19
 437 639 437 639 483 639 c 0,20,21
 506 639 506 639 515 636 c 0,22,23
 523 633 523 633 523 623 c 0,24,25
 523 609 523 609 439.5 368 c 128,-1,26
 356 127 356 127 349 123 c 0,27,28
 341 116 341 116 287 116 c 0,29,30
 234 116 234 116 224 125 c 0,31,32
 215 134 215 134 132 378 c 0,33,34
 56 605 56 605 56 625 c 0,35,36
 56 630 56 630 57 631 c 0,0,1
EndSplineSet
Validated: 1
EndChar

StartChar: W
Encoding: 87 87 59
Width: 820
GlyphClass: 2
Flags: W
LayerCount: 2
Fore
SplineSet
61 636 m 0,0,1
 68 639 68 639 95 639 c 0,2,3
 146 639 146 639 153 633 c 0,4,5
 163 623 163 623 204 442 c 0,6,7
 252 232 252 232 256 232 c 2,8,-1
 258 235 l 2,9,10
 261 241 261 241 307 434 c 0,11,12
 353 626 353 626 363 633 c 128,-1,13
 373 640 373 640 407 640 c 0,14,15
 453 640 453 640 462 630 c 0,16,17
 470 622 470 622 520 425 c 0,18,19
 567 234 567 234 572 234 c 0,20,21
 575 234 575 234 598 331.5 c 128,-1,22
 621 429 621 429 645 529 c 128,-1,23
 669 629 669 629 674 633 c 0,24,25
 682 639 682 639 718 639 c 0,26,27
 766 639 766 639 766 619 c 0,28,29
 766 615 766 615 765 612 c 0,30,31
 749 540 749 540 692.5 335.5 c 128,-1,32
 636 131 636 131 631 126 c 0,33,34
 624 117 624 117 567 117 c 0,35,36
 505 117 505 117 498 127 c 0,37,38
 494 132 494 132 472 216 c 128,-1,39
 450 300 450 300 429 381.5 c 128,-1,40
 408 463 408 463 406 463 c 0,41,42
 403 463 403 463 383.5 381.5 c 128,-1,43
 364 300 364 300 342.5 215.5 c 128,-1,44
 321 131 321 131 313 125 c 0,45,46
 300 115 300 115 251 115 c 128,-1,47
 202 115 202 115 189 125 c 0,48,49
 178 133 178 133 116 367 c 0,50,51
 57 588 57 588 54 617 c 0,52,53
 54 634 54 634 61 636 c 0,0,1
EndSplineSet
Validated: 1
EndChar

StartChar: X
Encoding: 88 88 60
Width: 530
GlyphClass: 2
Flags: W
LayerCount: 2
Fore
SplineSet
67 634 m 0,0,1
 70 639 70 639 114 639 c 0,2,3
 160 639 160 639 168 634 c 0,4,5
 178 628 178 628 223 544 c 0,6,7
 269 458 269 458 272 458 c 0,8,9
 276 458 276 458 298 501 c 0,10,11
 364 630 364 630 372 636 c 0,12,13
 376 638 376 638 403 638 c 2,14,-1
 422 638 l 2,15,16
 463 636 463 636 466 630 c 0,17,18
 467 628 467 628 467 624 c 0,19,20
 467 608 467 608 407 499 c 2,21,-1
 345 385 l 1,22,-1
 413 261 l 2,23,24
 476 146 476 146 476 130 c 2,25,-1
 476 129 l 2,26,27
 475 128 475 128 475 127 c 0,28,29
 469 118 469 118 424 117 c 2,30,-1
 410 117 l 2,31,32
 375 117 375 117 372 120 c 0,33,34
 365 127 365 127 316 220 c 0,35,36
 269 312 269 312 264 317 c 0,37,38
 263 318 263 318 249 291.5 c 128,-1,39
 235 265 235 265 215 226 c 0,40,41
 168 134 168 134 157 125 c 0,42,43
 147 116 147 116 108 116 c 0,44,45
 75 116 75 116 64.5 119 c 128,-1,46
 54 122 54 122 54 131 c 128,-1,47
 54 140 54 140 121 261 c 0,48,49
 187 380 187 380 187 388 c 2,50,-1
 127 499 l 2,51,52
 65 613 65 613 65 627 c 0,53,54
 65 630 65 630 67 634 c 0,0,1
EndSplineSet
Validated: 1
EndChar

StartChar: Y
Encoding: 89 89 61
Width: 518
GlyphClass: 2
Flags: W
LayerCount: 2
Fore
SplineSet
58 636 m 0,0,1
 61 640 61 640 93 640 c 0,2,3
 150 640 150 640 159 633 c 0,4,5
 164 628 164 628 195 563.5 c 128,-1,6
 226 499 226 499 254 435 c 2,7,-1
 262 414 l 1,8,-1
 273 440 l 2,9,10
 296 499 296 499 325 562 c 128,-1,11
 354 625 354 625 361 631 c 0,12,13
 372 640 372 640 415 640 c 0,14,15
 457 640 457 640 463 632 c 0,16,17
 464 631 464 631 464 629 c 0,18,19
 464 615 464 615 391 470 c 2,20,-1
 313 316 l 1,21,-1
 313 221 l 1,22,-1
 313 200 l 2,23,24
 313 139 313 139 307.5 127.5 c 128,-1,25
 302 116 302 116 272 116 c 2,26,-1
 259 116 l 1,27,-1
 246 116 l 2,28,29
 215 116 215 116 209.5 128 c 128,-1,30
 204 140 204 140 204 202 c 2,31,-1
 204 223 l 1,32,-1
 204 320 l 1,33,-1
 129 466 l 2,34,35
 55 611 55 611 55 629 c 0,36,37
 55 633 55 633 58 636 c 0,0,1
EndSplineSet
Validated: 1
EndChar

StartChar: Z
Encoding: 90 90 62
Width: 463
GlyphClass: 2
Flags: W
LayerCount: 2
Fore
SplineSet
62 630 m 0,0,1
 66 637 66 637 88.5 638 c 128,-1,2
 111 639 111 639 226 639 c 2,3,-1
 384 639 l 1,4,-1
 392 626 l 2,5,6
 399 616 399 616 399 599 c 0,7,8
 399 589 399 589 398 582 c 0,9,10
 396 560 396 560 380 531 c 128,-1,11
 364 502 364 502 286 377 c 2,12,-1
 177 202 l 1,13,-1
 286 200 l 2,14,15
 396 198 396 198 403 193 c 0,16,17
 410 186 410 186 410 154 c 0,18,19
 410 136 410 136 406 124 c 0,20,21
 404 119 404 119 375.5 117.5 c 128,-1,22
 347 116 347 116 237 116 c 2,23,-1
 195 116 l 2,24,25
 91 116 91 116 71.5 121 c 128,-1,26
 52 126 52 126 52 152 c 2,27,-1
 52 161 l 2,28,29
 52 189 52 189 58 201 c 0,30,31
 63 211 63 211 140 335.5 c 128,-1,32
 217 460 217 460 249 511 c 0,33,34
 275 552 275 552 275 553 c 0,35,36
 275 556 275 556 171 556 c 0,37,38
 87 556 87 556 72 560.5 c 128,-1,39
 57 565 57 565 57 592 c 2,40,-1
 57 598 l 2,41,42
 57 620 57 620 62 630 c 0,0,1
EndSplineSet
Validated: 1
EndChar

StartChar: bracketleft
Encoding: 91 91 63
Width: 459
GlyphClass: 2
Flags: W
LayerCount: 2
Fore
SplineSet
269 628 m 0,0,1
 306 631 306 631 337 631 c 0,2,3
 401 631 401 631 401 618 c 0,4,5
 401 604 401 604 299 603 c 0,6,7
 228 602 228 602 208 597.5 c 128,-1,8
 188 593 188 593 184 576 c 0,9,10
 182 569 182 569 163.5 476.5 c 128,-1,11
 145 384 145 384 142 375 c 0,12,13
 130 338 130 338 120.5 280.5 c 128,-1,14
 111 223 111 223 111 184 c 2,15,-1
 111 161 l 2,16,17
 111 130 111 130 121 120 c 0,18,19
 144 96 144 96 205 96 c 0,20,21
 239 96 239 96 268 101 c 0,22,23
 272 102 272 102 277 102 c 0,24,25
 284 102 284 102 284 99 c 0,26,27
 284 93 284 93 263 81 c 0,28,29
 251 74 251 74 238.5 72.5 c 128,-1,30
 226 71 226 71 182 70 c 2,31,-1
 162 70 l 2,32,33
 131 70 131 70 121 72 c 128,-1,34
 111 74 111 74 95 83 c 0,35,36
 69 97 69 97 61.5 115.5 c 128,-1,37
 54 134 54 134 54 183 c 0,38,39
 54 220 54 220 61.5 276 c 128,-1,40
 69 332 69 332 77 354 c 0,41,42
 81 369 81 369 97 443 c 0,43,44
 127 585 127 585 143 601 c 0,45,46
 148 607 148 607 188 615.5 c 128,-1,47
 228 624 228 624 269 628 c 0,0,1
EndSplineSet
EndChar

StartChar: backslash
Encoding: 92 92 64
Width: 420
GlyphClass: 2
Flags: W
LayerCount: 2
Fore
SplineSet
55 621 m 0,0,1
 55 625 55 625 103 625 c 2,2,-1
 151 625 l 1,3,-1
 192 528 l 2,4,5
 218 465 218 465 271 336 c 0,6,7
 273 330 273 330 282.5 308.5 c 128,-1,8
 292 287 292 287 296 277 c 0,9,10
 302 262 302 262 338 178 c 0,11,12
 364 113 364 113 364 112 c 0,13,14
 364 110 364 110 334 110 c 2,15,-1
 312 110 l 1,16,-1
 259 112 l 1,17,-1
 201 256 l 2,18,19
 55 613 55 613 55 621 c 0,0,1
EndSplineSet
Validated: 1
EndChar

StartChar: bracketright
Encoding: 93 93 65
Width: 413
GlyphClass: 2
Flags: W
LayerCount: 2
Fore
SplineSet
251 625 m 0,0,1
 269 628 269 628 306 628 c 0,2,3
 335 628 335 628 343 626.5 c 128,-1,4
 351 625 351 625 355 619 c 0,5,6
 359 612 359 612 359 558 c 0,7,8
 359 471 359 471 352 400 c 0,9,10
 341 271 341 271 315 203 c 0,11,12
 301 166 301 166 273 138.5 c 128,-1,13
 245 111 245 111 213 103 c 0,14,15
 190 97 190 97 140.5 89 c 128,-1,16
 91 81 91 81 76 81 c 0,17,18
 57 81 57 81 57 86 c 0,19,20
 57 90 57 90 70 99 c 0,21,22
 83 109 83 109 119 110 c 0,23,24
 183 111 183 111 216.5 141.5 c 128,-1,25
 250 172 250 172 269 245 c 0,26,27
 278 279 278 279 290.5 408 c 128,-1,28
 303 537 303 537 303 585 c 0,29,30
 303 599 303 599 302 600 c 128,-1,31
 301 601 301 601 279 601 c 0,32,33
 246 601 246 601 196 598 c 0,34,35
 145 594 145 594 111 594 c 0,36,37
 70 594 70 594 70 605 c 0,38,39
 70 611 70 611 87 613.5 c 128,-1,40
 104 616 104 616 162 619 c 0,41,42
 236 622 236 622 251 625 c 0,0,1
EndSplineSet
EndChar

StartChar: asciicircum
Encoding: 94 94 66
Width: 369
GlyphClass: 2
Flags: W
LayerCount: 2
Fore
SplineSet
144 603 m 0,0,1
 156 614 156 614 192 614 c 2,2,-1
 227 614 l 1,3,-1
 274 558 l 2,4,5
 317 504 317 504 317 499 c 0,6,7
 317 496 317 496 272 496 c 2,8,-1
 230 496 l 1,9,-1
 210 522 l 2,10,11
 193 544 193 544 185 544 c 2,12,-1
 184 544 l 1,13,14
 178 540 178 540 166 521 c 0,15,16
 156 505 156 505 146 499 c 128,-1,17
 136 493 136 493 116 493 c 0,18,19
 101 493 101 493 91 494 c 2,20,-1
 53 497 l 1,21,-1
 92 544 l 2,22,23
 131 589 131 589 144 603 c 0,0,1
EndSplineSet
Validated: 1
EndChar

StartChar: underscore
Encoding: 95 95 67
Width: 466
GlyphClass: 2
Flags: W
LayerCount: 2
Fore
SplineSet
50 22 m 1,0,-1
 50 99 l 1,1,-1
 416 99 l 1,2,-1
 416 22 l 1,3,-1
 50 22 l 1,0,-1
EndSplineSet
Validated: 1
EndChar

StartChar: grave
Encoding: 96 96 68
Width: 183
GlyphClass: 2
Flags: W
LayerCount: 2
Fore
SplineSet
62 620 m 0,0,1
 72 630 72 630 93 630 c 0,2,3
 112 630 112 630 123 621 c 0,4,5
 132 612 132 612 132 592 c 0,6,7
 132 589 132 589 130 545 c 0,8,9
 126 491 126 491 120 478 c 128,-1,10
 114 465 114 465 92 465 c 0,11,12
 69 465 69 465 63.5 477.5 c 128,-1,13
 58 490 58 490 54 561 c 0,14,15
 53 574 53 574 53 592 c 0,16,17
 53 611 53 611 62 620 c 0,0,1
EndSplineSet
Validated: 1
EndChar

StartChar: a
Encoding: 97 97 69
Width: 431
GlyphClass: 2
Flags: W
LayerCount: 2
Fore
SplineSet
283 254 m 2,0,-1
 283 285 l 1,1,-1
 248 284 l 2,2,3
 185 283 185 283 166 261 c 0,4,5
 154 248 154 248 154 230 c 0,6,7
 154 214 154 214 164.5 201 c 128,-1,8
 175 188 175 188 192 184 c 0,9,10
 204 182 204 182 208 182 c 0,11,12
 234 182 234 182 261 205 c 0,13,14
 276 219 276 219 279.5 226 c 128,-1,15
 283 233 283 233 283 254 c 2,0,-1
161 510 m 0,16,17
 183 515 183 515 219 515 c 0,18,19
 280 515 280 515 305 506 c 0,20,21
 328 498 328 498 346.5 480 c 128,-1,22
 365 462 365 462 372 441 c 0,23,24
 380 418 380 418 380 271 c 2,25,-1
 380 220 l 2,26,27
 380 149 380 149 376.5 134.5 c 128,-1,28
 373 120 373 120 354 120 c 2,29,-1
 339 120 l 2,30,31
 312 120 312 120 305 123.5 c 128,-1,32
 298 127 298 127 298 143 c 2,33,-1
 298 161 l 1,34,-1
 275 143 l 2,35,36
 230 109 230 109 185 109 c 0,37,38
 182 109 182 109 177 109.5 c 128,-1,39
 172 110 172 110 170 110 c 0,40,41
 118 114 118 114 85.5 145.5 c 128,-1,42
 53 177 53 177 53 224 c 0,43,44
 53 231 53 231 55 247 c 0,45,46
 64 294 64 294 105 317.5 c 128,-1,47
 146 341 146 341 225 345 c 2,48,-1
 284 348 l 1,49,-1
 281 379 l 2,50,51
 278 410 278 410 265 423 c 0,52,53
 256 432 256 432 247 434.5 c 128,-1,54
 238 437 238 437 211 437 c 0,55,56
 169 436 169 436 138 422 c 0,57,58
 104 408 104 408 92 406 c 2,59,-1
 89 406 l 2,60,61
 79 406 79 406 74 430 c 0,62,63
 72 438 72 438 72 448 c 0,64,65
 72 457 72 457 78 468 c 0,66,67
 94 492 94 492 161 510 c 0,16,17
EndSplineSet
Validated: 1
EndChar

StartChar: b
Encoding: 98 98 70
Width: 464
GlyphClass: 2
Flags: W
LayerCount: 2
Fore
SplineSet
274 413 m 0,0,1
 255 429 255 429 235 429 c 0,2,3
 216 429 216 429 196 415 c 0,4,5
 166 395 166 395 160 380 c 128,-1,6
 154 365 154 365 153 314 c 0,7,8
 153 261 153 261 160 244 c 128,-1,9
 167 227 167 227 196 210 c 0,10,11
 218 198 218 198 235 198 c 0,12,13
 248 198 248 198 265 207 c 0,14,15
 305 231 305 231 305 313 c 0,16,17
 305 355 305 355 298.5 376 c 128,-1,18
 292 397 292 397 274 413 c 0,0,1
59 676 m 0,19,20
 67 681 67 681 97 681 c 0,21,22
 130 681 130 681 140 676 c 2,23,-1
 153 671 l 1,24,-1
 153 470 l 1,25,-1
 179 488 l 2,26,27
 219 516 219 516 267 516 c 0,28,29
 335 516 335 516 373 463.5 c 128,-1,30
 411 411 411 411 411 318 c 0,31,32
 411 226 411 226 374.5 171.5 c 128,-1,33
 338 117 338 117 271 111 c 0,34,35
 265 110 265 110 254 110 c 0,36,37
 206 110 206 110 165 144 c 2,38,-1
 138 166 l 1,39,-1
 138 149 l 2,40,41
 138 133 138 133 131 126 c 0,42,43
 125 120 125 120 94 120 c 0,44,45
 62 120 62 120 56 126 c 128,-1,46
 50 132 50 132 50 402 c 0,47,48
 50 595 50 595 51 633.5 c 128,-1,49
 52 672 52 672 59 676 c 0,19,20
EndSplineSet
Validated: 1
EndChar

StartChar: c
Encoding: 99 99 71
Width: 397
GlyphClass: 2
Flags: W
LayerCount: 2
Fore
SplineSet
176 509 m 0,0,1
 199 515 199 515 225 515 c 0,2,3
 302 515 302 515 333 484 c 0,4,5
 343 474 343 474 343 434 c 0,6,7
 343 418 343 418 339 406 c 0,8,9
 336 398 336 398 326 398 c 0,10,11
 318 398 318 398 312 405 c 0,12,13
 304 415 304 415 279 423.5 c 128,-1,14
 254 432 254 432 236 432 c 2,15,-1
 230 432 l 1,16,17
 190 428 190 428 171 391 c 0,18,19
 159 368 159 368 159 313 c 0,20,21
 159 267 159 267 166.5 244 c 128,-1,22
 174 221 174 221 194 206 c 0,23,24
 211 193 211 193 235 193 c 0,25,26
 272 193 272 193 313 221 c 0,27,28
 328 231 328 231 333 231 c 0,29,30
 343 231 343 231 346 196 c 0,31,32
 346 193 346 193 346.5 187.5 c 128,-1,33
 347 182 347 182 347 180 c 0,34,35
 347 159 347 159 339 148 c 128,-1,36
 331 137 331 137 308 126 c 0,37,38
 287 117 287 117 273 114.5 c 128,-1,39
 259 112 259 112 224 112 c 0,40,41
 168 113 168 113 144 125 c 0,42,43
 98 147 98 147 78 186 c 128,-1,44
 58 225 58 225 55 296 c 0,45,46
 54 310 54 310 54 331 c 0,47,48
 54 364 54 364 63 392 c 0,49,50
 76 436 76 436 106 467 c 128,-1,51
 136 498 136 498 176 509 c 0,0,1
EndSplineSet
Validated: 1
EndChar

StartChar: d
Encoding: 100 100 72
Width: 465
GlyphClass: 2
Flags: W
LayerCount: 2
Fore
SplineSet
271 414 m 0,0,1
 250 428 250 428 228 428 c 0,2,3
 193 428 193 428 171 385 c 0,4,5
 159 362 159 362 159 313 c 0,6,7
 159 262 159 262 171 238 c 0,8,9
 192 197 192 197 228 197 c 0,10,11
 245 197 245 197 268 210 c 0,12,13
 287 221 287 221 303 241 c 0,14,15
 317 259 317 259 317 286 c 0,16,17
 317 289 317 289 316.5 299.5 c 128,-1,18
 316 310 316 310 316 318 c 0,19,20
 314 367 314 367 307.5 380.5 c 128,-1,21
 301 394 301 394 271 414 c 0,0,1
326 678 m 0,22,23
 336 681 336 681 359 681 c 0,24,25
 395 681 395 681 405 676 c 0,26,27
 412 672 412 672 413 635 c 128,-1,28
 414 598 414 598 414 398 c 2,29,-1
 414 264 l 2,30,31
 414 165 414 165 410.5 142 c 128,-1,32
 407 119 407 119 391 119 c 0,33,34
 389 119 389 119 383 119.5 c 128,-1,35
 377 120 377 120 373 120 c 0,36,37
 346 120 346 120 336.5 126 c 128,-1,38
 327 132 327 132 327 148 c 2,39,-1
 327 166 l 1,40,-1
 295 143 l 2,41,42
 249 110 249 110 208 110 c 0,43,44
 196 110 196 110 190 111 c 0,45,46
 87 118 87 118 61 237 c 0,47,48
 54 268 54 268 54 306 c 0,49,50
 54 384 54 384 80 436 c 0,51,52
 99 474 99 474 133.5 495 c 128,-1,53
 168 516 168 516 207 516 c 0,54,55
 257 516 257 516 294 486 c 0,56,57
 307 474 307 474 310 477 c 0,58,59
 312 478 312 478 312 565 c 2,60,-1
 312 600 l 2,61,62
 312 646 312 646 315 661 c 128,-1,63
 318 676 318 676 326 678 c 0,22,23
EndSplineSet
Validated: 1
EndChar

StartChar: e
Encoding: 101 101 73
Width: 461
GlyphClass: 2
Flags: W
LayerCount: 2
Fore
SplineSet
267 437 m 0,0,1
 248 444 248 444 232 444 c 0,2,3
 218 444 218 444 205 439 c 0,4,5
 189 432 189 432 173 405.5 c 128,-1,6
 157 379 157 379 157 358 c 0,7,8
 157 352 157 352 231 352 c 2,9,-1
 306 352 l 1,10,-1
 306 374 l 2,11,12
 306 420 306 420 267 437 c 0,0,1
186 511 m 0,13,14
 201 514 201 514 233 514 c 0,15,16
 293 514 293 514 309 506 c 0,17,18
 355 485 355 485 378 451 c 0,19,20
 408 407 408 407 408 336 c 0,21,22
 408 300 408 300 396 291 c 0,23,24
 388 285 388 285 271 285 c 2,25,-1
 157 285 l 1,26,-1
 157 270 l 2,27,28
 157 253 157 253 170 230.5 c 128,-1,29
 183 208 183 208 198 199 c 0,30,31
 215 189 215 189 256 189 c 0,32,33
 307 189 307 189 342 202 c 0,34,35
 369 211 369 211 378 211 c 1,36,-1
 379 210 l 2,37,38
 380 210 380 210 381 210 c 0,39,40
 388 207 388 207 388 174 c 0,41,42
 388 152 388 152 386.5 145.5 c 128,-1,43
 385 139 385 139 378 135 c 0,44,45
 330 110 330 110 242 110 c 0,46,47
 212 110 212 110 192 114 c 0,48,49
 124 127 124 127 91 170 c 128,-1,50
 58 213 58 213 54 292 c 1,51,-1
 54 311 l 2,52,53
 54 390 54 390 88.5 442 c 128,-1,54
 123 494 123 494 186 511 c 0,13,14
EndSplineSet
Validated: 1
EndChar

StartChar: f
Encoding: 102 102 74
Width: 365
GlyphClass: 2
Flags: W
LayerCount: 2
Fore
SplineSet
193 680 m 0,0,1
 206 685 206 685 235 685 c 0,2,3
 282 685 282 685 299 674 c 0,4,5
 312 665 312 665 312 648 c 0,6,7
 312 646 312 646 311.5 640.5 c 128,-1,8
 311 635 311 635 311 631 c 0,9,10
 309 598 309 598 302 598 c 2,11,-1
 299 598 l 1,12,13
 262 603 262 603 255 603 c 0,14,15
 243 603 243 603 232 592 c 0,16,17
 223 583 223 583 221 575 c 128,-1,18
 219 567 219 567 219 543 c 2,19,-1
 219 507 l 1,20,-1
 257 505 l 1,21,-1
 294 504 l 1,22,-1
 295 476 l 2,23,24
 296 467 296 467 296 453 c 0,25,26
 296 433 296 433 288.5 428.5 c 128,-1,27
 281 424 281 424 255 424 c 2,28,-1
 219 424 l 1,29,-1
 219 277 l 1,30,-1
 219 232 l 2,31,32
 219 153 219 153 214 136.5 c 128,-1,33
 209 120 209 120 185 120 c 2,34,-1
 167 120 l 1,35,-1
 149 120 l 2,36,37
 126 120 126 120 121 135 c 128,-1,38
 116 150 116 150 116 221 c 2,39,-1
 116 277 l 1,40,-1
 116 424 l 1,41,-1
 90 424 l 2,42,43
 68 424 68 424 61 432 c 128,-1,44
 54 440 54 440 54 465 c 128,-1,45
 54 490 54 490 61 498 c 128,-1,46
 68 506 68 506 90 506 c 2,47,-1
 114 506 l 1,48,-1
 117 555 l 2,49,50
 120 610 120 610 136.5 637.5 c 128,-1,51
 153 665 153 665 193 680 c 0,0,1
EndSplineSet
Validated: 1
EndChar

StartChar: g
Encoding: 103 103 75
Width: 471
GlyphClass: 2
Flags: W
LayerCount: 2
Fore
SplineSet
295 122 m 0,0,1
 282 131 282 131 233 134 c 2,2,-1
 185 136 l 1,3,-1
 171 120 l 2,4,5
 152 96 152 96 152 78 c 0,6,7
 152 73 152 73 154 65 c 0,8,9
 158 51 158 51 180 42 c 128,-1,10
 202 33 202 33 230 33 c 128,-1,11
 258 33 258 33 279 42 c 0,12,13
 312 56 312 56 312 89 c 0,14,15
 312 108 312 108 295 122 c 0,0,1
260 431 m 0,16,17
 244 439 244 439 223 439 c 0,18,19
 209 439 209 439 201 435 c 0,20,21
 172 423 172 423 168 384 c 0,22,23
 168 381 168 381 167.5 377 c 128,-1,24
 167 373 167 373 167 372 c 0,25,26
 167 357 167 357 181 342 c 0,27,28
 200 321 200 321 229 321 c 0,29,30
 256 321 256 321 274 340 c 0,31,32
 286 352 286 352 286 378 c 0,33,34
 286 401 286 401 280.5 412 c 128,-1,35
 275 423 275 423 260 431 c 0,16,17
169 502 m 0,36,37
 193 510 193 510 209 510 c 0,38,39
 215 510 215 510 237 508 c 0,40,41
 255 506 255 506 345 504 c 2,42,-1
 412 502 l 1,43,-1
 417 484 l 2,44,45
 419 478 419 478 419 465 c 0,46,47
 419 451 419 451 417 445 c 0,48,49
 413 431 413 431 409.5 428.5 c 128,-1,50
 406 426 406 426 389 425 c 2,51,-1
 365 423 l 1,52,-1
 373 401 l 2,53,54
 377 390 377 390 377 375 c 0,55,56
 377 338 377 338 352 300 c 0,57,58
 336 277 336 277 302 263 c 128,-1,59
 268 249 268 249 231 249 c 0,60,61
 211 249 211 249 195 253 c 0,62,63
 182 257 182 257 174 257 c 0,64,65
 168 257 168 257 164 251 c 0,66,67
 157 240 157 240 157 236 c 0,68,69
 157 230 157 230 164 220 c 0,70,71
 171 211 171 211 243 206 c 0,72,73
 304 202 304 202 327 197.5 c 128,-1,74
 350 193 350 193 369 180 c 0,75,76
 414 150 414 150 414 97 c 0,77,78
 414 51 414 51 379 16 c 0,79,80
 351 -12 351 -12 320 -21.5 c 128,-1,81
 289 -31 289 -31 227 -32 c 2,82,-1
 216 -32 l 2,83,84
 129 -32 129 -32 89 -3 c 0,85,86
 75 7 75 7 64.5 27.5 c 128,-1,87
 54 48 54 48 54 64 c 0,88,89
 56 105 56 105 89 137 c 2,90,-1
 105 152 l 1,91,-1
 93 165 l 2,92,93
 71 187 71 187 71 215 c 0,94,95
 71 242 71 242 90 271 c 2,96,-1
 105 295 l 1,97,-1
 93 319 l 2,98,99
 80 344 80 344 80 376 c 0,100,101
 80 445 80 445 125 479 c 0,102,103
 141 492 141 492 169 502 c 0,36,37
EndSplineSet
Validated: 1
EndChar

StartChar: h
Encoding: 104 104 76
Width: 447
GlyphClass: 2
Flags: W
LayerCount: 2
Fore
SplineSet
59 676 m 0,0,1
 67 681 67 681 97 681 c 0,2,3
 130 681 130 681 140 676 c 2,4,-1
 153 671 l 1,5,-1
 153 471 l 1,6,-1
 180 488 l 2,7,8
 206 507 206 507 227 512 c 0,9,10
 240 516 240 516 259 516 c 0,11,12
 323 516 323 516 357 479 c 0,13,14
 380 453 380 453 387.5 409.5 c 128,-1,15
 395 366 395 366 395 250 c 2,16,-1
 395 204 l 2,17,18
 395 145 395 145 389.5 132.5 c 128,-1,19
 384 120 384 120 359 120 c 2,20,-1
 344 120 l 1,21,-1
 329 120 l 2,22,23
 303 120 303 120 297.5 134 c 128,-1,24
 292 148 292 148 292 215 c 2,25,-1
 292 252 l 2,26,27
 292 352 292 352 287.5 377.5 c 128,-1,28
 283 403 283 403 264 418 c 0,29,30
 251 428 251 428 234 428 c 0,31,32
 214 428 214 428 193 414 c 0,33,34
 176 403 176 403 170 398.5 c 128,-1,35
 164 394 164 394 159 377 c 128,-1,36
 154 360 154 360 153.5 340.5 c 128,-1,37
 153 321 153 321 153 271 c 2,38,-1
 153 253 l 1,39,-1
 153 206 l 2,40,41
 153 145 153 145 147.5 132.5 c 128,-1,42
 142 120 142 120 117 120 c 2,43,-1
 102 120 l 2,44,45
 97 120 97 120 89.5 119.5 c 128,-1,46
 82 119 82 119 79 119 c 0,47,48
 68 119 68 119 63 122.5 c 128,-1,49
 58 126 58 126 54.5 146 c 128,-1,50
 51 166 51 166 50.5 194 c 128,-1,51
 50 222 50 222 50 284 c 2,52,-1
 50 401 l 2,53,54
 50 594 50 594 51 633 c 128,-1,55
 52 672 52 672 59 676 c 0,0,1
EndSplineSet
Validated: 1
EndChar

StartChar: i
Encoding: 105 105 77
Width: 218
GlyphClass: 2
Flags: W
LayerCount: 2
Fore
SplineSet
71 655 m 0,0,1
 78 659 78 659 103 659 c 2,2,-1
 116 659 l 2,3,4
 148 658 148 658 158 647.5 c 128,-1,5
 168 637 168 637 168 607 c 0,6,7
 168 575 168 575 156.5 565 c 128,-1,8
 145 555 145 555 109 555 c 0,9,10
 75 555 75 555 64.5 562 c 128,-1,11
 54 569 54 569 51 592 c 0,12,13
 50 596 50 596 50 605 c 0,14,15
 50 645 50 645 71 655 c 0,0,1
69 496 m 128,-1,17
 76 500 76 500 101 500 c 0,18,19
 151 500 151 500 157 491 c 0,20,21
 163 481 163 481 163 304 c 2,22,-1
 163 238 l 2,23,24
 163 151 163 151 158 132.5 c 128,-1,25
 153 114 153 114 129 114 c 2,26,-1
 109 114 l 1,27,-1
 89 114 l 2,28,29
 69 114 69 114 64.5 130 c 128,-1,30
 60 146 60 146 60 214 c 2,31,-1
 60 306 l 2,32,33
 60 437 60 437 61 464.5 c 128,-1,16
 62 492 62 492 69 496 c 128,-1,17
EndSplineSet
Validated: 1
EndChar

StartChar: j
Encoding: 106 106 78
Width: 293
GlyphClass: 2
Flags: W
LayerCount: 2
Fore
SplineSet
147 656 m 0,0,1
 158 660 158 660 188 660 c 0,2,3
 210 660 210 660 217 658 c 0,4,5
 243 651 243 651 243 610 c 0,6,7
 243 568 243 568 217 558 c 0,8,9
 204 553 204 553 187 553 c 0,10,11
 147 553 147 553 134 568 c 0,12,13
 124 579 124 579 124 602 c 0,14,15
 124 646 124 646 147 656 c 0,0,1
134 489 m 0,16,17
 141 501 141 501 187 501 c 0,18,19
 211 501 211 501 223 496 c 0,20,21
 230 492 230 492 231.5 460 c 128,-1,22
 233 428 233 428 233 277 c 0,23,24
 233 122 233 122 231.5 88.5 c 128,-1,25
 230 55 230 55 223 35 c 0,26,27
 197 -34 197 -34 116 -34 c 2,28,-1
 102 -34 l 2,29,30
 75 -32 75 -32 66.5 -23.5 c 128,-1,31
 58 -15 58 -15 58 9 c 0,32,33
 58 34 58 34 62.5 40.5 c 128,-1,34
 67 47 67 47 86 47 c 0,35,36
 109 47 109 47 119 61 c 0,37,38
 127 71 127 71 128.5 102 c 128,-1,39
 130 133 130 133 130 279 c 0,40,41
 130 483 130 483 134 489 c 0,16,17
EndSplineSet
Validated: 1
EndChar

StartChar: k
Encoding: 107 107 79
Width: 439
GlyphClass: 2
Flags: W
LayerCount: 2
Fore
SplineSet
59 671 m 0,0,1
 67 676 67 676 97 676 c 0,2,3
 130 676 130 676 140 671 c 2,4,-1
 153 666 l 1,5,-1
 153 508 l 2,6,7
 153 356 153 356 159 356 c 0,8,9
 160 356 160 356 161 357 c 0,10,11
 173 369 173 369 218 429 c 0,12,13
 266 495 266 495 278 498 c 0,14,15
 289 501 289 501 318 501 c 0,16,17
 370 501 370 501 370 486 c 0,18,19
 370 470 370 470 314 408 c 0,20,21
 257 344 257 344 257 341 c 0,22,23
 257 333 257 333 320 238 c 0,24,25
 385 140 385 140 385 133 c 0,26,27
 385 114 385 114 331 114 c 0,28,29
 290 114 290 114 281 121 c 0,30,31
 276 124 276 124 223 207 c 0,32,33
 217 216 217 216 210.5 226.5 c 128,-1,34
 204 237 204 237 199.5 244 c 128,-1,35
 195 251 195 251 190 258.5 c 128,-1,36
 185 266 185 266 181.5 271 c 128,-1,37
 178 276 178 276 174.5 281.5 c 128,-1,38
 171 287 171 287 169 290 c 128,-1,39
 167 293 167 293 164.5 295.5 c 128,-1,40
 162 298 162 298 160.5 299 c 128,-1,41
 159 300 159 300 158 300 c 0,42,43
 153 300 153 300 153 265 c 2,44,-1
 153 219 l 2,45,46
 153 154 153 154 151.5 139 c 128,-1,47
 150 124 150 124 143 120 c 0,48,49
 131 115 131 115 99 115 c 0,50,51
 62 115 62 115 56 121 c 128,-1,52
 50 127 50 127 50 396 c 0,53,54
 50 589 50 589 51 628 c 128,-1,55
 52 667 52 667 59 671 c 0,0,1
EndSplineSet
Validated: 1
EndChar

StartChar: l
Encoding: 108 108 80
Width: 202
GlyphClass: 2
Flags: W
LayerCount: 2
Fore
SplineSet
59 671 m 128,-1,1
 66 675 66 675 99 675 c 0,2,3
 139 675 139 675 146 670 c 0,4,5
 150 664 150 664 152 396 c 2,6,-1
 152 272 l 2,7,8
 152 128 152 128 144 121 c 0,9,10
 135 114 135 114 93 114 c 0,11,12
 70 114 70 114 58 118 c 0,13,14
 53 120 53 120 51.5 165.5 c 128,-1,15
 50 211 50 211 50 393 c 0,16,17
 50 588 50 588 51 627.5 c 128,-1,0
 52 667 52 667 59 671 c 128,-1,1
EndSplineSet
Validated: 1
EndChar

StartChar: m
Encoding: 109 109 81
Width: 673
GlyphClass: 2
Flags: W
LayerCount: 2
Fore
SplineSet
207 499 m 0,0,1
 230 510 230 510 260 510 c 0,2,3
 326 510 326 510 357 464 c 2,4,-1
 371 444 l 1,5,-1
 399 470 l 2,6,7
 446 511 446 511 495 511 c 0,8,9
 497 511 497 511 501.5 510.5 c 128,-1,10
 506 510 506 510 509 510 c 0,11,12
 601 501 601 501 617 399 c 0,13,14
 622 372 622 372 622 247 c 2,15,-1
 622 201 l 2,16,17
 622 140 622 140 616.5 127 c 128,-1,18
 611 114 611 114 585 114 c 2,19,-1
 570 114 l 1,20,-1
 559 114 l 2,21,22
 530 114 530 114 524.5 130 c 128,-1,23
 519 146 519 146 518 230 c 0,24,25
 518 247 518 247 518 256 c 0,26,27
 516 351 516 351 514.5 370.5 c 128,-1,28
 513 390 513 390 505 402 c 0,29,30
 489 424 489 424 462 424 c 0,31,32
 454 424 454 424 446 421 c 0,33,34
 435 417 435 417 410 394 c 2,35,-1
 385 371 l 1,36,-1
 385 249 l 2,37,38
 385 127 385 127 379 121 c 128,-1,39
 373 115 373 115 327 115 c 0,40,41
 302 115 302 115 295 118 c 0,42,43
 287 121 287 121 287 225 c 0,44,45
 287 325 287 325 282 360.5 c 128,-1,46
 277 396 277 396 261 410 c 128,-1,47
 245 424 245 424 233 424 c 0,48,49
 200 424 200 424 169 390 c 2,50,-1
 153 372 l 1,51,-1
 153 248 l 1,52,-1
 153 201 l 2,53,54
 153 139 153 139 147.5 126.5 c 128,-1,55
 142 114 142 114 117 114 c 2,56,-1
 102 114 l 1,57,-1
 84 114 l 2,58,59
 71 114 71 114 65.5 116.5 c 128,-1,60
 60 119 60 119 55.5 133 c 128,-1,61
 51 147 51 147 50.5 169.5 c 128,-1,62
 50 192 50 192 50 239 c 2,63,-1
 50 307 l 2,64,65
 50 489 50 489 56 495 c 128,-1,66
 62 501 62 501 91 501 c 0,67,68
 116 501 116 501 128 496 c 0,69,70
 138 490 138 490 138 469 c 2,71,-1
 138 448 l 1,72,-1
 159 468 l 2,73,74
 182 488 182 488 207 499 c 0,0,1
EndSplineSet
Validated: 1
EndChar

StartChar: n
Encoding: 110 110 82
Width: 447
GlyphClass: 2
Flags: W
LayerCount: 2
Fore
SplineSet
212 501 m 0,0,1
 235 510 235 510 263 510 c 0,2,3
 327 510 327 510 358 474 c 0,4,5
 382 448 382 448 389 406 c 128,-1,6
 396 364 396 364 396 248 c 2,7,-1
 396 211 l 2,8,9
 396 141 396 141 391 127.5 c 128,-1,10
 386 114 386 114 358 114 c 2,11,-1
 344 114 l 1,12,-1
 330 114 l 2,13,14
 304 114 304 114 298.5 126 c 128,-1,15
 293 138 293 138 293 197 c 2,16,-1
 293 242 l 2,17,18
 293 361 293 361 288 378 c 0,19,20
 283 396 283 396 266.5 410 c 128,-1,21
 250 424 250 424 234 424 c 0,22,23
 220 424 220 424 196 410 c 128,-1,24
 172 396 172 396 162 382 c 0,25,26
 153 369 153 369 153 247 c 0,27,28
 153 159 153 159 152 141.5 c 128,-1,29
 151 124 151 124 144 120 c 0,30,31
 132 115 132 115 100 115 c 0,32,33
 63 115 63 115 57 121 c 0,34,35
 50 128 50 128 50 308 c 128,-1,36
 50 488 50 488 57 495 c 0,37,38
 63 501 63 501 92 501 c 0,39,40
 116 501 116 501 128 496 c 0,41,42
 138 490 138 490 138 470 c 2,43,-1
 138 448 l 1,44,-1
 162 470 l 2,45,46
 187 491 187 491 212 501 c 0,0,1
EndSplineSet
Validated: 1
EndChar

StartChar: o
Encoding: 111 111 83
Width: 482
GlyphClass: 2
Flags: W
LayerCount: 2
Fore
SplineSet
283 435 m 0,0,1
 265 444 265 444 245 444 c 0,2,3
 155 442 155 442 155 325 c 0,4,5
 155 322 155 322 155.5 315 c 128,-1,6
 156 308 156 308 156 305 c 0,7,8
 164 204 164 204 238 204 c 2,9,-1
 246 204 l 1,10,11
 329 210 329 210 329 320 c 0,12,13
 329 337 329 337 328 347 c 0,14,15
 321 415 321 415 283 435 c 0,0,1
189 522 m 0,16,17
 201 525 201 525 237 525 c 2,18,-1
 258 525 l 2,19,20
 306 524 306 524 339 509 c 0,21,22
 390 487 390 487 417 429 c 0,23,24
 426 410 426 410 428 394 c 128,-1,25
 430 378 430 378 430 328 c 0,26,27
 430 277 430 277 428 262 c 128,-1,28
 426 247 426 247 416 225 c 0,29,30
 387 164 387 164 328 137 c 0,31,32
 306 127 306 127 291.5 124.5 c 128,-1,33
 277 122 277 122 237 122 c 0,34,35
 198 122 198 122 183 124.5 c 128,-1,36
 168 127 168 127 149 136 c 0,37,38
 118 150 118 150 101.5 166 c 128,-1,39
 85 182 85 182 71 211 c 0,40,41
 58 236 58 236 56 250 c 128,-1,42
 54 264 54 264 54 318 c 0,43,44
 54 369 54 369 56 384 c 128,-1,45
 58 399 58 399 68 421 c 0,46,47
 105 500 105 500 189 522 c 0,16,17
EndSplineSet
Validated: 1
EndChar

StartChar: p
Encoding: 112 112 84
Width: 463
GlyphClass: 2
Flags: W
LayerCount: 2
Fore
SplineSet
277 426 m 0,0,1
 258 443 258 443 231 443 c 0,2,3
 218 443 218 443 210 439 c 0,4,5
 196 433 196 433 175 412 c 2,6,-1
 153 391 l 1,7,-1
 153 328 l 2,8,9
 154 286 154 286 156 274 c 128,-1,10
 158 262 158 262 165 253 c 0,11,12
 179 236 179 236 199 224 c 128,-1,13
 219 212 219 212 232 212 c 0,14,15
 264 212 264 212 284 242 c 128,-1,16
 304 272 304 272 305 323 c 2,17,-1
 305 330 l 2,18,19
 305 400 305 400 277 426 c 0,0,1
212 522 m 0,20,21
 236 531 236 531 264 531 c 0,22,23
 307 531 307 531 337 513 c 0,24,25
 372 491 372 491 389 453.5 c 128,-1,26
 406 416 406 416 409 353 c 0,27,28
 409 349 409 349 409.5 341 c 128,-1,29
 410 333 410 333 410 329 c 0,30,31
 410 238 410 238 373.5 185 c 128,-1,32
 337 132 337 132 269 126 c 0,33,34
 266 126 266 126 261 125.5 c 128,-1,35
 256 125 256 125 254 125 c 0,36,37
 213 125 213 125 176 154 c 2,38,-1
 153 171 l 1,39,-1
 153 -4 l 1,40,-1
 140 -9 l 2,41,42
 130 -14 130 -14 98 -14 c 0,43,44
 68 -14 68 -14 60 -9 c 0,45,46
 53 -5 53 -5 51.5 33 c 128,-1,47
 50 71 50 71 50 253 c 0,48,49
 50 509 50 509 56 515 c 128,-1,50
 62 521 62 521 91 521 c 0,51,52
 116 521 116 521 128 516 c 0,53,54
 138 510 138 510 138 490 c 2,55,-1
 138 469 l 1,56,-1
 161 490 l 2,57,58
 187 512 187 512 212 522 c 0,20,21
EndSplineSet
Validated: 1
EndChar

StartChar: q
Encoding: 113 113 85
Width: 464
GlyphClass: 2
Flags: W
LayerCount: 2
Fore
SplineSet
271 409 m 0,0,1
 250 423 250 423 228 423 c 0,2,3
 193 423 193 423 171 380 c 0,4,5
 159 358 159 358 159 308 c 0,6,7
 159 257 159 257 171 233 c 0,8,9
 191 192 191 192 227 192 c 0,10,11
 248 192 248 192 271 207 c 0,12,13
 292 220 292 220 306 240 c 0,14,15
 316 259 316 259 316 283 c 0,16,17
 316 301 316 301 315 315 c 0,18,19
 313 363 313 363 307 376.5 c 128,-1,20
 301 390 301 390 271 409 c 0,0,1
159 503 m 0,21,22
 179 511 179 511 205 511 c 0,23,24
 257 511 257 511 305 472 c 2,25,-1
 327 454 l 1,26,-1
 327 472 l 2,27,28
 327 489 327 489 336.5 495 c 128,-1,29
 346 501 346 501 373 501 c 0,30,31
 377 501 377 501 383 501.5 c 128,-1,32
 389 502 389 502 391 502 c 0,33,34
 400 502 400 502 404 499 c 128,-1,35
 408 496 408 496 410.5 479.5 c 128,-1,36
 413 463 413 463 413.5 439 c 128,-1,37
 414 415 414 415 414 363 c 2,38,-1
 414 235 l 1,39,-1
 414 -24 l 1,40,-1
 404 -30 l 2,41,42
 397 -34 397 -34 366 -34 c 0,43,44
 324 -34 324 -34 318 -28 c 0,45,46
 316 -26 316 -26 314 50 c 128,-1,47
 312 126 312 126 312 144 c 0,48,49
 312 145 312 145 310 145 c 0,50,51
 304 145 304 145 285 132 c 0,52,53
 244 104 244 104 199 104 c 0,54,55
 178 104 178 104 155 110 c 0,56,57
 131 118 131 118 105 144.5 c 128,-1,58
 79 171 79 171 69 199 c 0,59,60
 54 242 54 242 54 311 c 0,61,62
 54 344 54 344 58 364 c 0,63,64
 67 413 67 413 95 451.5 c 128,-1,65
 123 490 123 490 159 503 c 0,21,22
EndSplineSet
Validated: 1
EndChar

StartChar: r
Encoding: 114 114 86
Width: 334
GlyphClass: 2
Flags: W
LayerCount: 2
Fore
SplineSet
197 504 m 0,0,1
 208 511 208 511 233 511 c 0,2,3
 261 511 261 511 274 502 c 0,4,5
 282 494 282 494 282 457 c 0,6,7
 282 427 282 427 276 418 c 0,8,9
 270 412 270 412 263 412 c 0,10,11
 257 412 257 412 242 415 c 128,-1,12
 227 418 227 418 221 418 c 0,13,14
 212 418 212 418 201 410 c 0,15,16
 185 398 185 398 170 378 c 2,17,-1
 153 356 l 1,18,-1
 153 241 l 1,19,-1
 153 197 l 2,20,21
 153 138 153 138 147 126 c 128,-1,22
 141 114 141 114 114 114 c 2,23,-1
 102 114 l 1,24,-1
 84 114 l 2,25,26
 71 114 71 114 65.5 116.5 c 128,-1,27
 60 119 60 119 55.5 133 c 128,-1,28
 51 147 51 147 50.5 169.5 c 128,-1,29
 50 192 50 192 50 239 c 2,30,-1
 50 307 l 2,31,32
 50 489 50 489 56 495 c 128,-1,33
 62 501 62 501 91 501 c 0,34,35
 116 501 116 501 128 496 c 0,36,37
 138 490 138 490 138 469 c 2,38,-1
 138 447 l 1,39,-1
 160 472 l 2,40,41
 183 497 183 497 197 504 c 0,0,1
EndSplineSet
Validated: 1
EndChar

StartChar: s
Encoding: 115 115 87
Width: 376
GlyphClass: 2
Flags: W
LayerCount: 2
Fore
SplineSet
136 502 m 0,0,1
 162 511 162 511 197 511 c 0,2,3
 228 511 228 511 255 504 c 0,4,5
 287 496 287 496 295.5 486 c 128,-1,6
 304 476 304 476 304 449 c 0,7,8
 304 420 304 420 298 416 c 1,9,-1
 297 416 l 2,10,11
 296 415 296 415 295 415 c 0,12,13
 282 415 282 415 266 424 c 0,14,15
 236 436 236 436 200 436 c 0,16,17
 170 436 170 436 160 427 c 0,18,19
 149 418 149 418 149 399 c 0,20,21
 149 384 149 384 158 376 c 0,22,23
 166 368 166 368 217 347 c 0,24,25
 267 327 267 327 285 314 c 0,26,27
 324 284 324 284 324 229 c 0,28,29
 324 185 324 185 295 151 c 0,30,31
 257 108 257 108 172 107 c 0,32,33
 88 107 88 107 62 130 c 0,34,35
 51 140 51 140 51 171 c 0,36,37
 51 206 51 206 62 206 c 0,38,39
 68 206 68 206 94 194 c 0,40,41
 124 180 124 180 163 179 c 0,42,43
 189 179 189 179 197 181 c 128,-1,44
 205 183 205 183 214 193 c 0,45,46
 225 205 225 205 225 219 c 0,47,48
 225 248 225 248 176 266 c 0,49,50
 110 291 110 291 81 320 c 128,-1,51
 52 349 52 349 52 391 c 0,52,53
 52 402 52 402 53 407 c 0,54,55
 60 476 60 476 136 502 c 0,0,1
EndSplineSet
Validated: 1
EndChar

StartChar: t
Encoding: 116 116 88
Width: 358
GlyphClass: 2
Flags: W
LayerCount: 2
Fore
SplineSet
120 593 m 0,0,1
 129 599 129 599 165 599 c 0,2,3
 194 599 194 599 204 594 c 0,4,5
 214 588 214 588 214 545 c 2,6,-1
 214 501 l 1,7,-1
 254 501 l 2,8,9
 294 501 294 501 300 495 c 128,-1,10
 306 489 306 489 306 462 c 0,11,12
 306 440 306 440 301 428 c 0,13,14
 295 419 295 419 255 419 c 2,15,-1
 214 419 l 1,16,-1
 214 212 l 1,17,-1
 227 198 l 2,18,19
 237 188 237 188 248 188 c 0,20,21
 256 188 256 188 262 189 c 0,22,23
 287 194 287 194 293 194 c 0,24,25
 302 194 302 194 303.5 188.5 c 128,-1,26
 305 183 305 183 306 162 c 2,27,-1
 306 152 l 2,28,29
 306 128 306 128 296.5 119.5 c 128,-1,30
 287 111 287 111 258 107 c 0,31,32
 236 105 236 105 226 105 c 0,33,34
 137 105 137 105 116 181 c 0,35,36
 111 198 111 198 111 309 c 2,37,-1
 111 419 l 1,38,-1
 89 419 l 2,39,40
 67 419 67 419 60.5 426.5 c 128,-1,41
 54 434 54 434 54 458 c 0,42,43
 54 488 54 488 58.5 494.5 c 128,-1,44
 63 501 63 501 85 501 c 2,45,-1
 111 501 l 1,46,-1
 111 545 l 2,47,48
 111 588 111 588 120 593 c 0,0,1
EndSplineSet
Validated: 1
EndChar

StartChar: u
Encoding: 117 117 89
Width: 446
GlyphClass: 2
Flags: W
LayerCount: 2
Fore
SplineSet
60 501 m 0,0,1
 68 506 68 506 101 506 c 0,2,3
 136 506 136 506 144 501 c 0,4,5
 151 497 151 497 152.5 479 c 128,-1,6
 154 461 154 461 154 381 c 0,7,8
 154 264 154 264 159 246 c 0,9,10
 164 226 164 226 179.5 211.5 c 128,-1,11
 195 197 195 197 211 197 c 0,12,13
 237 197 237 197 272 229 c 2,14,-1
 293 251 l 1,15,-1
 293 373 l 1,16,-1
 293 410 l 2,17,18
 293 478 293 478 298.5 492 c 128,-1,19
 304 506 304 506 330 506 c 2,20,-1
 345 506 l 1,21,-1
 365 506 l 2,22,23
 387 506 387 506 391.5 488.5 c 128,-1,24
 396 471 396 471 396 392 c 2,25,-1
 396 311 l 1,26,-1
 396 231 l 2,27,28
 396 154 396 154 392 137 c 128,-1,29
 388 120 388 120 371 120 c 2,30,-1
 355 120 l 2,31,32
 327 120 327 120 318 126 c 128,-1,33
 309 132 309 132 309 151 c 2,34,-1
 309 172 l 1,35,-1
 285 152 l 2,36,37
 240 115 240 115 195 111 c 1,38,-1
 184 111 l 2,39,40
 159 111 159 111 132.5 118.5 c 128,-1,41
 106 126 106 126 93 137 c 0,42,43
 67 160 67 160 59 206.5 c 128,-1,44
 51 253 51 253 51 376 c 0,45,46
 51 457 51 457 52.5 477 c 128,-1,47
 54 497 54 497 60 501 c 0,0,1
EndSplineSet
Validated: 1
EndChar

StartChar: v
Encoding: 118 118 90
Width: 477
GlyphClass: 2
Flags: W
LayerCount: 2
Fore
SplineSet
61 503 m 0,0,1
 68 506 68 506 93 506 c 0,2,3
 140 506 140 506 148 500 c 128,-1,4
 156 494 156 494 191 385 c 0,5,6
 240 229 240 229 242 229 c 2,7,-1
 243 229 l 2,8,9
 244 230 244 230 286 362 c 128,-1,10
 328 494 328 494 336 500 c 0,11,12
 345 506 345 506 387 506 c 0,13,14
 410 506 410 506 417 503 c 0,15,16
 425 500 425 500 425 484 c 0,17,18
 425 469 425 469 366 298 c 0,19,20
 307 128 307 128 298 124 c 0,21,22
 286 120 286 120 239 120 c 2,23,-1
 222 120 l 2,24,25
 188 120 188 120 178 129 c 0,26,27
 169 137 169 137 111.5 302 c 128,-1,28
 54 467 54 467 54 486 c 0,29,30
 54 501 54 501 61 503 c 0,0,1
EndSplineSet
Validated: 1
EndChar

StartChar: w
Encoding: 119 119 91
Width: 688
GlyphClass: 2
Flags: W
LayerCount: 2
Fore
SplineSet
61 497 m 0,0,1
 68 501 68 501 97 501 c 0,2,3
 138 501 138 501 148 495 c 0,4,5
 155 489 155 489 191 362 c 0,6,7
 225 236 225 236 227 234 c 0,8,9
 227 233 227 233 228 233 c 0,10,11
 233 233 233 233 265 362 c 0,12,13
 297 489 297 489 306 495 c 0,14,15
 314 501 314 501 351 501 c 0,16,17
 381 501 381 501 389 496 c 0,18,19
 395 492 395 492 457 267 c 0,20,21
 466 233 466 233 471 233 c 0,22,23
 472 233 472 233 472 234 c 0,24,25
 474 237 474 237 508 364 c 0,26,27
 540 490 540 490 548 495 c 0,28,29
 556 501 556 501 598 501 c 0,30,31
 620 501 620 501 628 498 c 128,-1,32
 636 495 636 495 636 482 c 0,33,34
 636 470 636 470 587 301 c 0,35,36
 536 132 536 132 527 123 c 0,37,38
 514 113 514 113 472 113 c 0,39,40
 429 113 429 113 416 123 c 0,41,42
 409 129 409 129 392.5 184.5 c 128,-1,43
 376 240 376 240 361 291.5 c 128,-1,44
 346 343 346 343 343 343 c 0,45,46
 341 343 341 343 312 233 c 0,47,48
 285 127 285 127 277 121 c 0,49,50
 266 114 266 114 222 114 c 0,51,52
 176 114 176 114 166 121 c 0,53,54
 159 126 159 126 106.5 296 c 128,-1,55
 54 466 54 466 54 483 c 0,56,57
 54 495 54 495 61 497 c 0,0,1
EndSplineSet
Validated: 1
EndChar

StartChar: x
Encoding: 120 120 92
Width: 454
GlyphClass: 2
Flags: W
LayerCount: 2
Fore
SplineSet
63 497 m 0,0,1
 69 501 69 501 112 501 c 2,2,-1
 125 501 l 2,3,4
 153 501 153 501 163 492 c 128,-1,5
 173 483 173 483 192 444 c 0,6,7
 216 397 216 397 222 389 c 2,8,-1
 233 372 l 1,9,-1
 244 391 l 1,10,11
 297 491 297 491 306 497 c 0,12,13
 311 501 311 501 349 501 c 0,14,15
 380 501 380 501 388 498 c 128,-1,16
 396 495 396 495 396 490 c 0,17,18
 396 482 396 482 350 402 c 0,19,20
 304 319 304 319 304 315 c 0,21,22
 304 310 304 310 353 223 c 128,-1,23
 402 136 402 136 402 128 c 0,24,25
 402 122 402 122 393 118 c 0,26,27
 386 115 386 115 348 115 c 128,-1,28
 310 115 310 115 302 118 c 0,29,30
 293 123 293 123 259 185 c 0,31,32
 225 248 225 248 221 248 c 128,-1,33
 217 248 217 248 185 187 c 0,34,35
 153 125 153 125 143 119 c 0,36,37
 133 115 133 115 105 115 c 2,38,-1
 93 115 l 2,39,40
 52 118 52 118 52 126 c 0,41,42
 52 138 52 138 99 221 c 0,43,44
 149 308 149 308 149 312 c 0,45,46
 149 320 149 320 115 377 c 0,47,48
 82 433 82 433 82 438 c 0,49,50
 82 440 82 440 69 460 c 0,51,52
 57 480 57 480 57 488 c 0,53,54
 57 494 57 494 63 497 c 0,0,1
EndSplineSet
Validated: 1
EndChar

StartChar: y
Encoding: 121 121 93
Width: 477
GlyphClass: 2
Flags: W
LayerCount: 2
Fore
SplineSet
54 480 m 0,0,1
 54 494 54 494 67.5 497.5 c 128,-1,2
 81 501 81 501 109 501 c 0,3,4
 134 501 134 501 141.5 499 c 128,-1,5
 149 497 149 497 154 490 c 0,6,7
 158 484 158 484 198.5 371.5 c 128,-1,8
 239 259 239 259 242 254 c 0,9,10
 243 250 243 250 246 250 c 0,11,12
 251 250 251 250 280 342 c 0,13,14
 311 437 311 437 318 460 c 0,15,16
 326 488 326 488 335 494.5 c 128,-1,17
 344 501 344 501 372 501 c 0,18,19
 425 501 425 501 425 479 c 0,20,21
 425 465 425 465 269 11 c 0,22,23
 258 -21 258 -21 245 -28 c 0,24,25
 229 -35 229 -35 198 -35 c 0,26,27
 166 -35 166 -35 155 -28 c 0,28,29
 149 -23 149 -23 149 -19 c 0,30,31
 149 -13 149 -13 162 22 c 0,32,33
 181 72 181 72 187 87 c 0,34,35
 193 100 193 100 193 107 c 0,36,37
 193 112 193 112 186 126 c 0,38,39
 175 148 175 148 114.5 310 c 128,-1,40
 54 472 54 472 54 480 c 0,0,1
EndSplineSet
Validated: 1
EndChar

StartChar: z
Encoding: 122 122 94
Width: 381
GlyphClass: 2
Flags: W
LayerCount: 2
Fore
SplineSet
65 497 m 128,-1,1
 69 501 69 501 163 501 c 0,2,3
 307 501 307 501 313 495 c 128,-1,4
 319 489 319 489 319 460 c 0,5,6
 319 435 319 435 304.5 408 c 128,-1,7
 290 381 290 381 220 274 c 2,8,-1
 172 199 l 1,9,-1
 244 198 l 2,10,11
 307 196 307 196 318.5 191 c 128,-1,12
 330 186 330 186 330 157 c 2,13,-1
 330 148 l 2,14,15
 330 123 330 123 313.5 118.5 c 128,-1,16
 297 114 297 114 211 114 c 2,17,-1
 193 114 l 1,18,-1
 67 114 l 1,19,-1
 59 127 l 2,20,21
 52 137 52 137 52 151 c 0,22,23
 52 160 52 160 53 166 c 0,24,25
 55 183 55 183 68.5 207.5 c 128,-1,26
 82 232 82 232 127 302 c 0,27,28
 142 325 142 325 162 355 c 128,-1,29
 182 385 182 385 191 399 c 128,-1,30
 200 413 200 413 200 414 c 0,31,32
 200 419 200 419 138 419 c 0,33,34
 74 419 74 419 68 425 c 0,35,36
 61 432 61 432 61 471 c 0,37,0
 61 493 61 493 65 497 c 128,-1,1
EndSplineSet
Validated: 1
EndChar

StartChar: braceleft
Encoding: 123 123 95
Width: 295
GlyphClass: 2
Flags: W
LayerCount: 2
Fore
SplineSet
149 634 m 0,0,1
 173 645 173 645 204 645 c 2,2,-1
 236 645 l 1,3,-1
 236 572 l 1,4,-1
 221 572 l 2,5,6
 185 572 185 572 185 519 c 0,7,8
 183 432 183 432 162 391 c 2,9,-1
 150 367 l 1,10,-1
 162 350 l 2,11,12
 184 317 184 317 188 240 c 0,13,14
 191 196 191 196 196.5 179.5 c 128,-1,15
 202 163 202 163 215 163 c 0,16,17
 232 163 232 163 237 155.5 c 128,-1,18
 242 148 242 148 242 120 c 2,19,-1
 242 83 l 1,20,-1
 207 87 l 2,21,22
 152 93 152 93 135.5 112 c 128,-1,23
 119 131 119 131 115 193 c 0,24,25
 110 269 110 269 99 306.5 c 128,-1,26
 88 344 88 344 68 358 c 2,27,-1
 55 366 l 1,28,-1
 68 376 l 2,29,30
 87 391 87 391 94.5 416 c 128,-1,31
 102 441 102 441 107 507 c 0,32,33
 113 582 113 582 120 603 c 128,-1,34
 127 624 127 624 149 634 c 0,0,1
EndSplineSet
Validated: 1
EndChar

StartChar: bar
Encoding: 124 124 96
Width: 185
GlyphClass: 2
Flags: W
LayerCount: 2
Fore
SplineSet
50 121 m 1,0,-1
 50 609 l 1,1,-1
 93 607 l 1,2,-1
 135 606 l 1,3,-1
 135 124 l 1,4,-1
 93 122 l 1,5,-1
 50 121 l 1,0,-1
EndSplineSet
Validated: 1
EndChar

StartChar: braceright
Encoding: 125 125 97
Width: 293
GlyphClass: 2
Flags: W
LayerCount: 2
Fore
SplineSet
55 610 m 1,0,-1
 53 645 l 1,1,-1
 84 645 l 2,2,3
 146 645 146 645 165 615 c 0,4,5
 174 602 174 602 181 525 c 0,6,7
 187 455 187 455 194 429.5 c 128,-1,8
 201 404 201 404 219 385 c 2,9,-1
 238 365 l 1,10,-1
 226 356 l 2,11,12
 192 333 192 333 181 213 c 0,13,14
 174 131 174 131 160.5 112.5 c 128,-1,15
 147 94 147 94 89 88 c 2,16,-1
 54 84 l 1,17,-1
 54 157 l 1,18,-1
 72 161 l 2,19,20
 91 165 91 165 97.5 179 c 128,-1,21
 104 193 104 193 107 240 c 0,22,23
 111 322 111 322 134 352 c 0,24,25
 143 364 143 364 143 368 c 128,-1,26
 143 372 143 372 136 378 c 0,27,28
 114 397 114 397 106 499 c 0,29,30
 102 557 102 557 97 562 c 0,31,32
 90 568 90 568 73 572 c 2,33,-1
 56 575 l 1,34,-1
 55 610 l 1,0,-1
EndSplineSet
Validated: 1
EndChar

StartChar: asciitilde
Encoding: 126 126 98
Width: 321
GlyphClass: 2
Flags: W
LayerCount: 2
Fore
SplineSet
90 420 m 0,0,1
 104 427 104 427 113 427 c 0,2,3
 132 427 132 427 161 404 c 0,4,5
 190 380 190 380 212 380 c 0,6,7
 232 380 232 380 258 403 c 2,8,-1
 270 413 l 1,9,-1
 269 367 l 1,10,-1
 267 321 l 1,11,-1
 249 309 l 2,12,13
 226 294 226 294 210 294 c 0,14,15
 187 294 187 294 155 322 c 0,16,17
 136 338 136 338 121 342 c 0,18,19
 119 343 119 343 113 343 c 0,20,21
 87 343 87 343 70 323 c 0,22,23
 64 316 64 316 60 316 c 0,24,25
 52 316 52 316 52 355 c 0,26,27
 52 384 52 384 58 394.5 c 128,-1,28
 64 405 64 405 90 420 c 0,0,1
EndSplineSet
Validated: 1
EndChar

StartChar: uniE001
Encoding: 57345 57345 100
Width: 431
GlyphClass: 3
Flags: W
LayerCount: 2
Fore
SplineSet
207 659 m 0,0,1
 209 681 209 681 243 681 c 2,2,-1
 256 680 l 1,3,-1
 256 614 l 2,4,5
 256 556 256 556 248.5 491.5 c 128,-1,6
 241 427 241 427 233 419 c 128,-1,7
 225 411 225 411 206 411 c 2,8,-1
 186 411 l 1,9,-1
 186 434 l 2,10,11
 186 451 186 451 194.5 544 c 128,-1,12
 203 637 203 637 207 659 c 0,0,1
181 333 m 0,13,14
 176 338 176 338 168 338 c 128,-1,15
 160 338 160 338 144 321.5 c 128,-1,16
 128 305 128 305 120 290 c 0,17,18
 109 266 109 266 109 243 c 0,19,20
 109 234 109 234 112 234 c 0,21,22
 122 234 122 234 152 276 c 128,-1,23
 182 318 182 318 182 331 c 0,24,25
 182 332 182 332 181.5 332 c 128,-1,26
 181 332 181 332 181 333 c 0,13,14
154 364 m 0,27,28
 176 370 176 370 192 370 c 2,29,-1
 193 370 l 2,30,31
 234 370 234 370 272 281 c 0,32,33
 292 234 292 234 298 234 c 0,34,35
 302 234 302 234 318 246 c 0,36,37
 330 257 330 257 354 257 c 0,38,39
 376 257 376 257 376 250 c 0,40,41
 376 244 376 244 360 231 c 0,42,43
 328 205 328 205 281 205 c 0,44,45
 264 205 264 205 252 211 c 0,46,47
 240 218 240 218 225 249 c 2,48,-1
 210 280 l 1,49,-1
 193 257 l 2,50,51
 150 198 150 198 86 198 c 0,52,53
 54 198 54 198 54 245 c 0,54,55
 54 289 54 289 87 323 c 0,56,57
 113 352 113 352 154 364 c 0,27,28
EndSplineSet
Validated: 1
Ligature2: "'liga' Standard Ligatures in Latin lookup 0 subtable" a a
Ligature2: "'liga' Standard Ligatures in Latin lookup 0 subtable" a space
Ligature2: "'liga' Standard Ligatures in Latin lookup 0 subtable" a exclam
EndChar

StartChar: uniE002
Encoding: 57346 57346 101
Width: 527
GlyphClass: 3
Flags: W
LayerCount: 2
Fore
SplineSet
90 629 m 0,0,1
 99 640 99 640 104.5 643 c 128,-1,2
 110 646 110 646 125 646 c 0,3,4
 147 646 147 646 147 641 c 0,5,6
 147 637 147 637 128.5 609 c 128,-1,7
 110 581 110 581 105 577 c 0,8,9
 100 574 100 574 83 574 c 0,10,11
 63 574 63 574 63 583 c 0,12,13
 63 594 63 594 90 629 c 0,0,1
414 625 m 2,14,-1
 423 646 l 1,15,-1
 470 646 l 1,16,-1
 467 632 l 2,17,18
 465 618 465 618 456 601 c 0,19,20
 451 590 451 590 446.5 587.5 c 128,-1,21
 442 585 442 585 426 585 c 0,22,23
 404 585 404 585 404 595 c 0,24,25
 404 600 404 600 414 625 c 2,14,-1
292 275 m 2,26,-1
 294 279 l 2,27,28
 294 284 294 284 211 284 c 0,29,30
 125 284 125 284 125 278 c 0,31,32
 125 271 125 271 138.5 250.5 c 128,-1,33
 152 230 152 230 163 222 c 0,34,35
 186 204 186 204 209 204 c 0,36,37
 216 204 216 204 224 207 c 0,38,39
 234 211 234 211 259.5 236.5 c 128,-1,40
 285 262 285 262 292 275 c 2,26,-1
326 383 m 0,41,42
 318 383 318 383 265 378 c 0,43,44
 241 376 241 376 169 376 c 2,45,-1
 116 377 l 1,46,-1
 113 358 l 2,47,48
 112 352 112 352 112 338 c 0,49,50
 112 328 112 328 113 325 c 2,51,-1
 117 311 l 1,52,-1
 216 312 l 1,53,-1
 316 314 l 1,54,-1
 329 345 l 2,55,56
 339 370 339 370 339 379 c 0,57,58
 339 383 339 383 326 383 c 0,41,42
355 463 m 1,59,60
 350 466 350 466 331 466 c 0,61,62
 307 466 307 466 238 460 c 0,63,64
 142 451 142 451 140 450 c 0,65,66
 137 448 137 448 131 433 c 128,-1,67
 125 418 125 418 125 411 c 0,68,69
 125 409 125 409 126 408 c 0,70,71
 131 403 131 403 214 403 c 0,72,73
 258 403 258 403 280 404 c 2,74,-1
 350 407 l 1,75,-1
 353 434 l 2,76,77
 355 448 355 448 355 463 c 1,59,60
351 529 m 0,78,79
 342 558 342 558 316.5 578 c 128,-1,80
 291 598 291 598 256 600 c 2,81,-1
 231 602 l 1,82,-1
 211 580 l 2,83,84
 196 562 196 562 174 527 c 128,-1,85
 152 492 152 492 152 485 c 0,86,87
 152 479 152 479 180 479 c 0,88,89
 207 479 207 479 274.5 485.5 c 128,-1,90
 342 492 342 492 352 492 c 0,91,92
 356 492 356 492 356 502 c 128,-1,93
 356 512 356 512 351 529 c 0,78,79
208 624 m 0,94,95
 232 636 232 636 248 636 c 0,96,97
 258 636 258 636 303 626 c 0,98,99
 419 600 419 600 419 478 c 0,100,101
 419 460 419 460 416 439 c 0,102,103
 401 317 401 317 318 231 c 0,104,105
 297 209 297 209 286.5 202 c 128,-1,106
 276 195 276 195 254 188 c 0,107,108
 221 178 221 178 181 178 c 0,109,110
 152 178 152 178 143 180 c 128,-1,111
 134 182 134 182 119 193 c 0,112,113
 79 220 79 220 61 274 c 0,114,115
 53 295 53 295 53 320 c 0,116,117
 53 337 53 337 54 348 c 0,118,119
 58 450 58 450 126 548 c 0,120,121
 164 603 164 603 208 624 c 0,94,95
EndSplineSet
Validated: 1
Ligature2: "'liga' Standard Ligatures in Latin lookup 0 subtable" a k e s i space
Ligature2: "'liga' Standard Ligatures in Latin lookup 0 subtable" a k e s i
EndChar

StartChar: uniE003
Encoding: 57347 57347 102
Width: 411
GlyphClass: 3
Flags: W
LayerCount: 2
Fore
SplineSet
242 393 m 0,0,1
 269 426 269 426 276.5 432 c 128,-1,2
 284 438 284 438 298 438 c 0,3,4
 318 438 318 438 320 433 c 0,5,6
 320 432 320 432 320.5 432 c 128,-1,7
 321 432 321 432 321 431 c 0,8,9
 321 421 321 421 271 356 c 0,10,11
 241 317 241 317 241 314 c 0,12,13
 241 312 241 312 269 286 c 0,14,15
 278 278 278 278 300.5 256.5 c 128,-1,16
 323 235 323 235 326 232 c 2,17,-1
 355 204 l 1,18,-1
 344 196 l 2,19,20
 327 186 327 186 319 186 c 0,21,22
 304 186 304 186 255 228 c 2,23,-1
 203 271 l 1,24,-1
 163 228 l 2,25,26
 120 183 120 183 110 180 c 0,27,28
 106 178 106 178 95 178 c 0,29,30
 69 178 69 178 69 186 c 0,31,32
 69 191 69 191 116 243 c 0,33,34
 164 297 164 297 164 302 c 0,35,36
 164 309 164 309 88 375 c 0,37,38
 55 402 55 402 55 407 c 0,39,40
 55 411 55 411 69.5 417 c 128,-1,41
 84 423 84 423 94 423 c 2,42,-1
 98 423 l 2,43,44
 105 422 105 422 154 384 c 0,45,46
 201 348 201 348 203 348 c 0,47,48
 206 348 206 348 242 393 c 0,0,1
EndSplineSet
Validated: 1
Ligature2: "'liga' Standard Ligatures in Latin lookup 0 subtable" a l a space
Ligature2: "'liga' Standard Ligatures in Latin lookup 0 subtable" a l a
EndChar

StartChar: uniE004
Encoding: 57348 57348 103
Width: 594
GlyphClass: 3
Flags: W
LayerCount: 2
Fore
SplineSet
379 392 m 0,0,1
 379 399 379 399 367.5 400.5 c 128,-1,2
 356 402 356 402 289 402 c 2,3,-1
 199 402 l 1,4,-1
 196 324 l 2,5,6
 194 281 194 281 194 245 c 0,7,8
 195 244 195 244 196 244 c 0,9,10
 205 244 205 244 232.5 253.5 c 128,-1,11
 260 263 260 263 276 272 c 0,12,13
 312 291 312 291 345.5 330 c 128,-1,14
 379 369 379 369 379 392 c 0,0,1
250 542 m 0,15,16
 228 550 228 550 205 554 c 2,17,-1
 187 557 l 1,18,-1
 190 522 l 2,19,20
 193 494 193 494 193 457 c 2,21,-1
 193 429 l 1,22,-1
 286 429 l 2,23,24
 379 429 379 429 379 436 c 0,25,26
 379 460 379 460 338 493.5 c 128,-1,27
 297 527 297 527 250 542 c 0,15,16
147 590 m 0,28,29
 149 592 149 592 153 592 c 0,30,31
 156 592 156 592 161.5 591.5 c 128,-1,32
 167 591 167 591 180.5 589.5 c 128,-1,33
 194 588 194 588 208 587 c 0,34,35
 333 575 333 575 400 509 c 0,36,37
 414 495 414 495 428 471.5 c 128,-1,38
 442 448 442 448 442 438 c 0,39,40
 442 431 442 431 489 427 c 0,41,42
 537 423 537 423 537 419 c 0,43,44
 537 412 537 412 518 406 c 128,-1,45
 499 400 499 400 474 400 c 2,46,-1
 441 400 l 1,47,-1
 435 381 l 2,48,49
 422 338 422 338 374.5 295.5 c 128,-1,50
 327 253 327 253 275 239 c 0,51,52
 199 218 199 218 122 218 c 0,53,54
 90 218 90 218 84 224 c 0,55,56
 83 225 83 225 83 227 c 0,57,58
 83 233 83 233 96.5 240.5 c 128,-1,59
 110 248 110 248 122 248 c 2,60,-1
 134 248 l 1,61,62
 134 274 134 274 133 324.5 c 128,-1,63
 132 375 132 375 132 400 c 1,64,65
 120 400 120 400 97.5 402 c 128,-1,66
 75 404 75 404 64 404 c 1,67,-1
 77 414 l 2,68,69
 90 424 90 424 110 424 c 2,70,-1
 130 424 l 1,71,-1
 130 560 l 1,72,-1
 99 560 l 2,73,74
 57 560 57 560 57 569 c 0,75,76
 57 570 57 570 58 571 c 0,77,78
 58 572 58 572 102 581 c 128,-1,79
 146 590 146 590 147 590 c 0,28,29
EndSplineSet
Validated: 1
Ligature2: "'liga' Standard Ligatures in Latin lookup 0 subtable" a l a s a space
Ligature2: "'liga' Standard Ligatures in Latin lookup 0 subtable" a l a s a
EndChar

StartChar: uniE005
Encoding: 57349 57349 104
Width: 569
GlyphClass: 3
Flags: W
LayerCount: 2
Fore
SplineSet
133 440 m 0,0,1
 161 445 161 445 179 445 c 0,2,3
 227 445 227 445 255 410 c 0,4,5
 264 399 264 399 265.5 394.5 c 128,-1,6
 267 390 267 390 262 386 c 0,7,8
 256 380 256 380 239 376 c 0,9,10
 237 376 237 376 234 375.5 c 128,-1,11
 231 375 231 375 230 375 c 0,12,13
 222 375 222 375 208 390 c 0,14,15
 183 420 183 420 157 420 c 0,16,17
 139 420 139 420 124 390.5 c 128,-1,18
 109 361 109 361 105 318 c 0,19,20
 104 310 104 310 104 298 c 0,21,22
 104 280 104 280 113 261 c 0,23,24
 123 239 123 239 134 236 c 2,25,-1
 136 236 l 2,26,27
 137 235 137 235 138 235 c 0,28,29
 161 235 161 235 228 296 c 0,30,31
 334 392 334 392 360 404 c 0,32,33
 398 424 398 424 453 424 c 0,34,35
 477 424 477 424 491 410 c 0,36,37
 515 386 515 386 515 337 c 0,38,39
 515 292 515 292 494 252 c 0,40,41
 472 208 472 208 412 204 c 0,42,43
 405 203 405 203 394 203 c 0,44,45
 378 203 378 203 365 212 c 0,46,47
 348 221 348 221 337 242 c 0,48,49
 329 256 329 256 329 262 c 0,50,51
 329 273 329 273 355 277 c 0,52,53
 360 278 360 278 366 278 c 0,54,55
 374 278 374 278 382 264 c 0,56,57
 389 251 389 251 400.5 241.5 c 128,-1,58
 412 232 412 232 421 232 c 0,59,60
 425 232 425 232 427 234 c 0,61,62
 437 241 437 241 445.5 267.5 c 128,-1,63
 454 294 454 294 456 320 c 0,64,65
 456 324 456 324 456.5 330 c 128,-1,66
 457 336 457 336 457 339 c 0,67,68
 457 384 457 384 434 395 c 0,69,70
 426 399 426 399 421 399 c 0,71,72
 414 399 414 399 401 391 c 0,73,74
 374 375 374 375 296 302 c 0,75,76
 249 258 249 258 223.5 241 c 128,-1,77
 198 224 198 224 162 214 c 0,78,79
 140 207 140 207 120 207 c 0,80,81
 78 207 78 207 61 242 c 0,82,83
 52 260 52 260 52 305 c 0,84,85
 52 349 52 349 58 371 c 128,-1,86
 64 393 64 393 83 413 c 0,87,88
 96 427 96 427 103.5 431 c 128,-1,89
 111 435 111 435 133 440 c 0,0,1
EndSplineSet
Validated: 1
Ligature2: "'liga' Standard Ligatures in Latin lookup 0 subtable" a l e
Ligature2: "'liga' Standard Ligatures in Latin lookup 0 subtable" a l i
Ligature2: "'liga' Standard Ligatures in Latin lookup 0 subtable" a l e space
Ligature2: "'liga' Standard Ligatures in Latin lookup 0 subtable" a l i space
EndChar

StartChar: uniE006
Encoding: 57350 57350 105
Width: 588
GlyphClass: 3
Flags: W
LayerCount: 2
Fore
SplineSet
481 427 m 0,0,1
 485 438 485 438 489.5 440.5 c 128,-1,2
 494 443 494 443 511 443 c 0,3,4
 534 443 534 443 534 435 c 0,5,6
 534 424 534 424 511 311 c 0,7,8
 489 198 489 198 480 190 c 0,9,10
 472 184 472 184 454 186 c 0,11,12
 441 187 441 187 438.5 189 c 128,-1,13
 436 191 436 191 435 202 c 2,14,-1
 434 218 l 1,15,-1
 378 215 l 2,16,17
 347 213 347 213 262 200.5 c 128,-1,18
 177 188 177 188 144 186 c 0,19,20
 132 185 132 185 111 185 c 0,21,22
 54 185 54 185 54 215 c 0,23,24
 54 226 54 226 88.5 328.5 c 128,-1,25
 123 431 123 431 128 434 c 0,26,27
 134 438 134 438 153 438 c 0,28,29
 167 438 167 438 169.5 436 c 128,-1,30
 172 434 172 434 172 424 c 0,31,32
 172 413 172 413 140 317 c 0,33,34
 108 226 108 226 108 218 c 0,35,36
 108 212 108 212 134 212 c 0,37,38
 172 212 172 212 288.5 227.5 c 128,-1,39
 405 243 405 243 418 243 c 2,40,-1
 441 243 l 1,41,-1
 458 327 l 2,42,43
 475 413 475 413 481 427 c 0,0,1
248 148 m 0,44,45
 256 154 256 154 273 152 c 0,46,47
 286 151 286 151 288.5 149 c 128,-1,48
 291 147 291 147 290 137 c 0,49,50
 290 127 290 127 282 93 c 0,51,52
 277 72 277 72 273.5 66.5 c 128,-1,53
 270 61 270 61 259 58 c 0,54,55
 253 56 253 56 243 56 c 0,56,57
 226 56 226 56 226 67 c 0,58,59
 226 83 226 83 234.5 113.5 c 128,-1,60
 243 144 243 144 248 148 c 0,44,45
EndSplineSet
Validated: 1
Ligature2: "'liga' Standard Ligatures in Latin lookup 0 subtable" a n p a space
Ligature2: "'liga' Standard Ligatures in Latin lookup 0 subtable" a n p a
EndChar

StartChar: uniE007
Encoding: 57351 57351 106
Width: 592
GlyphClass: 3
Flags: W
LayerCount: 2
Fore
SplineSet
490 502 m 0,0,1
 527 510 527 510 532 510 c 0,2,3
 535 510 535 510 535 507 c 0,4,5
 535 495 535 495 494 479 c 0,6,7
 432 453 432 453 366 384 c 0,8,9
 318 334 318 334 288 334 c 0,10,11
 282 334 282 334 245 367 c 0,12,13
 187 421 187 421 105 454 c 0,14,15
 62 470 62 470 58 474 c 0,16,17
 57 475 57 475 57 476 c 0,18,19
 57 481 57 481 70 487 c 128,-1,20
 83 493 83 493 95 493 c 0,21,22
 135 493 135 493 209 453 c 0,23,24
 234 439 234 439 264 416 c 128,-1,25
 294 393 294 393 297 385 c 0,26,27
 299 383 299 383 300 383 c 0,28,29
 305 383 305 383 324 403 c 0,30,31
 373 454 373 454 429 482 c 0,32,33
 450 492 450 492 490 502 c 0,0,1
282 256 m 0,34,35
 292 270 292 270 299 270 c 0,36,37
 304 270 304 270 308 269 c 0,38,39
 311 269 311 269 316.5 268 c 128,-1,40
 322 267 322 267 326 266.5 c 128,-1,41
 330 266 330 266 332 266 c 0,42,43
 337 266 337 266 354 238 c 0,44,45
 378 195 378 195 418 167.5 c 128,-1,46
 458 140 458 140 496 138 c 0,47,48
 521 138 521 138 521 134 c 128,-1,49
 521 130 521 130 509 121 c 128,-1,50
 497 112 497 112 468 112 c 0,51,52
 428 112 428 112 398 127 c 0,53,54
 350 150 350 150 318 195 c 2,55,-1
 305 212 l 1,56,-1
 288 198 l 2,57,58
 259 175 259 175 204.5 153.5 c 128,-1,59
 150 132 150 132 110 128 c 0,60,61
 105 128 105 128 100 127.5 c 128,-1,62
 95 127 95 127 92 126.5 c 128,-1,63
 89 126 89 126 87 126 c 0,64,65
 84 126 84 126 84 127 c 0,66,67
 84 129 84 129 88 133 c 0,68,69
 98 143 98 143 131 155 c 0,70,71
 244 196 244 196 282 256 c 0,34,35
EndSplineSet
Validated: 1
Ligature2: "'liga' Standard Ligatures in Latin lookup 0 subtable" a n t e space
Ligature2: "'liga' Standard Ligatures in Latin lookup 0 subtable" a n t e
EndChar

StartChar: uniE008
Encoding: 57352 57352 107
Width: 545
GlyphClass: 3
Flags: W
LayerCount: 2
Fore
SplineSet
447 520 m 0,0,1
 453 522 453 522 463 522 c 0,2,3
 488 522 488 522 488 517 c 0,4,5
 488 504 488 504 442 432 c 0,6,7
 398 362 398 362 333 284 c 2,8,-1
 301 246 l 1,9,-1
 300 189 l 2,10,11
 300 152 300 152 289.5 65 c 128,-1,12
 279 -22 279 -22 274 -27 c 0,13,14
 271 -30 271 -30 249 -32 c 2,15,-1
 227 -34 l 1,16,-1
 227 -2 l 2,17,18
 227 32 227 32 236 122 c 2,19,-1
 246 213 l 1,20,-1
 227 233 l 2,21,22
 172 295 172 295 117 367.5 c 128,-1,23
 62 440 62 440 57 457 c 0,24,25
 56 459 56 459 56 463 c 0,26,27
 56 478 56 478 83 482 c 0,28,29
 85 482 85 482 87.5 482.5 c 128,-1,30
 90 483 90 483 91 483 c 0,31,32
 100 483 100 483 114 463 c 0,33,34
 126 445 126 445 179.5 376.5 c 128,-1,35
 233 308 233 308 251 286 c 2,36,-1
 266 269 l 1,37,-1
 302 319 l 2,38,39
 332 359 332 359 389 443 c 0,40,41
 439 516 439 516 447 520 c 0,0,1
EndSplineSet
Validated: 1
Ligature2: "'liga' Standard Ligatures in Latin lookup 0 subtable" a n u
Ligature2: "'liga' Standard Ligatures in Latin lookup 0 subtable" a n u space
EndChar

StartChar: uniE009
Encoding: 57353 57353 108
Width: 569
GlyphClass: 3
Flags: W
LayerCount: 2
Fore
SplineSet
353 471 m 0,0,1
 371 478 371 478 379 478 c 0,2,3
 386 478 386 478 386 466 c 0,4,5
 386 457 386 457 385 451 c 0,6,7
 379 390 379 390 379 367 c 0,8,9
 379 350 379 350 382 330 c 0,10,11
 398 228 398 228 444 209 c 0,12,13
 460 202 460 202 470 205 c 0,14,15
 473 206 473 206 481 206 c 0,16,17
 492 206 492 206 502.5 203 c 128,-1,18
 513 200 513 200 513 196 c 0,19,20
 513 190 513 190 488.5 185.5 c 128,-1,21
 464 181 464 181 436 181 c 0,22,23
 406 181 406 181 397 186 c 0,24,25
 351 210 351 210 332 279 c 0,26,27
 326 298 326 298 325 298 c 128,-1,28
 324 298 324 298 289 263 c 0,29,30
 246 220 246 220 189 189 c 128,-1,31
 132 158 132 158 86 154 c 1,32,-1
 78 154 l 2,33,34
 57 154 57 154 57 162 c 0,35,36
 57 169 57 169 73 173 c 0,37,38
 156 193 156 193 230 268.5 c 128,-1,39
 304 344 304 344 321 425 c 0,40,41
 328 458 328 458 332 462 c 0,42,43
 333 463 333 463 353 471 c 0,0,1
EndSplineSet
Validated: 1
Ligature2: "'liga' Standard Ligatures in Latin lookup 0 subtable" a w e n space
Ligature2: "'liga' Standard Ligatures in Latin lookup 0 subtable" a w e n
EndChar

StartChar: uniE00A
Encoding: 57354 57354 109
Width: 516
GlyphClass: 3
Flags: W
LayerCount: 2
Fore
SplineSet
245 455 m 2,0,1
 246 476 246 476 252.5 484.5 c 128,-1,2
 259 493 259 493 275 493 c 2,3,-1
 283 493 l 1,4,-1
 301 491 l 1,5,-1
 299 467 l 1,6,-1
 299 460 l 2,7,8
 299 413 299 413 336 382.5 c 128,-1,9
 373 352 373 352 426 345 c 0,10,11
 460 340 460 340 460 333 c 0,12,13
 460 327 460 327 405 295 c 0,14,15
 273 219 273 219 264 174 c 0,16,17
 262 164 262 164 251.5 157.5 c 128,-1,18
 241 151 241 151 230 151 c 128,-1,19
 219 151 219 151 213 158 c 0,20,21
 210 161 210 161 210 167 c 0,22,23
 210 184 210 184 231 213 c 0,24,25
 244 230 244 230 277 256 c 128,-1,26
 310 282 310 282 342 299 c 0,27,28
 371 314 371 314 371 320 c 0,29,30
 371 323 371 323 363 323 c 0,31,32
 351 323 351 323 325.5 335.5 c 128,-1,33
 300 348 300 348 286 361 c 0,34,35
 245 399 245 399 245 446 c 2,36,-1
 245 455 l 2,0,1
88 460 m 0,37,38
 95 470 95 470 108 470 c 2,39,-1
 117 470 l 2,40,41
 131 469 131 469 134.5 467.5 c 128,-1,42
 138 466 138 466 137 460 c 0,43,44
 135 440 135 440 135 432 c 0,45,46
 135 402 135 402 145 384 c 0,47,48
 155 368 155 368 183 354 c 128,-1,49
 211 340 211 340 247 333 c 0,50,51
 282 326 282 326 284 324 c 0,52,53
 285 324 285 324 285 322 c 0,54,55
 285 316 285 316 238 292 c 0,56,57
 204 274 204 274 170.5 248 c 128,-1,58
 137 222 137 222 120 200 c 0,59,60
 100 174 100 174 78 174 c 0,61,62
 73 174 73 174 65 176 c 0,63,64
 56 179 56 179 56 184 c 0,65,66
 56 190 56 190 72 212 c 0,67,68
 104 256 104 256 170 293 c 2,69,-1
 196 308 l 1,70,-1
 176 314 l 2,71,72
 100 335 100 335 82 388 c 0,73,74
 78 399 78 399 78 416 c 0,75,76
 78 445 78 445 88 460 c 0,37,38
EndSplineSet
Validated: 1
Ligature2: "'liga' Standard Ligatures in Latin lookup 0 subtable" e space
Ligature2: "'liga' Standard Ligatures in Latin lookup 0 subtable" e e
EndChar

StartChar: uniE00B
Encoding: 57355 57355 110
Width: 463
GlyphClass: 3
Flags: W
LayerCount: 2
Fore
SplineSet
255 470 m 0,0,1
 264 475 264 475 278 475 c 0,2,3
 290 475 290 475 294 470 c 0,4,5
 295 469 295 469 295 466 c 0,6,7
 295 457 295 457 281 410 c 0,8,9
 277 398 277 398 272.5 383 c 128,-1,10
 268 368 268 368 265.5 360 c 128,-1,11
 263 352 263 352 263 351 c 0,12,13
 263 345 263 345 312 345 c 0,14,15
 407 345 407 345 407 336 c 0,16,17
 407 333 407 333 393 324 c 0,18,19
 378 317 378 317 313 314 c 2,20,-1
 249 311 l 1,21,-1
 230 264 l 2,22,23
 216 229 216 229 207 217.5 c 128,-1,24
 198 206 198 206 183 206 c 0,25,26
 176 206 176 206 172 207 c 0,27,28
 152 209 152 209 152 211 c 0,29,30
 152 214 152 214 159.5 237.5 c 128,-1,31
 167 261 167 261 174 283 c 2,32,-1
 182 305 l 2,33,34
 182 309 182 309 119 309 c 128,-1,35
 56 309 56 309 56 314 c 0,36,37
 56 318 56 318 71 327 c 128,-1,38
 86 336 86 336 133 336 c 0,39,40
 179 336 179 336 189 340 c 0,41,42
 199 345 199 345 221 404 c 0,43,44
 245 465 245 465 255 470 c 0,0,1
EndSplineSet
Validated: 1
Ligature2: "'liga' Standard Ligatures in Latin lookup 0 subtable" e n
Ligature2: "'liga' Standard Ligatures in Latin lookup 0 subtable" e n space
EndChar

StartChar: uniE00C
Encoding: 57356 57356 111
Width: 472
GlyphClass: 3
Flags: W
LayerCount: 2
Fore
SplineSet
217 314 m 0,0,1
 217 322 217 322 209 322 c 0,2,3
 196 322 196 322 172 310.5 c 128,-1,4
 148 299 148 299 135 287 c 0,5,6
 118 271 118 271 118 252 c 0,7,8
 118 234 118 234 136 217 c 0,9,10
 154 201 154 201 160 201 c 0,11,12
 165 201 165 201 176.5 213 c 128,-1,13
 188 225 188 225 194 236 c 0,14,15
 199 247 199 247 208 277 c 128,-1,16
 217 307 217 307 217 314 c 0,0,1
352 446 m 0,17,18
 346 463 346 463 339 468 c 0,19,20
 332 476 332 476 321 465 c 0,21,22
 314 458 314 458 305 438 c 0,23,24
 300 426 300 426 293.5 398 c 128,-1,25
 287 370 287 370 287 361 c 0,26,27
 287 358 287 358 291 358 c 0,28,29
 308 358 308 358 333 383 c 0,30,31
 355 406 355 406 355 428 c 0,32,33
 355 437 355 437 352 446 c 0,17,18
128 635 m 0,34,35
 148 656 148 656 163 656 c 0,36,37
 186 656 186 656 186 648 c 0,38,39
 186 639 186 639 164 610 c 0,40,41
 132 565 132 565 121.5 542.5 c 128,-1,42
 111 520 111 520 111 494 c 0,43,44
 111 413 111 413 192 376 c 0,45,46
 220 363 220 363 224 363 c 128,-1,47
 228 363 228 363 234 389 c 0,48,49
 245 446 245 446 274 477 c 0,50,51
 285 488 285 488 307 495.5 c 128,-1,52
 329 503 329 503 350 503 c 0,53,54
 370 503 370 503 385.5 489.5 c 128,-1,55
 401 476 401 476 406 454 c 0,56,57
 409 442 409 442 409 432 c 0,58,59
 409 402 409 402 376 369 c 0,60,61
 356 351 356 351 356 346 c 2,62,-1
 357 345 l 1,63,64
 363 345 363 345 381 333 c 0,65,66
 419 307 419 307 419 243 c 0,67,68
 419 215 419 215 412 190 c 0,69,70
 399 137 399 137 354 64.5 c 128,-1,71
 309 -8 309 -8 256 -64 c 0,72,73
 242 -80 242 -80 235 -83.5 c 128,-1,74
 228 -87 228 -87 214 -87 c 0,75,76
 192 -87 192 -87 192 -83 c 0,77,78
 192 -76 192 -76 229 -23 c 0,79,80
 361 156 361 156 361 246 c 0,81,82
 361 274 361 274 342.5 295 c 128,-1,83
 324 316 324 316 296 321 c 0,84,85
 294 321 294 321 291 321.5 c 128,-1,86
 288 322 288 322 287 322 c 0,87,88
 280 322 280 322 275 304 c 0,89,90
 248 198 248 198 188 181 c 0,91,92
 166 175 166 175 146 175 c 0,93,94
 110 175 110 175 87.5 193.5 c 128,-1,95
 65 212 65 212 65 242 c 2,96,-1
 65 249 l 1,97,98
 70 305 70 305 148 330 c 2,99,-1
 172 338 l 1,100,-1
 144 352 l 2,101,102
 102 373 102 373 78 410.5 c 128,-1,103
 54 448 54 448 54 490 c 0,104,105
 54 516 54 516 62 535 c 0,106,107
 81 584 81 584 128 635 c 0,34,35
EndSplineSet
Validated: 1
Ligature2: "'liga' Standard Ligatures in Latin lookup 0 subtable" e s u n space
Ligature2: "'liga' Standard Ligatures in Latin lookup 0 subtable" e s u n
EndChar

StartChar: uniE00D
Encoding: 57357 57357 112
Width: 429
GlyphClass: 3
Flags: W
LayerCount: 2
Fore
SplineSet
214 430 m 0,0,1
 199 434 199 434 192 434 c 0,2,3
 186 434 186 434 172 427 c 0,4,5
 144 413 144 413 127 379.5 c 128,-1,6
 110 346 110 346 110 308 c 0,7,8
 110 275 110 275 123 249 c 0,9,10
 143 208 143 208 184 196 c 0,11,12
 192 194 192 194 194 194 c 0,13,14
 200 194 200 194 222 205 c 0,15,16
 260 225 260 225 290 264 c 128,-1,17
 320 303 320 303 320 333 c 0,18,19
 320 360 320 360 302 381.5 c 128,-1,20
 284 403 284 403 255 412 c 0,21,22
 234 418 234 418 234 422 c 0,23,24
 234 425 234 425 214 430 c 0,0,1
198 457 m 0,25,26
 206 458 206 458 220 458 c 0,27,28
 247 458 247 458 291 442 c 0,29,30
 347 419 347 419 365 383 c 0,31,32
 375 363 375 363 375 339 c 0,33,34
 375 284 375 284 328.5 234.5 c 128,-1,35
 282 185 282 185 216 174 c 0,36,37
 184 169 184 169 168 169 c 0,38,39
 122 169 122 169 90 201 c 0,40,41
 52 239 52 239 52 302 c 0,42,43
 52 343 52 343 65 371 c 0,44,45
 83 411 83 411 114.5 431 c 128,-1,46
 146 451 146 451 198 457 c 0,25,26
EndSplineSet
Validated: 1
Ligature2: "'liga' Standard Ligatures in Latin lookup 0 subtable" i j o space
Ligature2: "'liga' Standard Ligatures in Latin lookup 0 subtable" i j o
EndChar

StartChar: uniE00E
Encoding: 57358 57358 113
Width: 433
GlyphClass: 3
Flags: W
LayerCount: 2
Fore
SplineSet
186 373 m 0,0,1
 217 380 217 380 229 380 c 0,2,3
 239 380 239 380 263 374 c 0,4,5
 303 364 303 364 338.5 334.5 c 128,-1,6
 374 305 374 305 379 277 c 0,7,8
 379 276 379 276 379.5 274 c 128,-1,9
 380 272 380 272 380 271 c 0,10,11
 380 255 380 255 350 254 c 2,12,-1
 342 254 l 2,13,14
 334 254 334 254 331.5 256.5 c 128,-1,15
 329 259 329 259 323 269 c 0,16,17
 310 295 310 295 274 320 c 128,-1,18
 238 345 238 345 208 349 c 0,19,20
 206 349 206 349 202.5 349.5 c 128,-1,21
 199 350 199 350 198 350 c 0,22,23
 188 350 188 350 165 335 c 0,24,25
 146 321 146 321 119 295 c 0,26,27
 103 279 103 279 96.5 276 c 128,-1,28
 90 273 90 273 75 273 c 0,29,30
 54 273 54 273 54 280 c 0,31,32
 54 288 54 288 82 316 c 0,33,34
 109 342 109 342 130 354 c 128,-1,35
 151 366 151 366 186 373 c 0,0,1
EndSplineSet
Validated: 1
Ligature2: "'liga' Standard Ligatures in Latin lookup 0 subtable" i k e
Ligature2: "'liga' Standard Ligatures in Latin lookup 0 subtable" i k e space
EndChar

StartChar: uniE00F
Encoding: 57359 57359 114
Width: 522
GlyphClass: 3
Flags: W
LayerCount: 2
Fore
SplineSet
181 413 m 2,0,-1
 129 415 l 1,1,-1
 126 390 l 2,2,3
 122 360 122 360 112 318 c 2,4,-1
 103 270 l 1,5,-1
 104 270 l 2,6,7
 112 270 112 270 166 274.5 c 128,-1,8
 220 279 220 279 221 280 c 128,-1,9
 222 281 222 281 228.5 338.5 c 128,-1,10
 235 396 235 396 235 408 c 0,11,12
 235 413 235 413 181 413 c 2,0,-1
415 423 m 0,13,14
 417 428 417 428 416 431 c 128,-1,15
 415 434 415 434 412.5 434.5 c 128,-1,16
 410 435 410 435 404 435 c 0,17,18
 393 435 393 435 345 428.5 c 128,-1,19
 297 422 297 422 296 420 c 0,20,21
 295 419 295 419 290.5 357.5 c 128,-1,22
 286 296 286 296 286 285 c 0,23,24
 286 282 286 282 343 282 c 2,25,-1
 398 280 l 1,26,-1
 400 298 l 2,27,28
 401 309 401 309 408 365.5 c 128,-1,29
 415 422 415 422 415 423 c 0,13,14
94 457 m 2,30,31
 106 461 106 461 117 461 c 0,32,33
 132 461 132 461 132 449 c 0,34,35
 132 440 132 440 195 440 c 0,36,37
 250 440 250 440 327 448 c 0,38,39
 405 457 405 457 436 457 c 0,40,41
 464 457 464 457 467 450 c 2,42,-1
 468 448 l 2,43,44
 468 445 468 445 468 443 c 0,45,46
 468 416 468 416 459.5 338.5 c 128,-1,47
 451 261 451 261 447 257 c 0,48,49
 440 250 440 250 420 250 c 0,50,51
 398 250 398 250 398 257 c 0,52,53
 398 265 398 265 388 259 c 128,-1,54
 378 253 378 253 330 253 c 2,55,-1
 283 253 l 1,56,-1
 271 167 l 2,57,58
 250 20 250 20 236 12 c 0,59,60
 228 7 228 7 206 7 c 2,61,-1
 185 7 l 1,62,-1
 188 27 l 2,63,64
 188 30 188 30 203 133.5 c 128,-1,65
 218 237 218 237 218 244 c 0,66,67
 218 250 218 250 174 250 c 2,68,-1
 136 250 l 1,69,-1
 53 248 l 1,70,-1
 52 263 l 2,71,72
 50 277 50 277 65 366 c 2,73,-1
 80 453 l 1,74,-1
 94 457 l 2,30,31
EndSplineSet
Validated: 33
Ligature2: "'liga' Standard Ligatures in Latin lookup 0 subtable" i l o space
Ligature2: "'liga' Standard Ligatures in Latin lookup 0 subtable" i l o
EndChar

StartChar: uniE010
Encoding: 57360 57360 115
Width: 548
GlyphClass: 3
Flags: W
LayerCount: 2
Fore
SplineSet
297 455 m 0,0,1
 305 462 305 462 322 462 c 0,2,3
 337 462 337 462 340 455 c 2,4,-1
 340 454 l 2,5,6
 341 452 341 452 341 451 c 0,7,8
 341 432 341 432 315 377 c 0,9,10
 307 358 307 358 297.5 351.5 c 128,-1,11
 288 345 288 345 271 345 c 0,12,13
 257 345 257 345 257 354 c 0,14,15
 257 366 257 366 273.5 407 c 128,-1,16
 290 448 290 448 297 455 c 0,0,1
417 372 m 0,17,18
 427 377 427 377 438 377 c 0,19,20
 457 377 457 377 460 369 c 0,21,22
 463 358 463 358 478.5 292 c 128,-1,23
 494 226 494 226 494 223 c 0,24,25
 494 219 494 219 480 214.5 c 128,-1,26
 466 210 466 210 455 210 c 0,27,28
 448 210 448 210 445 215 c 128,-1,29
 442 220 442 220 436 240 c 0,30,31
 427 267 427 267 421 267 c 0,32,33
 419 267 419 267 418 266 c 0,34,35
 411 263 411 263 357 259 c 0,36,37
 312 256 312 256 260 245 c 0,38,39
 103 212 103 212 85 212 c 0,40,41
 74 212 74 212 66 218 c 2,42,-1
 55 227 l 1,43,-1
 75 290 l 2,44,45
 95 353 95 353 102 358 c 0,46,47
 110 364 110 364 127 362 c 0,48,49
 140 361 140 361 142.5 359 c 128,-1,50
 145 357 145 357 144 347 c 0,51,52
 144 332 144 332 128 286 c 0,53,54
 116 253 116 253 116 239 c 0,55,56
 116 238 116 238 117 238 c 0,57,58
 119 238 119 238 169 248 c 0,59,60
 332 286 332 286 404 286 c 2,61,-1
 421 286 l 1,62,-1
 415 315 l 2,63,64
 410 336 410 336 410 353 c 0,65,66
 410 368 410 368 417 372 c 0,17,18
EndSplineSet
Validated: 1
Ligature2: "'liga' Standard Ligatures in Latin lookup 0 subtable" i n s a space
Ligature2: "'liga' Standard Ligatures in Latin lookup 0 subtable" i n s a
EndChar

StartChar: uniE011
Encoding: 57361 57361 116
Width: 685
GlyphClass: 3
Flags: W
LayerCount: 2
Fore
SplineSet
524 211 m 0,0,1
 515 225 515 225 510 225 c 128,-1,2
 505 225 505 225 481 199.5 c 128,-1,3
 457 174 457 174 445 155 c 0,4,5
 413 107 413 107 413 40 c 0,6,7
 413 -9 413 -9 432 -40 c 0,8,9
 441 -55 441 -55 449 -55 c 0,10,11
 462 -55 462 -55 487.5 -3 c 128,-1,12
 513 49 513 49 527 105 c 0,13,14
 535 135 535 135 535 161 c 0,15,16
 535 192 535 192 524 211 c 0,0,1
273 247 m 0,17,18
 255 257 255 257 253 257 c 0,19,20
 248 257 248 257 228 233 c 128,-1,21
 208 209 208 209 201 196 c 0,22,23
 192 176 192 176 192 162 c 0,24,25
 192 142 192 142 210 133 c 0,26,27
 222 127 222 127 235 127 c 0,28,29
 254 127 254 127 274 139 c 0,30,31
 314 164 314 164 314 195 c 0,32,33
 314 211 314 211 305.5 222 c 128,-1,34
 297 233 297 233 273 247 c 0,17,18
481 257 m 128,-1,36
 481 262 481 262 480 262 c 0,37,38
 477 262 477 262 475 256 c 0,39,40
 475 253 475 253 476 252 c 0,41,35
 481 252 481 252 481 257 c 128,-1,36
402 315 m 0,42,43
 386 324 386 324 383 324 c 0,44,45
 375 323 375 323 337.5 307.5 c 128,-1,46
 300 292 300 292 300 289 c 128,-1,47
 300 286 300 286 315 277 c 0,48,49
 367 247 367 247 373 210 c 2,50,-1
 375 191 l 1,51,-1
 388 213 l 2,52,53
 398 231 398 231 408 257.5 c 128,-1,54
 418 284 418 284 418 295 c 0,55,56
 418 305 418 305 402 315 c 0,42,43
570 374 m 0,57,58
 563 398 563 398 559 398 c 0,59,60
 556 400 556 400 543 387 c 128,-1,61
 530 374 530 374 508 365 c 0,62,63
 492 357 492 357 489 353.5 c 128,-1,64
 486 350 486 350 486 338 c 0,65,66
 486 327 486 327 489.5 321.5 c 128,-1,67
 493 316 493 316 507 305 c 0,68,69
 528 289 528 289 533 289 c 0,70,71
 539 289 539 289 557 305 c 0,72,73
 577 322 577 322 577 339 c 0,74,75
 577 348 577 348 570 374 c 0,57,58
347 353 m 2,76,77
 331 365 331 365 295 402 c 2,78,-1
 257 441 l 1,79,-1
 223 429 l 2,80,81
 124 393 124 393 124 372 c 0,82,83
 124 358 124 358 209 324 c 2,84,-1
 256 305 l 1,85,-1
 290 319 l 2,86,87
 335 336 335 336 343 338 c 2,88,-1
 361 344 l 1,89,-1
 347 353 l 2,76,77
501 503 m 0,90,91
 483 523 483 523 469 535 c 0,92,93
 459 543 459 543 456 544 c 128,-1,94
 453 545 453 545 451 540 c 0,95,96
 449 536 449 536 449 528 c 0,97,98
 449 504 449 504 466 436 c 0,99,100
 476 393 476 393 480 389 c 1,101,-1
 481 389 l 2,102,103
 485 389 485 389 495.5 400.5 c 128,-1,104
 506 412 506 412 511 421 c 0,105,106
 518 433 518 433 518 457 c 0,107,108
 518 483 518 483 501 503 c 0,90,91
439 581 m 0,109,110
 430 590 430 590 398 600 c 128,-1,111
 366 610 366 610 346 612 c 0,112,113
 340 613 340 613 331 613 c 0,114,115
 318 613 318 613 304 603 c 0,116,117
 281 588 281 588 281 557 c 0,118,119
 281 532 281 532 297 500 c 2,120,-1
 307 478 l 1,121,-1
 339 481 l 2,122,123
 347 482 347 482 359 482 c 0,124,125
 374 482 374 482 375 479 c 0,126,127
 375 478 375 478 375.5 478 c 128,-1,128
 376 478 376 478 376 477 c 0,129,130
 376 472 376 472 362.5 464.5 c 128,-1,131
 349 457 349 457 339 457 c 2,132,-1
 337 457 l 2,133,134
 325 459 325 459 325 454 c 128,-1,135
 325 449 325 449 353.5 420 c 128,-1,136
 382 391 382 391 399 379 c 2,137,-1
 415 368 l 1,138,-1
 412 386 l 2,139,140
 411 392 411 392 400 449 c 0,141,142
 392 487 392 487 392 510 c 128,-1,143
 392 533 392 533 400 552 c 0,144,145
 406 564 406 564 426 570 c 0,146,147
 441 574 441 574 442 577 c 0,148,149
 442 578 442 578 439 581 c 0,109,110
245 611 m 0,150,151
 255 621 255 621 299.5 631 c 128,-1,152
 344 641 344 641 370 641 c 2,153,-1
 373 641 l 2,154,155
 435 641 435 641 489 608 c 128,-1,156
 543 575 543 575 566 525 c 0,157,158
 578 496 578 496 582 490 c 0,159,160
 631 399 631 399 631 345 c 0,161,162
 631 324 631 324 622 311 c 128,-1,163
 613 298 613 298 585 279 c 2,164,-1
 558 261 l 1,165,-1
 571 243 l 2,166,167
 594 211 594 211 594 167 c 0,168,169
 594 164 594 164 593.5 157.5 c 128,-1,170
 593 151 593 151 593 147 c 0,171,172
 589 85 589 85 551 6 c 0,173,174
 532 -34 532 -34 512 -54 c 128,-1,175
 492 -74 492 -74 465 -81 c 0,176,177
 441 -87 441 -87 426 -87 c 0,178,179
 408 -87 408 -87 396 -78 c 0,180,181
 377 -65 377 -65 364 -30 c 128,-1,182
 351 5 351 5 351 42 c 0,183,184
 351 53 351 53 352 58 c 2,185,-1
 355 86 l 1,186,-1
 326 63 l 2,187,188
 260 11 260 11 212 -3 c 0,189,190
 168 -16 168 -16 112 -16 c 0,191,192
 97 -16 97 -16 89 -14 c 0,193,194
 56 -2 56 -2 56 29 c 0,195,196
 56 49 56 49 62.5 55.5 c 128,-1,197
 69 62 69 62 90 62 c 2,198,-1
 115 62 l 1,199,-1
 112 47 l 2,200,201
 111 44 111 44 111 39 c 0,202,203
 111 16 111 16 144 11 c 0,204,205
 149 10 149 10 156 10 c 0,206,207
 166 10 166 10 186 19 c 0,208,209
 207 29 207 29 243.5 56.5 c 128,-1,210
 280 84 280 84 297 102 c 2,211,-1
 314 119 l 1,212,-1
 272 109 l 2,213,214
 233 100 233 100 207 100 c 2,215,-1
 199 100 l 2,216,217
 176 102 176 102 169.5 104 c 128,-1,218
 163 106 163 106 153 118 c 0,219,220
 137 134 137 134 137 158 c 0,221,222
 137 201 137 201 183 250 c 2,223,-1
 210 278 l 1,224,-1
 170 294 l 2,225,226
 137 307 137 307 108.5 324.5 c 128,-1,227
 80 342 80 342 75 352 c 0,228,229
 70 360 70 360 70 371 c 0,230,231
 70 406 70 406 198 449 c 0,232,233
 243 465 243 465 243 468 c 0,234,235
 241 472 241 472 232 497 c 256,236,237
 223 522 223 522 223 548 c 0,238,239
 223 592 223 592 245 611 c 0,150,151
EndSplineSet
Validated: 2049
LCarets2: 4 0 0 0 0
Ligature2: "'liga' Standard Ligatures in Latin lookup 0 subtable" j a k i
Ligature2: "'liga' Standard Ligatures in Latin lookup 0 subtable" j a k i space
EndChar

StartChar: uniE012
Encoding: 57362 57362 117
Width: 486
GlyphClass: 3
Flags: W
LayerCount: 2
Fore
SplineSet
308 438 m 0,0,1
 292 446 292 446 271 446 c 0,2,3
 232 446 232 446 200 413 c 0,4,5
 168 381 168 381 168 325 c 0,6,7
 168 268 168 268 202 237 c 0,8,9
 224 217 224 217 245 217 c 0,10,11
 269 217 269 217 303 242 c 0,12,13
 359 282 359 282 359 350 c 0,14,15
 359 367 359 367 357 376 c 0,16,17
 349 420 349 420 308 438 c 0,0,1
238 468 m 0,18,19
 265 473 265 473 293 473 c 0,20,21
 340 473 340 473 353 464 c 0,22,23
 365 456 365 456 373 456 c 128,-1,24
 381 456 381 456 395.5 435.5 c 128,-1,25
 410 415 410 415 415 395 c 0,26,27
 419 383 419 383 419 364 c 0,28,29
 419 321 419 321 405 293 c 0,30,31
 381 246 381 246 346 224 c 2,32,-1
 323 210 l 1,33,-1
 336 206 l 2,34,35
 349 205 349 205 389.5 195.5 c 128,-1,36
 430 186 430 186 432 181 c 0,37,38
 433 179 433 179 427.5 175 c 128,-1,39
 422 171 422 171 414 167 c 0,40,41
 397 160 397 160 391 160 c 0,42,43
 389 160 389 160 352 167 c 0,44,45
 285 180 285 180 245 180 c 0,46,47
 180 180 180 180 124 152 c 0,48,49
 93 136 93 136 81 136 c 0,50,51
 80 136 80 136 77 136.5 c 128,-1,52
 74 137 74 137 73 137 c 0,53,54
 57 141 57 141 57 144 c 0,55,56
 57 152 57 152 88 168 c 128,-1,57
 119 184 119 184 147 190 c 0,58,59
 170 195 170 195 170 198 c 0,60,61
 170 200 170 200 157 209 c 0,62,63
 145 217 145 217 130 238 c 128,-1,64
 115 259 115 259 111 277 c 0,65,66
 107 289 107 289 107 312 c 0,67,68
 107 359 107 359 120 383 c 0,69,70
 155 450 155 450 238 468 c 0,18,19
EndSplineSet
Validated: 1
Ligature2: "'liga' Standard Ligatures in Latin lookup 0 subtable" j a n space
Ligature2: "'liga' Standard Ligatures in Latin lookup 0 subtable" j a n
EndChar

StartChar: uniE013
Encoding: 57363 57363 118
Width: 558
GlyphClass: 3
Flags: W
LayerCount: 2
Fore
SplineSet
305 331 m 0,0,1
 277 392 277 392 271 392 c 0,2,3
 267 392 267 392 249 367 c 0,4,5
 235 348 235 348 190 291 c 2,6,-1
 153 246 l 1,7,-1
 154 246 l 2,8,9
 165 246 165 246 250.5 251.5 c 128,-1,10
 336 257 336 257 336 258 c 0,11,12
 336 266 336 266 305 331 c 0,0,1
254 574 m 0,13,14
 257 578 257 578 255 578 c 0,15,16
 251 578 251 578 240 567 c 256,17,18
 229 556 229 556 227 540 c 0,19,20
 225 528 225 528 225 523 c 0,21,22
 225 476 225 476 271 464 c 0,23,24
 284 460 284 460 287.5 461 c 128,-1,25
 291 462 291 462 297 469 c 0,26,27
 306 480 306 480 306 501 c 128,-1,28
 306 522 306 522 297 535 c 0,29,30
 288 549 288 549 270 560 c 0,31,32
 263 564 263 564 258 568 c 128,-1,33
 253 572 253 572 254 574 c 0,13,14
254 634 m 0,34,35
 257 656 257 656 261 659.5 c 128,-1,36
 265 663 265 663 288 663 c 2,37,-1
 308 662 l 1,38,-1
 306 625 l 1,39,-1
 305 588 l 1,40,-1
 324 576 l 2,41,42
 342 563 342 563 352 541 c 2,43,-1
 362 519 l 1,44,-1
 392 521 l 2,45,46
 473 527 473 527 487 527 c 0,47,48
 500 527 500 527 500 524 c 0,49,50
 500 515 500 515 481.5 508 c 128,-1,51
 463 501 463 501 439 501 c 0,52,53
 360 501 360 501 360 489 c 0,54,55
 360 480 360 480 335.5 463.5 c 128,-1,56
 311 447 311 447 311 439 c 0,57,58
 311 438 311 438 333 401 c 0,59,60
 386 314 386 314 410 231 c 0,61,62
 419 200 419 200 419 172 c 0,63,64
 419 87 419 87 338 38 c 0,65,66
 310 22 310 22 296 22 c 0,67,68
 292 22 292 22 280 24 c 0,69,70
 270 27 270 27 270 32 c 0,71,72
 270 38 270 38 286 46 c 0,73,74
 357 80 357 80 357 163 c 0,75,76
 357 180 357 180 354 198 c 2,77,-1
 349 228 l 1,78,-1
 315 227 l 2,79,80
 291 227 291 227 187 223 c 0,81,82
 133 221 133 221 124 221 c 0,83,84
 90 221 90 221 90 231 c 0,85,86
 90 239 90 239 114 269 c 0,87,88
 238 428 238 428 238 433 c 0,89,90
 238 436 238 436 214 447 c 0,91,92
 191 458 191 458 182 477 c 2,93,-1
 172 495 l 1,94,-1
 126 496 l 2,95,96
 57 498 57 498 57 510 c 0,97,98
 57 514 57 514 89 519 c 128,-1,99
 121 524 121 524 144 524 c 0,100,101
 163 524 163 524 166.5 526 c 128,-1,102
 170 528 170 528 172 540 c 0,103,104
 178 573 178 573 226 598 c 0,105,106
 244 608 244 608 248 612.5 c 128,-1,107
 252 617 252 617 254 634 c 0,34,35
EndSplineSet
Validated: 1
Ligature2: "'liga' Standard Ligatures in Latin lookup 0 subtable" j e l o space
Ligature2: "'liga' Standard Ligatures in Latin lookup 0 subtable" j e l o
EndChar

StartChar: uniE014
Encoding: 57364 57364 119
Width: 521
GlyphClass: 3
Flags: W
LayerCount: 2
Fore
SplineSet
283 419 m 0,0,1
 251 430 251 430 235 430 c 0,2,3
 221 430 221 430 210 422 c 0,4,5
 176 398 176 398 176 357 c 2,6,-1
 176 350 l 1,7,8
 181 306 181 306 219 258 c 0,9,10
 242 229 242 229 251 229 c 128,-1,11
 260 229 260 229 294 262 c 0,12,13
 351 316 351 316 351 349 c 0,14,15
 351 371 351 371 333 390 c 128,-1,16
 315 409 315 409 283 419 c 0,0,1
213 452 m 0,17,18
 237 458 237 458 261 458 c 0,19,20
 311 458 311 458 359 431 c 0,21,22
 402 406 402 406 405 361 c 2,23,-1
 405 350 l 2,24,25
 405 331 405 331 396 313 c 0,26,27
 374 266 374 266 256 177 c 0,28,29
 117 72 117 72 117 18 c 0,30,31
 117 -12 117 -12 157 -33 c 0,32,33
 200 -55 200 -55 258 -55 c 0,34,35
 307 -55 307 -55 348 -39 c 128,-1,36
 389 -23 389 -23 403 4 c 0,37,38
 409 14 409 14 409 28 c 0,39,40
 409 60 409 60 376 97 c 0,41,42
 360 115 360 115 360 121 c 0,43,44
 360 126 360 126 373.5 132.5 c 128,-1,45
 387 139 387 139 396 139 c 0,46,47
 404 139 404 139 424.5 117 c 128,-1,48
 445 95 445 95 453 77 c 0,49,50
 464 53 464 53 464 32 c 0,51,52
 464 -3 464 -3 438 -27 c 0,53,54
 412 -52 412 -52 350 -68 c 128,-1,55
 288 -84 288 -84 226 -84 c 0,56,57
 178 -84 178 -84 147 -74 c 0,58,59
 109 -62 109 -62 85.5 -40 c 128,-1,60
 62 -18 62 -18 58 8 c 1,61,-1
 58 14 l 2,62,63
 58 73 58 73 180 168 c 2,64,-1
 214 195 l 1,65,-1
 197 210 l 2,66,67
 171 230 171 230 147.5 267 c 128,-1,68
 124 304 124 304 119 333 c 0,69,70
 118 337 118 337 118 347 c 0,71,72
 118 386 118 386 144 414 c 0,73,74
 162 432 162 432 173 438.5 c 128,-1,75
 184 445 184 445 213 452 c 0,17,18
EndSplineSet
Validated: 1
Ligature2: "'liga' Standard Ligatures in Latin lookup 0 subtable" j o space
Ligature2: "'liga' Standard Ligatures in Latin lookup 0 subtable" j o
EndChar

StartChar: uniE015
Encoding: 57365 57365 120
Width: 535
GlyphClass: 3
Flags: W
LayerCount: 2
Fore
SplineSet
417 439 m 0,0,1
 402 470 402 470 382 470 c 0,2,3
 378 470 378 470 364 466 c 0,4,5
 347 459 347 459 316 438 c 0,6,7
 290 420 290 420 244.5 375 c 128,-1,8
 199 330 199 330 199 323 c 0,9,10
 199 315 199 315 230 294 c 0,11,12
 283 258 283 258 329 258 c 0,13,14
 354 258 354 258 370 270 c 0,15,16
 390 284 390 284 404.5 316.5 c 128,-1,17
 419 349 419 349 423 387 c 0,18,19
 424 395 424 395 424 408 c 0,20,21
 424 424 424 424 417 439 c 0,0,1
362 492 m 0,22,23
 388 498 388 498 405 498 c 0,24,25
 443 498 443 498 464 468 c 0,26,27
 481 442 481 442 481 400 c 0,28,29
 481 356 481 356 462.5 314 c 128,-1,30
 444 272 444 272 415 255 c 0,31,32
 398 245 398 245 362.5 237.5 c 128,-1,33
 327 230 327 230 299 230 c 0,34,35
 273 230 273 230 239 240.5 c 128,-1,36
 205 251 205 251 184 265 c 0,37,38
 163 280 163 280 161 280 c 2,39,-1
 129 239 l 1,40,-1
 98 198 l 1,41,-1
 77 199 l 2,42,43
 57 200 57 200 55 208 c 0,44,45
 55 217 55 217 88 266 c 0,46,47
 122 316 122 316 122 319 c 0,48,49
 122 321 122 321 106 342 c 0,50,51
 92 360 92 360 73 396.5 c 128,-1,52
 54 433 54 433 54 443 c 0,53,54
 54 449 54 449 66.5 454.5 c 128,-1,55
 79 460 79 460 90 460 c 0,56,57
 95 460 95 460 97 459 c 0,58,59
 104 457 104 457 113 437 c 0,60,61
 120 421 120 421 141 390 c 2,62,-1
 159 362 l 1,63,-1
 198 398 l 2,64,65
 265 460 265 460 311 479 c 0,66,67
 316 481 316 481 362 492 c 0,22,23
EndSplineSet
Validated: 1
Ligature2: "'liga' Standard Ligatures in Latin lookup 0 subtable" k a l a space
Ligature2: "'liga' Standard Ligatures in Latin lookup 0 subtable" k a l a
EndChar

StartChar: uniE016
Encoding: 57366 57366 121
Width: 714
GlyphClass: 3
Flags: W
LayerCount: 2
Fore
SplineSet
324 618 m 0,0,1
 331 625 331 625 350 623 c 2,2,-1
 371 621 l 1,3,-1
 374 578 l 2,4,5
 376 556 376 556 376 551 c 0,6,7
 376 534 376 534 369.5 529 c 128,-1,8
 363 524 363 524 343 524 c 0,9,10
 324 524 324 524 322 534 c 0,11,12
 319 546 319 546 319 574 c 0,13,14
 319 613 319 613 324 618 c 0,0,1
473 547 m 2,15,16
 509 580 509 580 517.5 586 c 128,-1,17
 526 592 526 592 541 592 c 0,18,19
 565 592 565 592 565 587 c 0,20,21
 565 578 565 578 524 540 c 0,22,23
 476 493 476 493 456 493 c 0,24,25
 447 493 447 493 439 497 c 2,26,-1
 425 502 l 1,27,-1
 473 547 l 2,15,16
129 538 m 0,28,29
 129 543 129 543 143 549.5 c 128,-1,30
 157 556 157 556 164 556 c 0,31,32
 172 556 172 556 225 526.5 c 128,-1,33
 278 497 278 497 278 492 c 128,-1,34
 278 487 278 487 264 480.5 c 128,-1,35
 250 474 250 474 240 474 c 0,36,37
 228 474 228 474 178.5 502.5 c 128,-1,38
 129 531 129 531 129 538 c 0,28,29
477 396 m 0,39,40
 477 407 477 407 474.5 409 c 128,-1,41
 472 411 472 411 460 410 c 0,42,43
 353 406 353 406 264 400 c 0,44,45
 210 397 210 397 210 390 c 0,46,47
 210 379 210 379 222.5 351.5 c 128,-1,48
 235 324 235 324 251 301 c 0,49,50
 287 246 287 246 332 230 c 0,51,52
 346 226 346 226 349 226 c 0,53,54
 356 226 356 226 370 232 c 0,55,56
 407 246 407 246 442 299.5 c 128,-1,57
 477 353 477 353 477 396 c 0,39,40
355 435 m 0,58,59
 378 437 378 437 518 437 c 0,60,61
 647 437 647 437 651 435 c 0,62,63
 665 429 665 429 646 417 c 0,64,65
 635 410 635 410 602 410 c 2,66,-1
 585 410 l 1,67,-1
 536 411 l 1,68,-1
 534 395 l 2,69,70
 534 390 534 390 532 379 c 128,-1,71
 530 368 530 368 529 364 c 0,72,73
 526 345 526 345 508.5 312 c 128,-1,74
 491 279 491 279 473 260 c 0,75,76
 431 214 431 214 360 203 c 0,77,78
 338 200 338 200 322 200 c 0,79,80
 292 200 292 200 265 214 c 0,81,82
 233 231 233 231 200 276.5 c 128,-1,83
 167 322 167 322 155 367 c 2,84,-1
 150 388 l 1,85,-1
 100 388 l 2,86,87
 55 388 55 388 55 392 c 0,88,89
 55 393 55 393 57 395 c 0,90,91
 74 415 74 415 117 415 c 0,92,93
 149 415 149 415 166 420 c 0,94,95
 182 425 182 425 190 423 c 2,96,-1
 197 423 l 2,97,98
 226 423 226 423 263 427 c 0,99,100
 302 431 302 431 355 435 c 0,58,59
EndSplineSet
Validated: 1
Ligature2: "'liga' Standard Ligatures in Latin lookup 0 subtable" k a l a m a
Ligature2: "'liga' Standard Ligatures in Latin lookup 0 subtable" k a l a m a space
EndChar

StartChar: uniE017
Encoding: 57367 57367 122
Width: 528
GlyphClass: 3
Flags: W
LayerCount: 2
Fore
SplineSet
280 484 m 0,0,1
 289 487 289 487 309 487 c 0,2,3
 323 487 323 487 331.5 481.5 c 128,-1,4
 340 476 340 476 364 449 c 0,5,6
 477 326 477 326 477 250 c 0,7,8
 477 238 477 238 474 226 c 0,9,10
 467 202 467 202 451.5 189 c 128,-1,11
 436 176 436 176 407 171 c 0,12,13
 381 167 381 167 379 167 c 0,14,15
 370 167 370 167 358 173 c 0,16,17
 345 178 345 178 345 186 c 0,18,19
 345 201 345 201 379 201 c 2,20,-1
 386 201 l 2,21,22
 388 201 388 201 390 200.5 c 128,-1,23
 392 200 392 200 393 200 c 0,24,25
 419 200 419 200 419 241 c 0,26,27
 419 287 419 287 360 366 c 2,28,-1
 331 404 l 1,29,-1
 328 365 l 2,30,31
 324 299 324 299 297 246 c 0,32,33
 275 201 275 201 248.5 182.5 c 128,-1,34
 222 164 222 164 172 157 c 0,35,36
 151 154 151 154 137 154 c 0,37,38
 103 154 103 154 73 181 c 0,39,40
 57 196 57 196 57 202 c 0,41,42
 57 210 57 210 79 217 c 0,43,44
 90 220 90 220 93.5 219 c 128,-1,45
 97 218 97 218 106 210 c 0,46,47
 138 180 138 180 167 180 c 0,48,49
 184 180 184 180 206 202 c 0,50,51
 239 235 239 235 253 282 c 128,-1,52
 267 329 267 329 268 409 c 0,53,54
 269 463 269 463 270.5 472.5 c 128,-1,55
 272 482 272 482 280 484 c 0,0,1
EndSplineSet
Validated: 1
Ligature2: "'liga' Standard Ligatures in Latin lookup 0 subtable" k a m a space
Ligature2: "'liga' Standard Ligatures in Latin lookup 0 subtable" k a m a
EndChar

StartChar: uniE018
Encoding: 57368 57368 123
Width: 590
GlyphClass: 3
Flags: W
LayerCount: 2
Fore
SplineSet
168 395 m 0,0,1
 156 404 156 404 136 413 c 0,2,3
 125 418 125 418 122 417.5 c 128,-1,4
 119 417 119 417 115 411 c 0,5,6
 111 404 111 404 111 393 c 0,7,8
 111 374 111 374 123 351 c 128,-1,9
 135 328 135 328 154 312 c 0,10,11
 169 299 169 299 199 282.5 c 128,-1,12
 229 266 229 266 237 266 c 0,13,14
 243 266 243 266 239 283 c 0,15,16
 234 309 234 309 213 343 c 128,-1,17
 192 377 192 377 168 395 c 0,0,1
454 422 m 0,18,19
 442 428 442 428 433 428 c 128,-1,20
 424 428 424 428 418 422 c 0,21,22
 416 421 416 421 406.5 411.5 c 128,-1,23
 397 402 397 402 390 396 c 0,24,25
 372 380 372 380 353 346 c 128,-1,26
 334 312 334 312 326 279 c 0,27,28
 322 266 322 266 322 259 c 0,29,30
 322 251 322 251 334 251 c 0,31,32
 336 251 336 251 341.5 251.5 c 128,-1,33
 347 252 347 252 351 252 c 0,34,35
 394 255 394 255 435.5 297.5 c 128,-1,36
 477 340 477 340 477 380 c 0,37,38
 477 410 477 410 454 422 c 0,18,19
436 452 m 0,39,40
 454 454 454 454 461 454 c 0,41,42
 512 454 512 454 529 418 c 0,43,44
 536 404 536 404 536 385 c 0,45,46
 536 351 536 351 513 315.5 c 128,-1,47
 490 280 490 280 453 258 c 0,48,49
 430 244 430 244 373 233 c 2,50,-1
 316 223 l 1,51,-1
 313 205 l 2,52,53
 310 188 310 188 310 143 c 0,54,55
 310 76 310 76 315 18 c 0,56,57
 320 -35 320 -35 320 -43 c 0,58,59
 320 -53 320 -53 317.5 -56.5 c 128,-1,60
 315 -60 315 -60 307 -62 c 0,61,62
 305 -62 305 -62 303 -63 c 0,63,64
 290 -68 290 -68 284 -68 c 0,65,66
 274 -68 274 -68 268 -53.5 c 128,-1,67
 262 -39 262 -39 252 6 c 0,68,69
 244 44 244 44 244 131 c 2,70,-1
 244 225 l 1,71,-1
 230 228 l 2,72,73
 176 238 176 238 129.5 268 c 128,-1,74
 83 298 83 298 64 336 c 0,75,76
 54 355 54 355 54 382 c 0,77,78
 54 406 54 406 63 419 c 0,79,80
 80 443 80 443 134 444 c 0,81,82
 171 444 171 444 194 433 c 0,83,84
 213 424 213 424 237 400.5 c 128,-1,85
 261 377 261 377 271 359 c 0,86,87
 280 343 280 343 283 343 c 0,88,89
 287 343 287 343 292 357 c 128,-1,90
 297 371 297 371 328 402 c 0,91,92
 352 426 352 426 374 436.5 c 128,-1,93
 396 447 396 447 436 452 c 0,39,40
EndSplineSet
Validated: 1
Ligature2: "'liga' Standard Ligatures in Latin lookup 0 subtable" k a s i space
Ligature2: "'liga' Standard Ligatures in Latin lookup 0 subtable" k a s i
EndChar

StartChar: uniE019
Encoding: 57369 57369 124
Width: 392
GlyphClass: 3
Flags: W
LayerCount: 2
Fore
SplineSet
288 587 m 0,0,1
 298 591 298 591 312 591 c 0,2,3
 322 591 322 591 325 588.5 c 128,-1,4
 328 586 328 586 332 575 c 0,5,6
 336 559 336 559 336 532 c 2,7,-1
 336 521 l 2,8,9
 335 488 335 488 320 458 c 0,10,11
 307 433 307 433 277.5 402.5 c 128,-1,12
 248 372 248 372 219 354 c 0,13,14
 177 329 177 329 177 326 c 0,15,16
 177 324 177 324 192 321 c 0,17,18
 230 311 230 311 260.5 284.5 c 128,-1,19
 291 258 291 258 304 224 c 0,20,21
 321 180 321 180 321 129 c 0,22,23
 321 65 321 65 292 -2 c 0,24,25
 285 -19 285 -19 280.5 -24 c 128,-1,26
 276 -29 276 -29 265 -31 c 0,27,28
 248 -35 248 -35 239 -29 c 2,29,-1
 229 -24 l 1,30,-1
 243 16 l 2,31,32
 253 44 253 44 255 59 c 128,-1,33
 257 74 257 74 257 117 c 0,34,35
 257 176 257 176 246 205 c 0,36,37
 224 259 224 259 178 282 c 0,38,39
 150 297 150 297 124 297 c 0,40,41
 115 297 115 297 115 293 c 0,42,43
 115 284 115 284 110 244 c 0,44,45
 104 201 104 201 97 195 c 128,-1,46
 90 189 90 189 74 189 c 0,47,48
 56 189 56 189 53 196 c 2,49,-1
 53 209 l 2,50,51
 53 252 53 252 56 330 c 0,52,53
 60 416 60 416 62.5 437 c 128,-1,54
 65 458 65 458 71 462 c 0,55,56
 81 467 81 467 99 467 c 0,57,58
 110 467 110 467 113 464 c 0,59,60
 117 460 117 460 119 398 c 2,61,-1
 121 335 l 1,62,-1
 153 354 l 2,63,64
 182 371 182 371 224 411 c 0,65,66
 258 445 258 445 269.5 467.5 c 128,-1,67
 281 490 281 490 281 525 c 2,68,-1
 281 543 l 2,69,70
 280 555 280 555 280 570 c 0,71,72
 280 583 280 583 288 587 c 0,0,1
EndSplineSet
Validated: 1
Ligature2: "'liga' Standard Ligatures in Latin lookup 0 subtable" k e n
Ligature2: "'liga' Standard Ligatures in Latin lookup 0 subtable" k e n space
EndChar

StartChar: uniE01A
Encoding: 57370 57370 125
Width: 563
GlyphClass: 3
Flags: W
LayerCount: 2
Fore
SplineSet
288 568 m 2,0,1
 288 574 288 574 288.5 584 c 128,-1,2
 289 594 289 594 289 598 c 2,3,-1
 288 610 l 1,4,-1
 283 609 l 2,5,6
 278 608 278 608 269 606 c 128,-1,7
 260 604 260 604 252 602 c 2,8,-1
 217 596 l 1,9,-1
 215 559 l 2,10,11
 213 535 213 535 213 529 c 0,12,13
 213 526 213 526 214 521 c 2,14,-1
 214 519 l 2,15,16
 217 518 217 518 221 518 c 0,17,18
 233 518 233 518 251 521 c 2,19,-1
 286 526 l 1,20,-1
 288 568 l 2,0,1
399 581 m 2,21,22
 399 624 399 624 395 627 c 0,23,24
 389 631 389 631 366 626 c 2,25,-1
 341 621 l 1,26,-1
 342 578 l 2,27,28
 342 536 342 536 345 533 c 0,29,30
 346 532 346 532 373 536 c 2,31,-1
 399 540 l 1,32,-1
 399 581 l 2,21,22
234 620 m 0,33,34
 409 655 409 655 423 655 c 0,35,36
 441 655 441 655 447 640.5 c 128,-1,37
 453 626 453 626 455 579 c 0,38,39
 456 567 456 567 456 549 c 0,40,41
 456 524 456 524 447 519 c 128,-1,42
 438 514 438 514 402 513 c 0,43,44
 397 513 397 513 394 513 c 0,45,46
 348 513 348 513 345 510 c 0,47,48
 343 508 343 508 341 482 c 2,49,-1
 338 456 l 1,50,-1
 351 456 l 2,51,52
 367 456 367 456 396 440 c 128,-1,53
 425 424 425 424 445 404 c 0,54,55
 509 340 509 340 509 247 c 0,56,57
 509 178 509 178 473 117 c 0,58,59
 438 58 438 58 362.5 1.5 c 128,-1,60
 287 -55 287 -55 223 -71 c 0,61,62
 158 -86 158 -86 115 -86 c 0,63,64
 95 -86 95 -86 95 -82 c 0,65,66
 95 -71 95 -71 112 -64.5 c 128,-1,67
 129 -58 129 -58 151 -58 c 0,68,69
 182 -58 182 -58 217 -41 c 0,70,71
 272 -15 272 -15 326.5 31.5 c 128,-1,72
 381 78 381 78 406 119 c 0,73,74
 442 180 442 180 442 242 c 0,75,76
 442 324 442 324 381 385 c 0,77,78
 346 420 346 420 318 420 c 0,79,80
 307 420 307 420 303 428 c 0,81,82
 299 433 299 433 296 433 c 128,-1,83
 293 433 293 433 278 427 c 0,84,85
 184 391 184 391 157 252 c 0,86,87
 153 230 153 230 150.5 225.5 c 128,-1,88
 148 221 148 221 138 219 c 0,89,90
 123 216 123 216 115 216 c 0,91,92
 104 216 104 216 98 223.5 c 128,-1,93
 92 231 92 231 81 255 c 0,94,95
 54 315 54 315 54 322 c 0,96,97
 54 325 54 325 58 329 c 0,98,99
 67 336 67 336 80 337 c 0,100,101
 90 339 90 339 94 337.5 c 128,-1,102
 98 336 98 336 105 327 c 2,103,-1
 115 314 l 1,104,-1
 127 340 l 2,105,106
 138 363 138 363 161.5 389 c 128,-1,107
 185 415 185 415 206 427 c 0,108,109
 226 439 226 439 253 444 c 2,110,-1
 282 450 l 1,111,-1
 283 476 l 2,112,113
 283 479 283 479 283.5 483.5 c 128,-1,114
 284 488 284 488 284 489 c 0,115,116
 284 501 284 501 269 501 c 0,117,118
 261 501 261 501 218 496 c 0,119,120
 194 493 194 493 184 493 c 0,121,122
 173 493 173 493 169 497 c 0,123,124
 162 503 162 503 162 559 c 0,125,126
 162 608 162 608 168 615 c 0,127,128
 177 627 177 627 198 627 c 0,129,130
 207 627 207 627 212 622 c 0,131,132
 218 616 218 616 234 620 c 0,33,34
EndSplineSet
Validated: 1
Ligature2: "'liga' Standard Ligatures in Latin lookup 0 subtable" k e p e k e n space
Ligature2: "'liga' Standard Ligatures in Latin lookup 0 subtable" k e p e k e n
EndChar

StartChar: uniE01B
Encoding: 57371 57371 126
Width: 451
GlyphClass: 3
Flags: W
LayerCount: 2
Fore
SplineSet
185 421 m 0,0,1
 164 431 164 431 155 431 c 0,2,3
 147 431 147 431 135 418 c 0,4,5
 112 392 112 392 112 350 c 0,6,7
 112 297 112 297 144 254 c 0,8,9
 155 239 155 239 179 227.5 c 128,-1,10
 203 216 203 216 223 216 c 0,11,12
 270 216 270 216 305 256.5 c 128,-1,13
 340 297 340 297 340 352 c 0,14,15
 340 402 340 402 322 413 c 0,16,17
 321 414 321 414 318 414 c 0,18,19
 305 414 305 414 291 379 c 0,20,21
 278 348 278 348 251 348 c 0,22,23
 227 348 227 348 227 371 c 0,24,25
 227 382 227 382 214 397.5 c 128,-1,26
 201 413 201 413 185 421 c 0,0,1
266 686 m 0,27,28
 274 691 274 691 297 691 c 2,29,-1
 319 691 l 1,30,-1
 316 668 l 2,31,32
 291 470 291 470 291 447 c 0,33,34
 291 439 291 439 300 439 c 0,35,36
 302 439 302 439 324 441 c 0,37,38
 333 442 333 442 345 442 c 0,39,40
 358 442 358 442 371 432 c 0,41,42
 399 408 399 408 399 357 c 0,43,44
 399 291 399 291 357 245 c 0,45,46
 322 207 322 207 246 193 c 0,47,48
 216 187 216 187 194 187 c 0,49,50
 161 187 161 187 129 203 c 0,51,52
 110 212 110 212 90 235.5 c 128,-1,53
 70 259 70 259 63 279 c 0,54,55
 52 312 52 312 52 342 c 0,56,57
 52 398 52 398 82 428 c 0,58,59
 100 446 100 446 128 452 c 0,60,61
 154 458 154 458 180 458 c 128,-1,62
 206 458 206 458 217 452 c 0,63,64
 221 449 221 449 224 449 c 0,65,66
 230 449 230 449 236 519 c 0,67,68
 250 675 250 675 266 686 c 0,27,28
EndSplineSet
Validated: 1
Ligature2: "'liga' Standard Ligatures in Latin lookup 0 subtable" k i l i space
Ligature2: "'liga' Standard Ligatures in Latin lookup 0 subtable" k i l i
EndChar

StartChar: uniE01C
Encoding: 57372 57372 127
Width: 472
GlyphClass: 3
Flags: W
LayerCount: 2
Fore
SplineSet
345 376 m 2,0,1
 301 402 301 402 260 443 c 2,2,-1
 231 472 l 1,3,-1
 208 443 l 2,4,5
 186 414 186 414 147 373 c 2,6,-1
 107 332 l 1,7,-1
 137 310 l 2,8,9
 202 265 202 265 243 225 c 2,10,-1
 264 205 l 1,11,-1
 283 238 l 2,12,13
 316 292 316 292 333 318 c 2,14,-1
 364 365 l 1,15,-1
 345 376 l 2,0,1
212 520 m 0,16,17
 221 530 221 530 239 530 c 0,18,19
 252 530 252 530 257 527 c 128,-1,20
 262 524 262 524 270 511 c 0,21,22
 282 492 282 492 319.5 457 c 128,-1,23
 357 422 357 422 386 402 c 0,24,25
 418 381 418 381 418 373 c 0,26,27
 418 363 418 363 358.5 255 c 128,-1,28
 299 147 299 147 243 55 c 0,29,30
 185 -39 185 -39 174.5 -54 c 128,-1,31
 164 -69 164 -69 152 -71 c 0,32,33
 148 -72 148 -72 139 -72 c 0,34,35
 109 -72 109 -72 109 -62 c 0,36,37
 109 -55 109 -55 127 -24 c 0,38,39
 133 -14 133 -14 185 75 c 128,-1,40
 237 164 237 164 247 178 c 2,41,-1
 253 189 l 1,42,-1
 237 186 l 2,43,44
 234 185 234 185 229 185 c 0,45,46
 220 185 220 185 179 218 c 0,47,48
 143 247 143 247 98 282 c 0,49,50
 64 308 64 308 57 315 c 0,51,52
 54 320 54 320 54 324 c 0,53,54
 54 336 54 336 88 373 c 0,55,56
 97 383 97 383 212 520 c 0,16,17
EndSplineSet
Validated: 1
Ligature2: "'liga' Standard Ligatures in Latin lookup 0 subtable" k i w e n
Ligature2: "'liga' Standard Ligatures in Latin lookup 0 subtable" k i w e n space
EndChar

StartChar: uniE01D
Encoding: 57373 57373 128
Width: 575
GlyphClass: 3
Flags: W
LayerCount: 2
Fore
SplineSet
212 584 m 0,0,1
 249 592 249 592 270 592 c 0,2,3
 316 592 316 592 349 556 c 0,4,5
 377 525 377 525 377 488 c 0,6,7
 377 480 377 480 376 476 c 0,8,9
 374 470 374 470 374.5 467 c 128,-1,10
 375 464 375 464 377 463 c 128,-1,11
 379 462 379 462 384 462 c 0,12,13
 414 462 414 462 448.5 436 c 128,-1,14
 483 410 483 410 499 375 c 0,15,16
 522 326 522 326 522 263 c 0,17,18
 522 137 522 137 416 34 c 0,19,20
 358 -23 358 -23 290 -51 c 0,21,22
 266 -61 266 -61 217.5 -72 c 128,-1,23
 169 -83 169 -83 148 -83 c 0,24,25
 132 -83 132 -83 132 -77 c 128,-1,26
 132 -71 132 -71 148.5 -62.5 c 128,-1,27
 165 -54 165 -54 186 -53 c 0,28,29
 236 -49 236 -49 301.5 -2 c 128,-1,30
 367 45 367 45 408 107 c 0,31,32
 457 182 457 182 457 266 c 0,33,34
 457 276 457 276 455 294 c 0,35,36
 439 389 439 389 385 420 c 0,37,38
 368 429 368 429 363 429 c 0,39,40
 359 429 359 429 344 424 c 0,41,42
 323 417 323 417 314 417 c 0,43,44
 306 417 306 417 306 427 c 128,-1,45
 306 437 306 437 313 447 c 0,46,47
 319 456 319 456 319 477 c 0,48,49
 319 506 319 506 309 523 c 0,50,51
 287 555 287 555 246 562 c 0,52,53
 240 563 240 563 231 563 c 0,54,55
 219 563 219 563 200 550 c 0,56,57
 137 509 137 509 137 441 c 0,58,59
 137 433 137 433 139 419 c 0,60,61
 148 371 148 371 172 368 c 0,62,63
 181 367 181 367 192 356.5 c 128,-1,64
 203 346 203 346 203 338 c 0,65,66
 203 326 203 326 155 325 c 2,67,-1
 124 323 l 1,68,-1
 116 306 l 2,69,70
 108 288 108 288 108 272 c 0,71,72
 108 244 108 244 128 221 c 128,-1,73
 148 198 148 198 181 190 c 0,74,75
 183 189 183 189 187 189 c 0,76,77
 215 189 215 189 267 254 c 0,78,79
 274 264 274 264 295 264 c 0,80,81
 315 264 315 264 315 256 c 0,82,83
 315 247 315 247 299 227 c 0,84,85
 258 173 258 173 171 163 c 0,86,87
 169 163 169 163 164.5 162.5 c 128,-1,88
 160 162 160 162 158 162 c 0,89,90
 115 162 115 162 84.5 191 c 128,-1,91
 54 220 54 220 54 260 c 0,92,93
 54 307 54 307 82 339 c 2,94,-1
 100 359 l 1,95,-1
 90 380 l 2,96,97
 78 406 78 406 78 435 c 0,98,99
 78 489 78 489 116 530 c 0,100,101
 153 571 153 571 212 584 c 0,0,1
EndSplineSet
Validated: 1
Ligature2: "'liga' Standard Ligatures in Latin lookup 0 subtable" k o space
Ligature2: "'liga' Standard Ligatures in Latin lookup 0 subtable" k o
EndChar

StartChar: uniE01E
Encoding: 57374 57374 129
Width: 436
GlyphClass: 3
Flags: W
LayerCount: 2
Fore
SplineSet
148 578 m 0,0,1
 167 596 167 596 175 601 c 128,-1,2
 183 606 183 606 194 606 c 0,3,4
 217 606 217 606 217 599 c 128,-1,5
 217 592 217 592 202 577 c 0,6,7
 162 535 162 535 141 476 c 0,8,9
 130 443 130 443 130 395 c 128,-1,10
 130 347 130 347 148 275 c 0,11,12
 166 206 166 206 166 168 c 0,13,14
 166 138 166 138 155 113 c 0,15,16
 139 79 139 79 109 59 c 0,17,18
 92 48 92 48 77 48 c 0,19,20
 66 48 66 48 58 54 c 0,21,22
 51 59 51 59 67 70 c 0,23,24
 85 82 85 82 95 103 c 0,25,26
 107 126 107 126 107 156 c 0,27,28
 107 195 107 195 88 265 c 0,29,30
 69 340 69 340 69 380 c 0,31,32
 69 502 69 502 148 578 c 0,0,1
313 581 m 0,33,34
 336 602 336 602 356 602 c 0,35,36
 378 602 378 602 378 594 c 0,37,38
 378 588 378 588 366 576 c 0,39,40
 334 541 334 541 322 504 c 0,41,42
 312 472 312 472 312 445 c 0,43,44
 312 407 312 407 330 332 c 0,45,46
 348 256 348 256 348 216 c 0,47,48
 348 118 348 118 293 66 c 0,49,50
 277 50 277 50 258 50 c 0,51,52
 248 50 248 50 239 54 c 0,53,54
 234 56 234 56 234.5 59 c 128,-1,55
 235 62 235 62 245 73 c 0,56,57
 258 87 258 87 274 120 c 0,58,59
 283 138 283 138 285 149 c 128,-1,60
 287 160 287 160 287 189 c 2,61,-1
 287 208 l 2,62,63
 287 266 287 266 272 323 c 0,64,65
 255 393 255 393 255 438 c 0,66,67
 255 466 255 466 261 487 c 0,68,69
 279 548 279 548 313 581 c 0,33,34
EndSplineSet
Validated: 1
Ligature2: "'liga' Standard Ligatures in Latin lookup 0 subtable" k o n space
Ligature2: "'liga' Standard Ligatures in Latin lookup 0 subtable" k o n
EndChar

StartChar: uniE01F
Encoding: 57375 57375 130
Width: 598
GlyphClass: 3
Flags: W
LayerCount: 2
Fore
SplineSet
289 293 m 2,0,1
 251 295 251 295 228 295 c 2,2,-1
 200 295 l 1,3,4
 168 253 168 253 152 231 c 1,5,-1
 171 234 l 2,6,7
 272 250 272 250 316 250 c 0,8,9
 338 250 338 250 338 253 c 0,10,11
 338 254 338 254 330 272 c 2,12,-1
 324 290 l 1,13,-1
 289 293 l 2,0,1
280 355 m 2,14,15
 258 386 258 386 254 386 c 128,-1,16
 250 386 250 386 236 358.5 c 128,-1,17
 222 331 222 331 222 325 c 0,18,19
 222 323 222 323 245 323 c 2,20,-1
 263 323 l 1,21,-1
 302 325 l 1,22,-1
 280 355 l 2,14,15
224 452 m 0,23,24
 232 458 232 458 251 458 c 128,-1,25
 270 458 270 458 270 450 c 0,26,27
 270 443 270 443 303 410 c 128,-1,28
 336 377 336 377 356 348 c 2,29,-1
 376 318 l 1,30,-1
 411 318 l 2,31,32
 459 318 459 318 490 345 c 0,33,34
 500 354 500 354 515 354 c 0,35,36
 528 354 528 354 538 347 c 0,37,38
 542 344 542 344 543 342 c 128,-1,39
 544 340 544 340 542 338 c 128,-1,40
 540 336 540 336 533 330 c 0,41,42
 509 310 509 310 438 297 c 2,43,-1
 393 290 l 1,44,-1
 401 265 l 2,45,46
 416 223 416 223 416 176 c 0,47,48
 416 165 416 165 414 145 c 0,49,50
 401 64 401 64 320 2 c 0,51,52
 291 -20 291 -20 272 -20 c 0,53,54
 264 -20 264 -20 253 -17 c 0,55,56
 243 -14 243 -14 243 -10 c 0,57,58
 243 -4 243 -4 266 11 c 0,59,60
 355 71 355 71 355 169 c 0,61,62
 355 185 355 185 354 193 c 0,63,64
 352 215 352 215 348 221 c 128,-1,65
 344 227 344 227 326 227 c 0,66,67
 310 227 310 227 274 224 c 0,68,69
 152 214 152 214 91 198 c 0,70,71
 89 197 89 197 85 197 c 0,72,73
 78 197 78 197 78 203 c 0,74,75
 78 214 78 214 93 230 c 0,76,77
 133 275 133 275 133 289 c 0,78,79
 133 292 133 292 105 286 c 0,80,81
 93 283 93 283 82 283 c 0,82,83
 56 283 56 283 56 293 c 0,84,85
 56 298 56 298 105 307 c 2,86,-1
 154 316 l 1,87,-1
 174 350 l 2,88,89
 189 375 189 375 205 415 c 0,90,91
 219 448 219 448 224 452 c 0,23,24
EndSplineSet
Validated: 1
Ligature2: "'liga' Standard Ligatures in Latin lookup 0 subtable" k u l e
Ligature2: "'liga' Standard Ligatures in Latin lookup 0 subtable" k u l e space
EndChar

StartChar: uniE020
Encoding: 57376 57376 131
Width: 578
GlyphClass: 3
Flags: W
LayerCount: 2
Fore
SplineSet
302 509 m 0,0,1
 293 515 293 515 289 515 c 0,2,3
 284 515 284 515 272 500 c 0,4,5
 255 480 255 480 255 460 c 0,6,7
 255 436 255 436 277 420 c 0,8,9
 286 414 286 414 294 414 c 128,-1,10
 302 414 302 414 314 427 c 0,11,12
 325 439 325 439 325 461 c 0,13,14
 325 492 325 492 302 509 c 0,0,1
276 541 m 0,15,16
 304 548 304 548 313 548 c 0,17,18
 331 548 331 548 352 527 c 0,19,20
 383 496 383 496 383 464 c 0,21,22
 383 441 383 441 367 422 c 0,23,24
 347 398 347 398 299 391 c 0,25,26
 282 388 282 388 269 388 c 0,27,28
 237 388 237 388 218 410 c 0,29,30
 199 430 199 430 199 457 c 0,31,32
 199 485 199 485 220 508.5 c 128,-1,33
 241 532 241 532 276 541 c 0,15,16
181 338 m 0,34,35
 171 345 171 345 161 345 c 0,36,37
 150 345 150 345 138 331 c 0,38,39
 109 296 109 296 109 263 c 0,40,41
 109 244 109 244 120 231 c 0,42,43
 130 219 130 219 145 219 c 0,44,45
 168 219 168 219 194 248 c 0,46,47
 208 265 208 265 208 285 c 0,48,49
 208 323 208 323 181 338 c 0,34,35
165 370 m 128,-1,51
 167 371 167 371 173 371 c 0,52,53
 201 371 201 371 225 360 c 0,54,55
 258 344 258 344 265 301 c 0,56,57
 265 300 265 300 265.5 297 c 128,-1,58
 266 294 266 294 266 293 c 0,59,60
 266 274 266 274 255 253.5 c 128,-1,61
 244 233 244 233 227 222 c 0,62,63
 211 211 211 211 177.5 201.5 c 128,-1,64
 144 192 144 192 120 192 c 0,65,66
 90 192 90 192 72.5 209.5 c 128,-1,67
 55 227 55 227 55 255 c 0,68,69
 55 281 55 281 69 308 c 0,70,71
 83 334 83 334 97 346.5 c 128,-1,72
 111 359 111 359 135 363 c 0,73,50
 163 369 163 369 165 370 c 128,-1,51
431 330 m 0,74,75
 407 339 407 339 398 339 c 128,-1,76
 389 339 389 339 381 331 c 0,77,78
 360 308 360 308 360 279 c 0,79,80
 360 257 360 257 381 239.5 c 128,-1,81
 402 222 402 222 423 222 c 0,82,83
 428 222 428 222 438 226 c 0,84,85
 469 242 469 242 469 276 c 0,86,87
 469 315 469 315 431 330 c 0,74,75
308 301 m 0,88,89
 317 330 317 330 345.5 348.5 c 128,-1,90
 374 367 374 367 411 367 c 0,91,92
 435 367 435 367 456 360 c 0,93,94
 524 341 524 341 524 279 c 0,95,96
 524 248 524 248 505 230 c 128,-1,97
 486 212 486 212 444 203 c 0,98,99
 416 197 416 197 394 197 c 0,100,101
 338 197 338 197 314 243 c 0,102,103
 303 264 303 264 303 276 c 0,104,105
 303 284 303 284 308 301 c 0,88,89
EndSplineSet
Validated: 1
Ligature2: "'liga' Standard Ligatures in Latin lookup 0 subtable" k u l u p u space
Ligature2: "'liga' Standard Ligatures in Latin lookup 0 subtable" k u l u p u
EndChar

StartChar: uniE021
Encoding: 57377 57377 132
Width: 522
GlyphClass: 3
Flags: W
LayerCount: 2
Fore
SplineSet
267 431 m 0,0,1
 302 438 302 438 335 438 c 0,2,3
 436 438 436 438 463 370 c 0,4,5
 471 351 471 351 471 324 c 0,6,7
 471 265 471 265 446 217 c 0,8,9
 419 163 419 163 367.5 104 c 128,-1,10
 316 45 316 45 270 14 c 0,11,12
 236 -9 236 -9 217 -16.5 c 128,-1,13
 198 -24 198 -24 160 -31 c 0,14,15
 122 -37 122 -37 102 -37 c 128,-1,16
 82 -37 82 -37 71 -33 c 2,17,-1
 58 -28 l 1,18,-1
 68 -18 l 2,19,20
 74 -12 74 -12 82.5 -10.5 c 128,-1,21
 91 -9 91 -9 120 -9 c 0,22,23
 150 -9 150 -9 159.5 -6.5 c 128,-1,24
 169 -4 169 -4 188 7 c 0,25,26
 217 24 217 24 271.5 79.5 c 128,-1,27
 326 135 326 135 351 172 c 0,28,29
 408 258 408 258 408 318 c 0,30,31
 408 361 408 361 379 384.5 c 128,-1,32
 350 408 350 408 294 408 c 0,33,34
 243 408 243 408 195 364 c 0,35,36
 174 345 174 345 157.5 313 c 128,-1,37
 141 281 141 281 138 254 c 0,38,39
 136 232 136 232 131 226 c 128,-1,40
 126 220 126 220 109 217 c 0,41,42
 105 216 105 216 99 216 c 0,43,44
 83 216 83 216 83 243 c 2,45,-1
 83 256 l 2,46,47
 86 301 86 301 116.5 344 c 128,-1,48
 147 387 147 387 191 408 c 0,49,50
 223 423 223 423 267 431 c 0,0,1
272 297 m 0,51,52
 278 299 278 299 294 299 c 128,-1,53
 310 299 310 299 310 288 c 0,54,55
 310 276 310 276 290 237 c 2,56,-1
 269 194 l 1,57,-1
 249 193 l 2,58,59
 243 192 243 192 234 192 c 0,60,61
 222 192 222 192 222 199 c 0,62,63
 222 205 222 205 242 245 c 0,64,65
 268 296 268 296 272 297 c 0,51,52
EndSplineSet
Validated: 1
Ligature2: "'liga' Standard Ligatures in Latin lookup 0 subtable" k u t e space
Ligature2: "'liga' Standard Ligatures in Latin lookup 0 subtable" k u t e
EndChar

StartChar: uniE022
Encoding: 57378 57378 133
Width: 300
GlyphClass: 3
Flags: W
LayerCount: 2
Fore
SplineSet
138 496 m 0,0,1
 146 500 146 500 153 500 c 128,-1,2
 160 500 160 500 178 486 c 0,3,4
 218 454 218 454 238 411 c 0,5,6
 248 391 248 391 248 350 c 0,7,8
 248 308 248 308 238 285 c 0,9,10
 221 244 221 244 186.5 202 c 128,-1,11
 152 160 152 160 118 138 c 0,12,13
 99 126 99 126 87 126 c 0,14,15
 86 126 86 126 83 126.5 c 128,-1,16
 80 127 80 127 78 127 c 0,17,18
 57 130 57 130 57 135 c 0,19,20
 57 139 57 139 69 148 c 0,21,22
 99 170 99 170 129 207 c 128,-1,23
 159 244 159 244 173 277 c 0,24,25
 189 315 189 315 189 345 c 0,26,27
 189 401 189 401 139 456 c 0,28,29
 120 476 120 476 120 483 c 0,30,31
 120 488 120 488 138 496 c 0,0,1
EndSplineSet
Validated: 1
Ligature2: "'liga' Standard Ligatures in Latin lookup 0 subtable" l a
Ligature2: "'liga' Standard Ligatures in Latin lookup 0 subtable" l a space
EndChar

StartChar: uniE023
Encoding: 57379 57379 134
Width: 630
GlyphClass: 3
Flags: W
LayerCount: 2
Fore
SplineSet
466 473 m 0,0,1
 467 475 467 475 467 477 c 128,-1,2
 467 479 467 479 465 479 c 0,3,4
 457 479 457 479 425 445 c 128,-1,5
 393 411 393 411 383 391 c 0,6,7
 370 365 370 365 370 338 c 0,8,9
 370 309 370 309 385 290 c 128,-1,10
 400 271 400 271 424 271 c 0,11,12
 439 271 439 271 454 279 c 0,13,14
 478 291 478 291 499 317.5 c 128,-1,15
 520 344 520 344 525 369 c 0,16,17
 526 373 526 373 526 380 c 0,18,19
 526 404 526 404 512 429.5 c 128,-1,20
 498 455 498 455 480 462 c 0,21,22
 473 464 473 464 469 467 c 128,-1,23
 465 470 465 470 466 473 c 0,0,1
424 494 m 0,24,25
 452 510 452 510 465 510 c 0,26,27
 473 510 473 510 483 505 c 128,-1,28
 493 500 493 500 484 494 c 0,29,30
 477 489 477 489 479 488 c 0,31,32
 481 488 481 488 489 490 c 0,33,34
 492 491 492 491 498 491 c 0,35,36
 542 491 542 491 570 429 c 0,37,38
 577 414 577 414 577 386 c 0,39,40
 577 347 577 347 564 324 c 0,41,42
 555 309 555 309 535.5 290 c 128,-1,43
 516 271 516 271 502 264 c 0,44,45
 462 243 462 243 394 243 c 0,46,47
 378 243 378 243 369 246 c 0,48,49
 346 254 346 254 328.5 277 c 128,-1,50
 311 300 311 300 311 325 c 2,51,-1
 311 342 l 1,52,-1
 260 344 l 2,53,54
 204 348 204 348 130 348 c 0,55,56
 53 348 53 348 53 354 c 0,57,58
 53 357 53 357 73 369 c 0,59,60
 91 379 91 379 150 379 c 0,61,62
 174 379 174 379 261 376 c 2,63,-1
 314 372 l 1,64,-1
 327 397 l 2,65,66
 339 421 339 421 367.5 449 c 128,-1,67
 396 477 396 477 424 494 c 0,24,25
EndSplineSet
Validated: 1
Ligature2: "'liga' Standard Ligatures in Latin lookup 0 subtable" l a p e space
Ligature2: "'liga' Standard Ligatures in Latin lookup 0 subtable" l a p e
EndChar

StartChar: uniE024
Encoding: 57380 57380 135
Width: 502
GlyphClass: 3
Flags: W
LayerCount: 2
Fore
SplineSet
292 318 m 2,0,1
 271 367 271 367 263 381 c 2,2,-1
 256 394 l 1,3,-1
 232 356 l 2,4,5
 201 307 201 307 191 292 c 0,6,7
 173 267 173 267 173 264 c 0,8,9
 173 262 173 262 217 262 c 0,10,11
 271 262 271 262 292 265 c 2,12,-1
 313 268 l 1,13,-1
 292 318 l 2,0,1
380 589 m 0,14,15
 372 596 372 596 361 596 c 0,16,17
 349 596 349 596 337 585 c 0,18,19
 302 557 302 557 297 508 c 0,20,21
 295 491 295 491 296 487 c 128,-1,22
 297 483 297 483 303 483 c 0,23,24
 320 483 320 483 362 521 c 0,25,26
 390 547 390 547 390 569 c 0,27,28
 390 582 390 582 380 589 c 0,14,15
165 628 m 0,29,30
 162 629 162 629 159 629.5 c 128,-1,31
 156 630 156 630 154 630.5 c 128,-1,32
 152 631 152 631 150 631.5 c 128,-1,33
 148 632 148 632 147 632 c 0,34,35
 142 632 142 632 128 617 c 0,36,37
 114 601 114 601 114 578 c 0,38,39
 114 515 114 515 180 485 c 0,40,41
 204 474 204 474 214 474 c 0,42,43
 222 474 222 474 231 481 c 0,44,45
 238 487 238 487 238 494 c 0,46,47
 238 502 238 502 234 517 c 0,48,49
 222 569 222 569 206 595 c 128,-1,50
 190 621 190 621 165 628 c 0,29,30
127 651 m 0,51,52
 159 655 159 655 172 655 c 0,53,54
 202 655 202 655 221 647 c 0,55,56
 235 641 235 641 251.5 623.5 c 128,-1,57
 268 606 268 606 268 598 c 128,-1,58
 268 590 268 590 274 590 c 0,59,60
 281 590 281 590 298 601 c 0,61,62
 335 623 335 623 386 623 c 0,63,64
 397 623 397 623 401 622 c 0,65,66
 415 619 415 619 431 607 c 0,67,68
 445 594 445 594 445 576 c 0,69,70
 445 557 445 557 437.5 543 c 128,-1,71
 430 529 430 529 407 507 c 0,72,73
 368 471 368 471 324 460 c 0,74,75
 297 453 297 453 297 447 c 0,76,77
 297 442 297 442 303 433 c 0,78,79
 321 404 321 404 371.5 287.5 c 128,-1,80
 422 171 422 171 422 158 c 0,81,82
 422 144 422 144 387 144 c 2,83,-1
 369 144 l 1,84,85
 349 189 349 189 322 245 c 1,86,-1
 296 242 l 2,87,88
 215 236 215 236 207 236 c 0,89,90
 192 235 192 235 169 235 c 0,91,92
 116 235 116 235 116 251 c 0,93,94
 116 262 116 262 169 346 c 0,95,96
 224 436 224 436 226 438 c 0,97,98
 226 439 226 439 222.5 440 c 128,-1,99
 219 441 219 441 212 442.5 c 128,-1,100
 205 444 205 444 197 444 c 0,101,102
 105 453 105 453 72 514 c 0,103,104
 56 543 56 543 56 572 c 0,105,106
 56 603 56 603 74.5 624 c 128,-1,107
 93 645 93 645 127 651 c 0,51,52
EndSplineSet
Validated: 1
Ligature2: "'liga' Standard Ligatures in Latin lookup 0 subtable" l a s o space
Ligature2: "'liga' Standard Ligatures in Latin lookup 0 subtable" l a s o
EndChar

StartChar: uniE025
Encoding: 57381 57381 136
Width: 565
GlyphClass: 3
Flags: W
LayerCount: 2
Fore
SplineSet
338 357 m 0,0,1
 338 360 338 360 336 361.5 c 128,-1,2
 334 363 334 363 322 364.5 c 128,-1,3
 310 366 310 366 290 366 c 128,-1,4
 270 366 270 366 229 366 c 2,5,-1
 121 366 l 1,6,-1
 116 349 l 2,7,8
 112 337 112 337 112 319 c 0,9,10
 112 284 112 284 125 264 c 0,11,12
 155 220 155 220 204 220 c 0,13,14
 218 220 218 220 233 225 c 0,15,16
 276 240 276 240 308 286 c 0,17,18
 338 331 338 331 338 357 c 0,0,1
237 470 m 0,19,20
 234 479 234 479 218 479 c 0,21,22
 188 479 188 479 152 426 c 0,23,24
 139 408 139 408 139 403 c 0,25,26
 139 397 139 397 155 395 c 128,-1,27
 171 393 171 393 220 393 c 2,28,-1
 238 393 l 1,29,-1
 338 393 l 1,30,-1
 335 405 l 2,31,32
 321 461 321 461 261 461 c 0,33,34
 239 461 239 461 237 470 c 0,19,20
209 504 m 0,35,36
 214 506 214 506 229 506 c 0,37,38
 266 506 266 506 283 497 c 0,39,40
 301 488 301 488 313 488 c 0,41,42
 327 488 327 488 347 477 c 128,-1,43
 367 466 367 466 376 454 c 0,44,45
 386 441 386 441 393 418 c 2,46,-1
 400 395 l 1,47,-1
 453 392 l 2,48,49
 496 389 496 389 509 389 c 1,50,51
 516 385 516 385 497 372 c 0,52,53
 482 363 482 363 442 363 c 2,54,-1
 400 363 l 1,55,-1
 393 338 l 2,56,57
 374 263 374 263 300 219 c 0,58,59
 284 209 284 209 243 199 c 128,-1,60
 202 189 202 189 180 189 c 0,61,62
 144 189 144 189 109 209.5 c 128,-1,63
 74 230 74 230 61 259 c 0,64,65
 52 280 52 280 52 306 c 0,66,67
 52 366 52 366 91 426.5 c 128,-1,68
 130 487 130 487 178 497 c 0,69,70
 208 503 208 503 209 504 c 0,35,36
EndSplineSet
Validated: 1
Ligature2: "'liga' Standard Ligatures in Latin lookup 0 subtable" l a w a
Ligature2: "'liga' Standard Ligatures in Latin lookup 0 subtable" l a w a space
EndChar

StartChar: uniE026
Encoding: 57382 57382 137
Width: 510
GlyphClass: 3
Flags: W
LayerCount: 2
Fore
SplineSet
401 476 m 1,0,1
 397 480 397 480 198 480 c 0,2,3
 128 480 128 480 126 479 c 0,4,5
 118 473 118 473 116 360 c 0,6,7
 114 286 114 286 114 269 c 2,8,-1
 115 244 l 1,9,-1
 124 244 l 2,10,11
 158 244 158 244 224 247 c 0,12,13
 322 252 322 252 364 252 c 2,14,-1
 396 252 l 1,15,-1
 399 364 l 1,16,-1
 401 476 l 1,0,1
139 505 m 0,17,18
 151 507 151 507 243 507 c 0,19,20
 385 507 385 507 418 503 c 0,21,22
 444 501 444 501 450 493 c 0,23,24
 459 479 459 479 460 377 c 0,25,26
 460 369 460 369 460 333 c 2,27,-1
 460 274 l 2,28,29
 460 95 460 95 443 81 c 0,30,31
 435 75 435 75 415 77 c 2,32,-1
 395 78 l 1,33,34
 396 104 396 104 397 155 c 128,-1,35
 398 206 398 206 399 231 c 1,36,-1
 374 229 l 2,37,38
 346 225 346 225 313 225 c 2,39,-1
 275 225 l 1,40,41
 274 211 274 211 274 183.5 c 128,-1,42
 274 156 274 156 273 142 c 1,43,-1
 257 138 l 2,44,45
 242 135 242 135 231 137 c 0,46,47
 224 138 224 138 222.5 144.5 c 128,-1,48
 221 151 221 151 221 181 c 2,49,-1
 221 222 l 1,50,-1
 168 219 l 1,51,-1
 113 214 l 2,52,53
 111 214 111 214 109 167 c 2,54,-1
 106 121 l 1,55,-1
 90 116 l 2,56,57
 75 111 75 111 62 113 c 2,58,-1
 51 114 l 1,59,-1
 52 214 l 2,60,61
 54 425 54 425 66 467 c 0,62,63
 70 480 70 480 90 490.5 c 128,-1,64
 110 501 110 501 139 505 c 0,17,18
EndSplineSet
Validated: 1
Ligature2: "'liga' Standard Ligatures in Latin lookup 0 subtable" l e n space
Ligature2: "'liga' Standard Ligatures in Latin lookup 0 subtable" l e n
EndChar

StartChar: uniE027
Encoding: 57383 57383 138
Width: 582
GlyphClass: 3
Flags: W
LayerCount: 2
Fore
SplineSet
295 397 m 2,0,-1
 335 456 l 1,1,-1
 354 456 l 2,2,3
 378 456 378 456 378 450 c 0,4,5
 378 433 378 433 328 357 c 2,6,-1
 303 318 l 1,7,-1
 345 314 l 2,8,9
 375 312 375 312 387 312 c 0,10,11
 438 312 438 312 463 325 c 0,12,13
 481 334 481 334 503 334 c 0,14,15
 514 334 514 334 522 331 c 0,16,17
 529 328 529 328 529 326 c 0,18,19
 529 321 529 321 508 312 c 0,20,21
 478 299 478 299 424.5 292.5 c 128,-1,22
 371 286 371 286 332.5 284.5 c 128,-1,23
 294 283 294 283 294 281 c 0,24,25
 294 280 294 280 340 216 c 0,26,27
 380 159 380 159 380 150 c 0,28,29
 380 147 380 147 378 145 c 0,30,31
 371 138 371 138 352 138 c 2,32,-1
 350 138 l 2,33,34
 337 138 337 138 328.5 145 c 128,-1,35
 320 152 320 152 292 187 c 0,36,37
 253 237 253 237 249 237 c 0,38,39
 246 237 246 237 219.5 203.5 c 128,-1,40
 193 170 193 170 192 170 c 0,41,42
 188 167 188 167 169 167 c 0,43,44
 142 167 142 167 142 171 c 0,45,46
 142 179 142 179 178 229 c 128,-1,47
 214 279 214 279 214 285 c 0,48,49
 214 287 214 287 207 287 c 0,50,51
 197 287 197 287 125 276 c 0,52,53
 92 271 92 271 83 271 c 0,54,55
 75 271 75 271 65 275 c 0,56,57
 53 280 53 280 57 284 c 0,58,59
 62 289 62 289 124 298 c 0,60,61
 197 309 197 309 197 315 c 0,62,63
 197 317 197 317 192 324 c 0,64,65
 143 398 143 398 143 423 c 0,66,67
 143 429 143 429 146 432 c 0,68,69
 152 438 152 438 168 440 c 0,70,71
 178 442 178 442 179 442 c 0,72,73
 186 442 186 442 194 429 c 0,74,75
 208 404 208 404 230 371 c 128,-1,76
 252 338 252 338 254 338 c 128,-1,77
 256 338 256 338 295 397 c 2,0,-1
EndSplineSet
Validated: 1
Ligature2: "'liga' Standard Ligatures in Latin lookup 0 subtable" l e t e space
Ligature2: "'liga' Standard Ligatures in Latin lookup 0 subtable" l e t e
EndChar

StartChar: uniE028
Encoding: 57384 57384 139
Width: 307
GlyphClass: 3
Flags: W
LayerCount: 2
Fore
SplineSet
62 460 m 0,0,1
 69 465 69 465 84 465 c 0,2,3
 94 465 94 465 98 461.5 c 128,-1,4
 102 458 102 458 109 444 c 0,5,6
 119 420 119 420 138 395 c 128,-1,7
 157 370 157 370 171 359 c 0,8,9
 186 349 186 349 210 339 c 128,-1,10
 234 329 234 329 244 329 c 0,11,12
 253 329 253 329 253 324 c 0,13,14
 253 313 253 313 222 293 c 0,15,16
 154 249 154 249 123 186 c 0,17,18
 112 164 112 164 104.5 156 c 128,-1,19
 97 148 97 148 86 148 c 0,20,21
 80 148 80 148 76 149 c 0,22,23
 65 150 65 150 65 167 c 0,24,25
 66 194 66 194 92 230 c 128,-1,26
 118 266 118 266 155 291 c 2,27,-1
 181 309 l 1,28,-1
 158 318 l 2,29,30
 101 340 101 340 69 403 c 0,31,32
 54 433 54 433 54 446 c 0,33,34
 54 455 54 455 62 460 c 0,0,1
EndSplineSet
Validated: 1
Ligature2: "'liga' Standard Ligatures in Latin lookup 0 subtable" l i
Ligature2: "'liga' Standard Ligatures in Latin lookup 0 subtable" l i space
EndChar

StartChar: uniE029
Encoding: 57385 57385 140
Width: 339
GlyphClass: 3
Flags: W
LayerCount: 2
Fore
SplineSet
214 319 m 0,0,1
 242 348 242 348 256 348 c 0,2,3
 285 348 285 348 285 339 c 0,4,5
 285 336 285 336 259 306 c 128,-1,6
 233 276 233 276 214 247 c 0,7,8
 185 203 185 203 154 203 c 0,9,10
 148 203 148 203 101 251.5 c 128,-1,11
 54 300 54 300 54 307 c 0,12,13
 54 311 54 311 69 318 c 128,-1,14
 84 325 84 325 92 325 c 0,15,16
 98 325 98 325 131 292 c 2,17,-1
 164 259 l 1,18,-1
 176 275 l 2,19,20
 178 277 178 277 214 319 c 0,0,1
EndSplineSet
Validated: 1
Ligature2: "'liga' Standard Ligatures in Latin lookup 0 subtable" l i l i space
Ligature2: "'liga' Standard Ligatures in Latin lookup 0 subtable" l i l i
EndChar

StartChar: uniE02A
Encoding: 57386 57386 141
Width: 531
GlyphClass: 3
Flags: W
LayerCount: 2
Fore
SplineSet
364 351 m 0,0,1
 382 353 382 353 389 353 c 0,2,3
 412 353 412 353 428 344 c 0,4,5
 443 336 443 336 461 310 c 128,-1,6
 479 284 479 284 479 271 c 0,7,8
 479 270 479 270 478 268 c 0,9,10
 476 264 476 264 462.5 259 c 128,-1,11
 449 254 449 254 439 254 c 0,12,13
 435 254 435 254 433 255 c 0,14,15
 425 259 425 259 418 275 c 0,16,17
 409 297 409 297 391.5 311 c 128,-1,18
 374 325 374 325 356 325 c 0,19,20
 344 325 344 325 305 300 c 0,21,22
 236 256 236 256 181 245 c 0,23,24
 153 240 153 240 144 240 c 0,25,26
 134 240 134 240 125 243 c 0,27,28
 111 247 111 247 87.5 268 c 128,-1,29
 64 289 64 289 56 303 c 0,30,31
 53 309 53 309 53 313 c 0,32,33
 53 324 53 324 80 328 c 0,34,35
 82 328 82 328 85.5 328.5 c 128,-1,36
 89 329 89 329 90 329 c 0,37,38
 100 329 100 329 119 306 c 0,39,40
 139 282 139 282 156 273 c 0,41,42
 166 268 166 268 172 268 c 0,43,44
 186 268 186 268 248 305 c 0,45,46
 314 345 314 345 364 351 c 0,0,1
EndSplineSet
Validated: 1
Ligature2: "'liga' Standard Ligatures in Latin lookup 0 subtable" l i n j a space
Ligature2: "'liga' Standard Ligatures in Latin lookup 0 subtable" l i n j a
EndChar

StartChar: uniE02B
Encoding: 57387 57387 142
Width: 449
GlyphClass: 3
Flags: W
LayerCount: 2
Fore
SplineSet
309 440 m 0,0,1
 282 443 282 443 198 445 c 2,2,-1
 102 448 l 1,3,-1
 103 343 l 2,4,5
 104 240 104 240 111 233 c 128,-1,6
 118 226 118 226 265 226 c 0,7,8
 317 226 317 226 324 228 c 2,9,-1
 335 230 l 1,10,-1
 331 301 l 2,11,12
 329 378 329 378 326 405 c 0,13,14
 324 430 324 430 322 434 c 128,-1,15
 320 438 320 438 309 440 c 0,0,1
57 470 m 0,16,17
 62 474 62 474 116 474 c 0,18,19
 169 474 169 474 271 469 c 0,20,21
 364 464 364 464 371 457 c 0,22,23
 387 441 387 441 395 247 c 2,24,-1
 398 163 l 1,25,-1
 386 156 l 2,26,27
 374 147 374 147 357 149 c 2,28,-1
 340 151 l 1,29,-1
 339 179 l 1,30,-1
 337 207 l 1,31,-1
 318 204 l 2,32,33
 298 200 298 200 190 200 c 2,34,-1
 80 200 l 1,35,36
 62 218 62 218 53 228 c 1,37,-1
 51 347 l 1,38,-1
 51 401 l 2,39,40
 51 466 51 466 57 470 c 0,16,17
EndSplineSet
Validated: 1
Ligature2: "'liga' Standard Ligatures in Latin lookup 0 subtable" l i p u space
Ligature2: "'liga' Standard Ligatures in Latin lookup 0 subtable" l i p u
EndChar

StartChar: uniE02C
Encoding: 57388 57388 143
Width: 484
GlyphClass: 3
Flags: W
LayerCount: 2
Fore
SplineSet
236 377 m 0,0,1
 215 411 215 411 212 411 c 0,2,3
 210 411 210 411 193 378 c 0,4,5
 158 309 158 309 124 256 c 0,6,7
 112 239 112 239 115 236 c 0,8,9
 115 235 115 235 133 235 c 0,10,11
 147 235 147 235 211 237 c 0,12,13
 304 241 304 241 304 247 c 0,14,15
 304 254 304 254 279.5 300.5 c 128,-1,16
 255 347 255 347 236 377 c 0,0,1
290 551 m 0,17,18
 290 555 290 555 276 555 c 0,19,20
 274 555 274 555 253 553.5 c 128,-1,21
 232 552 232 552 219 552 c 2,22,-1
 178 551 l 1,23,-1
 183 538 l 2,24,25
 188 524 188 524 201.5 512.5 c 128,-1,26
 215 501 215 501 226 501 c 0,27,28
 243 501 243 501 266.5 519.5 c 128,-1,29
 290 538 290 538 290 551 c 0,17,18
168 578 m 0,30,31
 228 582 228 582 320 582 c 0,32,33
 426 582 426 582 426 578 c 0,34,35
 426 570 426 570 407.5 563 c 128,-1,36
 389 556 389 556 370 556 c 0,37,38
 353 556 353 556 348.5 554 c 128,-1,39
 344 552 344 552 340 543 c 0,40,41
 333 523 333 523 309 506 c 128,-1,42
 285 489 285 489 260 485 c 0,43,44
 241 482 241 482 241 473 c 0,45,46
 241 462 241 462 260 439 c 0,47,48
 381 280 381 280 381 174 c 0,49,50
 381 116 381 116 357.5 86 c 128,-1,51
 334 56 334 56 284 51 c 2,52,-1
 256 48 l 1,53,-1
 269 59 l 2,54,55
 283 71 283 71 295 80 c 0,56,57
 322 101 322 101 322 158 c 0,58,59
 322 160 322 160 321.5 165 c 128,-1,60
 321 170 321 170 321 172 c 0,61,62
 319 202 319 202 315 208 c 0,63,64
 314 211 314 211 275 211 c 0,65,66
 228 211 228 211 192 210 c 0,67,68
 162 209 162 209 119 209 c 0,69,70
 79 209 79 209 67 212 c 128,-1,71
 55 215 55 215 55 224 c 0,72,73
 55 231 55 231 93 300 c 0,74,75
 146 396 146 396 159 421 c 2,76,-1
 187 474 l 1,77,-1
 174 479 l 2,78,79
 143 490 143 490 130 529 c 2,80,-1
 122 551 l 1,81,-1
 101 548 l 1,82,-1
 94 548 l 2,83,84
 81 548 81 548 68 551 c 128,-1,85
 55 554 55 554 55 557 c 2,86,-1
 56 558 l 2,87,88
 63 567 63 567 168 578 c 0,30,31
EndSplineSet
Validated: 1
Ligature2: "'liga' Standard Ligatures in Latin lookup 0 subtable" l o j e space
Ligature2: "'liga' Standard Ligatures in Latin lookup 0 subtable" l o j e
EndChar

StartChar: uniE02D
Encoding: 57389 57389 144
Width: 508
GlyphClass: 3
Flags: W
LayerCount: 2
Fore
SplineSet
235 353 m 0,0,1
 241 355 241 355 257 355 c 0,2,3
 274 354 274 354 274 341 c 0,4,5
 274 330 274 330 264 309 c 0,6,7
 253 284 253 284 241 280 c 0,8,9
 234 277 234 277 223 277 c 0,10,11
 203 277 203 277 203 286 c 0,12,13
 203 293 203 293 216.5 322 c 128,-1,14
 230 351 230 351 235 353 c 0,0,1
396 240 m 0,15,16
 409 251 409 251 423 251 c 0,17,18
 428 251 428 251 431 250 c 0,19,20
 441 248 441 248 446 248 c 0,21,22
 452 248 452 248 452 244 c 0,23,24
 452 233 452 233 433 225 c 0,25,26
 392 208 392 208 250 205 c 0,27,28
 159 204 159 204 130 196 c 0,29,30
 96 186 96 186 71 186 c 0,31,32
 56 186 56 186 56 190 c 0,33,34
 56 196 56 196 73 203 c 0,35,36
 134 231 134 231 287 232 c 0,37,38
 387 232 387 232 396 240 c 0,15,16
EndSplineSet
Validated: 1
Ligature2: "'liga' Standard Ligatures in Latin lookup 0 subtable" l o n
Ligature2: "'liga' Standard Ligatures in Latin lookup 0 subtable" l o n space
EndChar

StartChar: uniE02E
Encoding: 57390 57390 145
Width: 539
GlyphClass: 3
Flags: W
LayerCount: 2
Fore
SplineSet
270 429 m 0,0,1
 294 433 294 433 331 433 c 0,2,3
 372 433 372 433 396 421 c 0,4,5
 438 400 438 400 462 357.5 c 128,-1,6
 486 315 486 315 486 262 c 0,7,8
 486 241 486 241 484 230 c 0,9,10
 471 136 471 136 416.5 58 c 128,-1,11
 362 -20 362 -20 282 -59 c 0,12,13
 220 -91 220 -91 153 -91 c 0,14,15
 144 -91 144 -91 132 -89 c 0,16,17
 122 -86 122 -86 122 -81 c 0,18,19
 122 -73 122 -73 137.5 -66 c 128,-1,20
 153 -59 153 -59 171 -59 c 2,21,-1
 178 -59 l 2,22,23
 183 -60 183 -60 193 -60 c 0,24,25
 240 -60 240 -60 240 -48 c 0,26,27
 240 -43 240 -43 261 -29 c 0,28,29
 280 -17 280 -17 308 11.5 c 128,-1,30
 336 40 336 40 351 62 c 0,31,32
 391 121 391 121 408 184 c 0,33,34
 417 220 417 220 417 260 c 0,35,36
 417 298 417 298 410 319 c 0,37,38
 390 377 390 377 323 402 c 2,39,-1
 310 407 l 1,40,-1
 321 413 l 2,41,42
 329 420 329 420 322 420 c 0,43,44
 311 420 311 420 289.5 410 c 128,-1,45
 268 400 268 400 253 388 c 0,46,47
 211 355 211 355 170 272 c 2,48,-1
 148 227 l 1,49,-1
 122 219 l 2,50,51
 104 213 104 213 100 213 c 128,-1,52
 96 213 96 213 90 220 c 0,53,54
 83 229 83 229 68.5 265.5 c 128,-1,55
 54 302 54 302 54 311 c 0,56,57
 54 329 54 329 85 329 c 0,58,59
 94 329 94 329 98.5 325.5 c 128,-1,60
 103 322 103 322 109 311 c 2,61,-1
 118 292 l 1,62,-1
 135 320 l 2,63,64
 192 415 192 415 270 429 c 0,0,1
EndSplineSet
Validated: 1
Ligature2: "'liga' Standard Ligatures in Latin lookup 0 subtable" l u k a space
Ligature2: "'liga' Standard Ligatures in Latin lookup 0 subtable" l u k a
EndChar

StartChar: uniE02F
Encoding: 57391 57391 146
Width: 541
GlyphClass: 3
Flags: W
LayerCount: 2
Fore
SplineSet
235 426 m 0,0,1
 270 432 270 432 308 432 c 0,2,3
 365 432 365 432 396 420 c 0,4,5
 417 412 417 412 444 388.5 c 128,-1,6
 471 365 471 365 471 355 c 0,7,8
 471 347 471 347 480 345 c 0,9,10
 488 342 488 342 488 338 c 128,-1,11
 488 334 488 334 476 317 c 0,12,13
 445 275 445 275 366.5 244 c 128,-1,14
 288 213 288 213 214 213 c 2,15,-1
 200 213 l 1,16,17
 121 218 121 218 88 265 c 2,18,-1
 75 285 l 1,19,-1
 86 294 l 2,20,21
 96 303 96 303 107 303 c 0,22,23
 122 303 122 303 144 281 c 0,24,25
 180 242 180 242 251 242 c 0,26,27
 331 242 331 242 411 310 c 2,28,-1
 435 330 l 1,29,-1
 406 358 l 2,30,31
 380 385 380 385 352.5 394.5 c 128,-1,32
 325 404 325 404 276 404 c 0,33,34
 245 404 245 404 234 401.5 c 128,-1,35
 223 399 223 399 199 387 c 0,36,37
 170 374 170 374 128 337 c 0,38,39
 91 302 91 302 75 302 c 0,40,41
 54 302 54 302 54 310 c 128,-1,42
 54 318 54 318 78 344 c 0,43,44
 115 381 115 381 148.5 398.5 c 128,-1,45
 182 416 182 416 235 426 c 0,0,1
263 362 m 0,46,47
 266 363 266 363 274 363 c 0,48,49
 298 363 298 363 298 357 c 0,50,51
 298 350 298 350 292 327 c 128,-1,52
 286 304 286 304 283 299 c 0,53,54
 277 291 277 291 255 291 c 2,55,-1
 233 291 l 1,56,-1
 235 306 l 2,57,58
 237 325 237 325 245.5 343 c 128,-1,59
 254 361 254 361 263 362 c 0,46,47
EndSplineSet
Validated: 1
Ligature2: "'liga' Standard Ligatures in Latin lookup 0 subtable" l u k i n space
Ligature2: "'liga' Standard Ligatures in Latin lookup 0 subtable" l u k i n
EndChar

StartChar: uniE030
Encoding: 57392 57392 147
Width: 393
GlyphClass: 3
Flags: W
LayerCount: 2
Fore
SplineSet
288 512 m 0,0,1
 294 516 294 516 313 516 c 0,2,3
 330 516 330 516 333.5 506 c 128,-1,4
 337 496 337 496 340 436 c 0,5,6
 341 423 341 423 341 401 c 0,7,8
 341 340 341 340 318 305 c 0,9,10
 291 264 291 264 233 253 c 0,11,12
 199 246 199 246 167 246 c 0,13,14
 89 246 89 246 64 292 c 0,15,16
 59 301 59 301 55 352 c 128,-1,17
 51 403 51 403 51 447 c 0,18,19
 51 489 51 489 55 492 c 0,20,21
 65 500 65 500 83 500 c 0,22,23
 92 500 92 500 94 498 c 0,24,25
 107 490 107 490 107 377 c 0,26,27
 107 327 107 327 116 309 c 0,28,29
 125 292 125 292 146.5 282 c 128,-1,30
 168 272 168 272 193 272 c 0,31,32
 224 272 224 272 242 286 c 0,33,34
 258 297 258 297 270 321 c 0,35,36
 278 338 278 338 280 353.5 c 128,-1,37
 282 369 282 369 282 425 c 0,38,39
 282 507 282 507 288 512 c 0,0,1
EndSplineSet
Validated: 1
Ligature2: "'liga' Standard Ligatures in Latin lookup 0 subtable" l u p a
Ligature2: "'liga' Standard Ligatures in Latin lookup 0 subtable" l u p a space
EndChar

StartChar: uniE031
Encoding: 57393 57393 148
Width: 429
GlyphClass: 3
Flags: W
LayerCount: 2
Fore
SplineSet
103 324 m 1,0,-1
 323 324 l 1,1,-1
 323 302 l 1,2,-1
 103 302 l 1,3,-1
 103 324 l 1,0,-1
176 434 m 1,4,-1
 226 434 l 1,5,-1
 226 191 l 1,6,-1
 176 191 l 1,7,-1
 176 434 l 1,4,-1
214 430 m 0,8,9
 199 434 199 434 192 434 c 0,10,11
 186 434 186 434 172 427 c 0,12,13
 144 413 144 413 127 379.5 c 128,-1,14
 110 346 110 346 110 308 c 0,15,16
 110 275 110 275 123 249 c 0,17,18
 143 208 143 208 184 196 c 0,19,20
 192 194 192 194 194 194 c 0,21,22
 200 194 200 194 222 205 c 0,23,24
 260 225 260 225 290 264 c 128,-1,25
 320 303 320 303 320 333 c 0,26,27
 320 360 320 360 302 381.5 c 128,-1,28
 284 403 284 403 255 412 c 0,29,30
 234 418 234 418 234 422 c 0,31,32
 234 425 234 425 214 430 c 0,8,9
198 457 m 0,33,34
 206 458 206 458 220 458 c 0,35,36
 247 458 247 458 291 442 c 0,37,38
 347 419 347 419 365 383 c 0,39,40
 375 363 375 363 375 339 c 0,41,42
 375 284 375 284 328.5 234.5 c 128,-1,43
 282 185 282 185 216 174 c 0,44,45
 184 169 184 169 168 169 c 0,46,47
 122 169 122 169 90 201 c 0,48,49
 52 239 52 239 52 302 c 0,50,51
 52 343 52 343 65 371 c 0,52,53
 83 411 83 411 114.5 431 c 128,-1,54
 146 451 146 451 198 457 c 0,33,34
EndSplineSet
LCarets2: 2 0 0
Ligature2: "'liga' Standard Ligatures in Latin lookup 0 subtable" m a space
Ligature2: "'liga' Standard Ligatures in Latin lookup 0 subtable" m a
EndChar

StartChar: uniE032
Encoding: 57394 57394 149
Width: 483
GlyphClass: 3
Flags: W
LayerCount: 2
Fore
SplineSet
234 214 m 2,0,-1
 230 214 l 2,1,2
 216 214 216 214 201 200 c 0,3,4
 172 174 172 174 172 145 c 0,5,6
 172 134 172 134 179 124.5 c 128,-1,7
 186 115 186 115 193 115 c 0,8,9
 199 115 199 115 218 132.5 c 128,-1,10
 237 150 237 150 244 163 c 0,11,12
 252 177 252 177 252 191 c 128,-1,13
 252 205 252 205 249 209 c 128,-1,14
 246 213 246 213 234 214 c 2,0,-1
341 477 m 0,15,16
 327 487 327 487 268 488 c 2,17,-1
 234 488 l 2,18,19
 201 488 201 488 187 481 c 0,20,21
 166 471 166 471 146 449.5 c 128,-1,22
 126 428 126 428 118 405 c 0,23,24
 110 383 110 383 110 361 c 0,25,26
 110 319 110 319 133 284 c 128,-1,27
 156 249 156 249 191 242 c 0,28,29
 195 241 195 241 202 241 c 0,30,31
 226 241 226 241 257.5 257 c 128,-1,32
 289 273 289 273 314 298 c 0,33,34
 371 355 371 355 371 414 c 0,35,36
 371 454 371 454 341 477 c 0,15,16
64 417 m 0,37,38
 90 472 90 472 146 494 c 128,-1,39
 202 516 202 516 296 516 c 2,40,-1
 364 516 l 1,41,-1
 386 503 l 2,42,43
 429 475 429 475 429 418 c 0,44,45
 429 343 429 343 364 283 c 0,46,47
 336 257 336 257 316 246 c 2,48,-1
 296 236 l 1,49,-1
 304 218 l 2,50,51
 310 206 310 206 310 198 c 0,52,53
 310 192 310 192 307 180 c 0,54,55
 303 163 303 163 283.5 140 c 128,-1,56
 264 117 264 117 248 109 c 0,57,58
 238 103 238 103 206 95.5 c 128,-1,59
 174 88 174 88 160 88 c 0,60,61
 149 88 149 88 133 104 c 0,62,63
 118 119 118 119 118 139 c 0,64,65
 118 172 118 172 140 197 c 2,66,-1
 154 213 l 1,67,-1
 137 218 l 2,68,69
 118 223 118 223 96 244.5 c 128,-1,70
 74 266 74 266 64 287 c 0,71,72
 52 314 52 314 52 353 c 128,-1,73
 52 392 52 392 64 417 c 0,37,38
EndSplineSet
Validated: 1
Ligature2: "'liga' Standard Ligatures in Latin lookup 0 subtable" m a m a space
Ligature2: "'liga' Standard Ligatures in Latin lookup 0 subtable" m a m a
EndChar

StartChar: uniE033
Encoding: 57395 57395 150
Width: 636
GlyphClass: 3
Flags: W
LayerCount: 2
Fore
SplineSet
328 480 m 0,0,1
 330 486 330 486 327.5 487.5 c 128,-1,2
 325 489 325 489 314 489 c 0,3,4
 275 489 275 489 228 442 c 0,5,6
 173 387 173 387 173 328 c 0,7,8
 173 259 173 259 228 245 c 0,9,10
 236 243 236 243 242 243 c 0,11,12
 269 243 269 243 305.5 261.5 c 128,-1,13
 342 280 342 280 370 309 c 0,14,15
 413 352 413 352 413 395 c 0,16,17
 413 417 413 417 401 432 c 0,18,19
 392 444 392 444 368 457.5 c 128,-1,20
 344 471 344 471 333 471 c 0,21,22
 325 471 325 471 328 480 c 0,0,1
493 671 m 0,23,24
 496 671 496 671 519 676.5 c 128,-1,25
 542 682 542 682 547 682 c 2,26,-1
 549 682 l 2,27,28
 557 682 557 682 567.5 679 c 128,-1,29
 578 676 578 676 578 672 c 0,30,31
 578 667 578 667 562.5 660 c 128,-1,32
 547 653 547 653 536 653 c 2,33,-1
 532 653 l 2,34,35
 531 653 531 653 530 654 c 2,36,-1
 528 654 l 2,37,38
 519 654 519 654 510 643 c 128,-1,39
 501 632 501 632 479 597 c 0,40,41
 458 561 458 561 446.5 549 c 128,-1,42
 435 537 435 537 412 524 c 0,43,44
 403 519 403 519 399.5 516.5 c 128,-1,45
 396 514 396 514 393.5 512 c 128,-1,46
 391 510 391 510 392 508.5 c 128,-1,47
 393 507 393 507 395 505 c 0,48,49
 402 500 402 500 402 495 c 128,-1,50
 402 490 402 490 415 483 c 0,51,52
 429 476 429 476 445 457.5 c 128,-1,53
 461 439 461 439 465 424 c 0,54,55
 469 413 469 413 469 399 c 0,56,57
 469 352 469 352 425 303.5 c 128,-1,58
 381 255 381 255 317 235 c 0,59,60
 258 217 258 217 218 217 c 0,61,62
 151 217 151 217 125 271 c 0,63,64
 114 293 114 293 114 310 c 0,65,66
 114 321 114 321 115 328 c 0,67,68
 121 414 121 414 196 470 c 2,69,-1
 218 486 l 1,70,-1
 196 497 l 2,71,72
 176 507 176 507 170 520 c 128,-1,73
 164 533 164 533 163 576 c 0,74,75
 161 615 161 615 155.5 624.5 c 128,-1,76
 150 634 150 634 126 634 c 2,77,-1
 108 634 l 2,78,79
 69 634 69 634 62 640 c 0,80,81
 54 645 54 645 62 647 c 0,82,83
 67 649 67 649 78 651 c 0,84,85
 108 657 108 657 143 659 c 0,86,87
 155 660 155 660 170 660 c 0,88,89
 187 660 187 660 196 652 c 0,90,91
 217 636 217 636 217 589 c 0,92,93
 217 578 217 578 216 573 c 0,94,95
 215 566 215 566 215 555 c 0,96,97
 215 532 215 532 229.5 523.5 c 128,-1,98
 244 515 244 515 283 515 c 0,99,100
 333 515 333 515 366.5 535 c 128,-1,101
 400 555 400 555 426 601 c 0,102,103
 441 628 441 628 460.5 648 c 128,-1,104
 480 668 480 668 493 671 c 0,23,24
EndSplineSet
Validated: 1
Ligature2: "'liga' Standard Ligatures in Latin lookup 0 subtable" m a n i
Ligature2: "'liga' Standard Ligatures in Latin lookup 0 subtable" m a n i space
EndChar

StartChar: uniE034
Encoding: 57396 57396 151
Width: 434
GlyphClass: 3
Flags: W
LayerCount: 2
Fore
SplineSet
251 479 m 0,0,1
 239 484 239 484 229 484 c 0,2,3
 196 484 196 484 162 448 c 0,4,5
 126 408 126 408 122 363 c 0,6,7
 122 361 122 361 121.5 356.5 c 128,-1,8
 121 352 121 352 121 350 c 0,9,10
 121 280 121 280 194 259 c 0,11,12
 198 258 198 258 206 258 c 0,13,14
 234 258 234 258 269 283 c 128,-1,15
 304 308 304 308 317 339 c 0,16,17
 323 354 323 354 323 369 c 0,18,19
 323 388 323 388 314 408 c 0,20,21
 307 425 307 425 285.5 449 c 128,-1,22
 264 473 264 473 251 479 c 0,0,1
201 505 m 0,23,24
 232 511 232 511 255 511 c 0,25,26
 276 511 276 511 292 505 c 2,27,-1
 317 496 l 2,28,29
 329 494 329 494 348.5 465.5 c 128,-1,30
 368 437 368 437 376 410 c 0,31,32
 382 392 382 392 382 381 c 0,33,34
 382 378 382 378 378 356 c 0,35,36
 373 331 373 331 363 315 c 0,37,38
 348 290 348 290 312.5 265.5 c 128,-1,39
 277 241 277 241 257 241 c 0,40,41
 246 241 246 241 240 227 c 0,42,43
 225 193 225 193 225 161 c 1,44,-1
 226 157 l 2,45,46
 228 155 228 155 255 153 c 0,47,48
 261 152 261 152 270 152 c 0,49,50
 284 152 284 152 303 162 c 0,51,52
 324 174 324 174 341 174 c 0,53,54
 354 174 354 174 361 168 c 0,55,56
 367 163 367 163 366 161.5 c 128,-1,57
 365 160 365 160 354 153 c 0,58,59
 317 131 317 131 253 126 c 2,60,-1
 216 123 l 1,61,-1
 210 90 l 2,62,63
 206 64 206 64 200 56.5 c 128,-1,64
 194 49 194 49 178 49 c 2,65,-1
 167 49 l 2,66,67
 149 50 149 50 148 54 c 0,68,69
 147 56 147 56 147 59 c 0,70,71
 147 68 147 68 153 98 c 0,72,73
 156 119 156 119 156 132 c 0,74,75
 156 142 156 142 104.5 143 c 128,-1,76
 53 144 53 144 53 151 c 0,77,78
 53 156 53 156 83 162.5 c 128,-1,79
 113 169 113 169 137 169 c 2,80,-1
 169 169 l 1,81,-1
 173 189 l 2,82,83
 174 193 174 193 177 203.5 c 128,-1,84
 180 214 180 214 181 217 c 0,85,86
 183 224 183 224 180.5 225.5 c 128,-1,87
 178 227 178 227 164 229 c 0,88,89
 124 235 124 235 93 267 c 0,90,91
 61 299 61 299 61 345 c 0,92,93
 61 377 61 377 75 405 c 0,94,95
 114 487 114 487 201 505 c 0,23,24
EndSplineSet
Validated: 1
Ligature2: "'liga' Standard Ligatures in Latin lookup 0 subtable" m e l i space
Ligature2: "'liga' Standard Ligatures in Latin lookup 0 subtable" m e l i
EndChar

StartChar: uniE035
Encoding: 57397 57397 152
Width: 405
GlyphClass: 3
Flags: W
LayerCount: 2
Fore
SplineSet
271 437 m 4,0,1
 261 449 261 449 256 449 c 4,2,3
 243 449 243 449 224 407.5 c 132,-1,4
 205 366 205 366 189 301 c 4,5,6
 176 250 176 250 176 236 c 4,7,8
 176 228 176 228 180 228 c 4,9,10
 188 228 188 228 212 243 c 132,-1,11
 236 258 236 258 252 272 c 4,12,13
 294 312 294 312 294 368 c 4,14,15
 294 413 294 413 271 437 c 4,0,1
219 469 m 4,16,17
 240 476 240 476 271 476 c 4,18,19
 292 476 292 476 299.5 474 c 132,-1,20
 307 472 307 472 318 462 c 4,21,22
 337 446 337 446 344 426.5 c 132,-1,23
 351 407 351 407 351 372 c 4,24,25
 351 333 351 333 337 306 c 4,26,27
 323 276 323 276 298 257 c 4,28,29
 276 239 276 239 259 230 c 132,-1,30
 242 221 242 221 205 209 c 6,31,-1
 168 197 l 5,32,-1
 158 146 l 6,33,34
 147 89 147 89 129.5 22.5 c 132,-1,35
 112 -44 112 -44 107 -47 c 4,36,37
 99 -51 99 -51 74 -51 c 4,38,39
 60 -51 60 -51 58 -49 c 4,40,41
 56 -44 56 -44 59 -29 c 4,42,43
 60 -27 60 -27 84 110 c 4,44,45
 108 252 108 252 129 325.5 c 132,-1,46
 150 399 150 399 178 436 c 4,47,48
 190 453 190 453 198 459 c 132,-1,49
 206 465 206 465 219 469 c 4,16,17
EndSplineSet
LCarets2: 2 0 0
Ligature2: "'liga' Standard Ligatures in Latin lookup 0 subtable" m i space
Ligature2: "'liga' Standard Ligatures in Latin lookup 0 subtable" m i
EndChar

StartChar: uniE036
Encoding: 57398 57398 153
Width: 513
GlyphClass: 3
Flags: W
LayerCount: 2
Fore
SplineSet
231 436 m 0,0,1
 219 444 219 444 200 449 c 0,2,3
 182 453 182 453 181 453 c 0,4,5
 175 453 175 453 166 447 c 0,6,7
 142 432 142 432 127.5 400 c 128,-1,8
 113 368 113 368 113 335 c 0,9,10
 113 306 113 306 125 286 c 0,11,12
 138 266 138 266 161 255 c 0,13,14
 181 245 181 245 187 245 c 0,15,16
 192 245 192 245 204 250 c 0,17,18
 234 263 234 263 253 292 c 128,-1,19
 272 321 272 321 272 353 c 0,20,21
 272 368 272 368 268 380 c 0,22,23
 254 420 254 420 231 436 c 0,0,1
359 608 m 0,24,25
 359 614 359 614 365 614 c 0,26,27
 373 614 373 614 390 610 c 2,28,-1
 411 605 l 1,29,-1
 422 559 l 2,30,31
 430 518 430 518 445 486 c 0,32,33
 456 466 456 466 456 456 c 0,34,35
 456 452 456 452 441 447.5 c 128,-1,36
 426 443 426 443 417 443 c 0,37,38
 416 443 416 443 414 444 c 2,39,-1
 412 444 l 2,40,41
 407 445 407 445 390 476 c 2,42,-1
 375 507 l 1,43,-1
 352 476 l 2,44,45
 329 446 329 446 320 437 c 2,46,-1
 310 428 l 1,47,-1
 320 407 l 2,48,49
 329 384 329 384 329 357 c 0,50,51
 329 297 329 297 283.5 259 c 128,-1,52
 238 221 238 221 168 221 c 0,53,54
 165 221 165 221 159.5 221.5 c 128,-1,55
 154 222 154 222 151 222 c 0,56,57
 107 225 107 225 79.5 256.5 c 128,-1,58
 52 288 52 288 52 331 c 0,59,60
 52 346 52 346 59 371 c 0,61,62
 79 429 79 429 112 454 c 0,63,64
 142 478 142 478 207 478 c 0,65,66
 254 478 254 478 273 463 c 0,67,68
 279 458 279 458 294 476 c 0,69,70
 307 492 307 492 321 515.5 c 128,-1,71
 335 539 335 539 335 544 c 0,72,73
 335 545 335 545 333 545 c 0,74,75
 324 545 324 545 296 540 c 0,76,77
 261 533 261 533 232 533 c 0,78,79
 201 533 201 533 201 541 c 0,80,81
 201 545 201 545 215 553 c 0,82,83
 229 560 229 560 261 560 c 0,84,85
 294 560 294 560 312 569 c 0,86,87
 329 576 329 576 344 588.5 c 128,-1,88
 359 601 359 601 359 608 c 0,24,25
EndSplineSet
Validated: 1
Ligature2: "'liga' Standard Ligatures in Latin lookup 0 subtable" m i j e
Ligature2: "'liga' Standard Ligatures in Latin lookup 0 subtable" m i j e space
EndChar

StartChar: uniE037
Encoding: 57399 57399 154
Width: 512
GlyphClass: 3
Flags: W
LayerCount: 2
Fore
SplineSet
318 554 m 0,0,1
 318 560 318 560 268 560 c 2,2,-1
 217 560 l 1,3,-1
 221 534 l 2,4,5
 228 478 228 478 245 460 c 0,6,7
 256 448 256 448 262 448 c 0,8,9
 271 448 271 448 284 467 c 0,10,11
 292 478 292 478 305 511 c 128,-1,12
 318 544 318 544 318 554 c 0,0,1
111 587 m 0,13,14
 122 594 122 594 134 594 c 0,15,16
 141 594 141 594 146 593 c 0,17,18
 162 590 162 590 313 590 c 2,19,-1
 375 590 l 2,20,21
 459 590 459 590 459 587 c 0,22,23
 459 579 459 579 440.5 572 c 128,-1,24
 422 565 422 565 402 565 c 2,25,-1
 374 565 l 1,26,-1
 368 537 l 2,27,28
 362 509 362 509 349 482 c 0,29,30
 336 456 336 456 336 454 c 128,-1,31
 336 452 336 452 347 452 c 128,-1,32
 358 452 358 452 379 438 c 128,-1,33
 400 424 400 424 415 406 c 0,34,35
 437 381 437 381 444 354.5 c 128,-1,36
 451 328 451 328 451 277 c 0,37,38
 451 217 451 217 439 182 c 0,39,40
 417 118 417 118 368 66 c 0,41,42
 298 -7 298 -7 169 -26 c 0,43,44
 132 -32 132 -32 93 -32 c 128,-1,45
 54 -32 54 -32 54 -26 c 0,46,47
 54 -21 54 -21 68 -12 c 128,-1,48
 82 -3 82 -3 111 -3 c 2,49,-1
 127 -3 l 1,50,-1
 138 -3 l 2,51,52
 170 -3 170 -3 192 3 c 128,-1,53
 214 9 214 9 250 29 c 0,54,55
 334 73 334 73 373 183 c 0,56,57
 386 220 386 220 386 283 c 0,58,59
 386 320 386 320 380 339 c 0,60,61
 360 407 360 407 299 422 c 0,62,63
 298 422 298 422 296 422.5 c 128,-1,64
 294 423 294 423 293 423 c 0,65,66
 271 423 271 423 229 378 c 0,67,68
 183 328 183 328 165 270 c 0,69,70
 161 259 161 259 155.5 254.5 c 128,-1,71
 150 250 150 250 132 244 c 2,72,-1
 106 235 l 1,73,-1
 97 252 l 2,74,75
 88 269 88 269 70 320 c 0,76,77
 55 358 55 358 55 370 c 0,78,79
 55 379 55 379 61 382 c 128,-1,80
 67 385 67 385 82 386 c 0,81,82
 95 386 95 386 98.5 382.5 c 128,-1,83
 102 379 102 379 112 358 c 0,84,85
 126 329 126 329 129 329 c 128,-1,86
 132 329 132 329 144 349 c 0,87,88
 153 365 153 365 179 392.5 c 128,-1,89
 205 420 205 420 211 420 c 0,90,91
 215 420 215 420 199 436 c 0,92,93
 165 469 165 469 163 531 c 0,94,95
 162 555 162 555 157.5 559 c 128,-1,96
 153 563 153 563 118 567 c 0,97,98
 97 569 97 569 97 574 c 0,99,100
 97 578 97 578 111 587 c 0,13,14
EndSplineSet
Validated: 1
Ligature2: "'liga' Standard Ligatures in Latin lookup 0 subtable" m o k u space
Ligature2: "'liga' Standard Ligatures in Latin lookup 0 subtable" m o k u
EndChar

